<mxfile host="65bd71144e">
    <diagram id="cmoqyqZd5Xx63VM1xRgb" name="Table">
        <mxGraphModel dx="1003" dy="652" grid="1" gridSize="10" guides="1" tooltips="1" connect="1" arrows="1" fold="1" page="1" pageScale="1" pageWidth="827" pageHeight="1169" math="0" shadow="0">
            <root>
                <mxCell id="0"/>
                <mxCell id="1" parent="0"/>
                <mxCell id="2" value="" style="shape=table;startSize=0;container=1;collapsible=0;childLayout=tableLayout;" parent="1" vertex="1">
                    <mxGeometry x="80" y="200" width="336" height="160" as="geometry"/>
                </mxCell>
                <mxCell id="3" value="" style="shape=tableRow;horizontal=0;startSize=0;swimlaneHead=0;swimlaneBody=0;strokeColor=inherit;top=0;left=0;bottom=0;right=0;collapsible=0;dropTarget=0;fillColor=none;points=[[0,0.5],[1,0.5]];portConstraint=eastwest;" parent="2" vertex="1">
                    <mxGeometry width="336" height="40" as="geometry"/>
                </mxCell>
                <mxCell id="4" value="ID" style="shape=partialRectangle;html=1;whiteSpace=wrap;connectable=0;strokeColor=inherit;overflow=hidden;fillColor=none;top=0;left=0;bottom=0;right=0;pointerEvents=1;" parent="3" vertex="1">
                    <mxGeometry width="56" height="40" as="geometry">
                        <mxRectangle width="56" height="40" as="alternateBounds"/>
                    </mxGeometry>
                </mxCell>
                <mxCell id="5" value="用户名" style="shape=partialRectangle;html=1;whiteSpace=wrap;connectable=0;strokeColor=inherit;overflow=hidden;fillColor=none;top=0;left=0;bottom=0;right=0;pointerEvents=1;" parent="3" vertex="1">
                    <mxGeometry x="56" width="56" height="40" as="geometry">
                        <mxRectangle width="56" height="40" as="alternateBounds"/>
                    </mxGeometry>
                </mxCell>
                <mxCell id="6" value="盐" style="shape=partialRectangle;html=1;whiteSpace=wrap;connectable=0;strokeColor=inherit;overflow=hidden;fillColor=none;top=0;left=0;bottom=0;right=0;pointerEvents=1;" parent="3" vertex="1">
                    <mxGeometry x="112" width="56" height="40" as="geometry">
                        <mxRectangle width="56" height="40" as="alternateBounds"/>
                    </mxGeometry>
                </mxCell>
                <mxCell id="7" value="哈希值" style="shape=partialRectangle;html=1;whiteSpace=wrap;connectable=0;strokeColor=inherit;overflow=hidden;fillColor=none;top=0;left=0;bottom=0;right=0;pointerEvents=1;" parent="3" vertex="1">
                    <mxGeometry x="168" width="56" height="40" as="geometry">
                        <mxRectangle width="56" height="40" as="alternateBounds"/>
                    </mxGeometry>
                </mxCell>
                <mxCell id="8" value="&lt;meta charset=&quot;utf-8&quot;&gt;&lt;span style=&quot;color: rgb(0, 0, 0); font-family: Helvetica; font-size: 12px; font-style: normal; font-variant-ligatures: normal; font-variant-caps: normal; font-weight: 400; letter-spacing: normal; orphans: 2; text-align: center; text-indent: 0px; text-transform: none; widows: 2; word-spacing: 0px; -webkit-text-stroke-width: 0px; white-space: normal; background-color: rgb(251, 251, 251); text-decoration-thickness: initial; text-decoration-style: initial; text-decoration-color: initial; display: inline !important; float: none;&quot;&gt;余额&lt;/span&gt;" style="shape=partialRectangle;html=1;whiteSpace=wrap;connectable=0;strokeColor=inherit;overflow=hidden;fillColor=none;top=0;left=0;bottom=0;right=0;pointerEvents=1;" parent="3" vertex="1">
                    <mxGeometry x="224" width="56" height="40" as="geometry">
                        <mxRectangle width="56" height="40" as="alternateBounds"/>
                    </mxGeometry>
                </mxCell>
                <mxCell id="80" value="&lt;meta charset=&quot;utf-8&quot;&gt;&lt;span style=&quot;color: rgb(0, 0, 0); font-family: Helvetica; font-size: 12px; font-style: normal; font-variant-ligatures: normal; font-variant-caps: normal; font-weight: 400; letter-spacing: normal; orphans: 2; text-align: center; text-indent: 0px; text-transform: none; widows: 2; word-spacing: 0px; -webkit-text-stroke-width: 0px; white-space: normal; background-color: rgb(251, 251, 251); text-decoration-thickness: initial; text-decoration-style: initial; text-decoration-color: initial; display: inline !important; float: none;&quot;&gt;其它&lt;/span&gt;" style="shape=partialRectangle;html=1;whiteSpace=wrap;connectable=0;strokeColor=inherit;overflow=hidden;fillColor=none;top=0;left=0;bottom=0;right=0;pointerEvents=1;" parent="3" vertex="1">
                    <mxGeometry x="280" width="56" height="40" as="geometry">
                        <mxRectangle width="56" height="40" as="alternateBounds"/>
                    </mxGeometry>
                </mxCell>
                <mxCell id="9" value="" style="shape=tableRow;horizontal=0;startSize=0;swimlaneHead=0;swimlaneBody=0;strokeColor=inherit;top=0;left=0;bottom=0;right=0;collapsible=0;dropTarget=0;fillColor=none;points=[[0,0.5],[1,0.5]];portConstraint=eastwest;" parent="2" vertex="1">
                    <mxGeometry y="40" width="336" height="40" as="geometry"/>
                </mxCell>
                <mxCell id="10" value="1003" style="shape=partialRectangle;html=1;whiteSpace=wrap;connectable=0;strokeColor=inherit;overflow=hidden;fillColor=none;top=0;left=0;bottom=0;right=0;pointerEvents=1;" parent="9" vertex="1">
                    <mxGeometry width="56" height="40" as="geometry">
                        <mxRectangle width="56" height="40" as="alternateBounds"/>
                    </mxGeometry>
                </mxCell>
                <mxCell id="11" value="张三" style="shape=partialRectangle;html=1;whiteSpace=wrap;connectable=0;strokeColor=inherit;overflow=hidden;fillColor=none;top=0;left=0;bottom=0;right=0;pointerEvents=1;" parent="9" vertex="1">
                    <mxGeometry x="56" width="56" height="40" as="geometry">
                        <mxRectangle width="56" height="40" as="alternateBounds"/>
                    </mxGeometry>
                </mxCell>
                <mxCell id="12" value="随机数" style="shape=partialRectangle;html=1;whiteSpace=wrap;connectable=0;strokeColor=inherit;overflow=hidden;fillColor=none;top=0;left=0;bottom=0;right=0;pointerEvents=1;" parent="9" vertex="1">
                    <mxGeometry x="112" width="56" height="40" as="geometry">
                        <mxRectangle width="56" height="40" as="alternateBounds"/>
                    </mxGeometry>
                </mxCell>
                <mxCell id="13" value="&lt;meta charset=&quot;utf-8&quot;&gt;&lt;span style=&quot;color: rgb(0, 0, 0); font-family: Helvetica; font-size: 12px; font-style: normal; font-variant-ligatures: normal; font-variant-caps: normal; font-weight: 400; letter-spacing: normal; orphans: 2; text-align: center; text-indent: 0px; text-transform: none; widows: 2; word-spacing: 0px; -webkit-text-stroke-width: 0px; white-space: normal; background-color: rgb(251, 251, 251); text-decoration-thickness: initial; text-decoration-style: initial; text-decoration-color: initial; display: inline !important; float: none;&quot;&gt;0x3###&lt;/span&gt;" style="shape=partialRectangle;html=1;whiteSpace=wrap;connectable=0;strokeColor=inherit;overflow=hidden;fillColor=none;top=0;left=0;bottom=0;right=0;pointerEvents=1;" parent="9" vertex="1">
                    <mxGeometry x="168" width="56" height="40" as="geometry">
                        <mxRectangle width="56" height="40" as="alternateBounds"/>
                    </mxGeometry>
                </mxCell>
                <mxCell id="14" value="&lt;meta charset=&quot;utf-8&quot;&gt;&lt;span style=&quot;color: rgb(0, 0, 0); font-family: Helvetica; font-size: 12px; font-style: normal; font-variant-ligatures: normal; font-variant-caps: normal; font-weight: 400; letter-spacing: normal; orphans: 2; text-align: center; text-indent: 0px; text-transform: none; widows: 2; word-spacing: 0px; -webkit-text-stroke-width: 0px; white-space: normal; background-color: rgb(251, 251, 251); text-decoration-thickness: initial; text-decoration-style: initial; text-decoration-color: initial; display: inline !important; float: none;&quot;&gt;5000&lt;/span&gt;" style="shape=partialRectangle;html=1;whiteSpace=wrap;connectable=0;strokeColor=inherit;overflow=hidden;fillColor=none;top=0;left=0;bottom=0;right=0;pointerEvents=1;" parent="9" vertex="1">
                    <mxGeometry x="224" width="56" height="40" as="geometry">
                        <mxRectangle width="56" height="40" as="alternateBounds"/>
                    </mxGeometry>
                </mxCell>
                <mxCell id="81" value="&lt;meta charset=&quot;utf-8&quot;&gt;&lt;span style=&quot;color: rgb(0, 0, 0); font-family: Helvetica; font-size: 12px; font-style: normal; font-variant-ligatures: normal; font-variant-caps: normal; font-weight: 400; letter-spacing: normal; orphans: 2; text-align: center; text-indent: 0px; text-transform: none; widows: 2; word-spacing: 0px; -webkit-text-stroke-width: 0px; white-space: normal; background-color: rgb(251, 251, 251); text-decoration-thickness: initial; text-decoration-style: initial; text-decoration-color: initial; display: inline !important; float: none;&quot;&gt;...&lt;/span&gt;" style="shape=partialRectangle;html=1;whiteSpace=wrap;connectable=0;strokeColor=inherit;overflow=hidden;fillColor=none;top=0;left=0;bottom=0;right=0;pointerEvents=1;" parent="9" vertex="1">
                    <mxGeometry x="280" width="56" height="40" as="geometry">
                        <mxRectangle width="56" height="40" as="alternateBounds"/>
                    </mxGeometry>
                </mxCell>
                <mxCell id="15" value="" style="shape=tableRow;horizontal=0;startSize=0;swimlaneHead=0;swimlaneBody=0;strokeColor=inherit;top=0;left=0;bottom=0;right=0;collapsible=0;dropTarget=0;fillColor=none;points=[[0,0.5],[1,0.5]];portConstraint=eastwest;" parent="2" vertex="1">
                    <mxGeometry y="80" width="336" height="40" as="geometry"/>
                </mxCell>
                <mxCell id="16" value="1004" style="shape=partialRectangle;html=1;whiteSpace=wrap;connectable=0;strokeColor=inherit;overflow=hidden;fillColor=none;top=0;left=0;bottom=0;right=0;pointerEvents=1;" parent="15" vertex="1">
                    <mxGeometry width="56" height="40" as="geometry">
                        <mxRectangle width="56" height="40" as="alternateBounds"/>
                    </mxGeometry>
                </mxCell>
                <mxCell id="17" value="李四" style="shape=partialRectangle;html=1;whiteSpace=wrap;connectable=0;strokeColor=inherit;overflow=hidden;fillColor=none;top=0;left=0;bottom=0;right=0;pointerEvents=1;" parent="15" vertex="1">
                    <mxGeometry x="56" width="56" height="40" as="geometry">
                        <mxRectangle width="56" height="40" as="alternateBounds"/>
                    </mxGeometry>
                </mxCell>
                <mxCell id="18" value="&lt;span style=&quot;color: rgb(0, 0, 0);&quot;&gt;随机数&lt;/span&gt;" style="shape=partialRectangle;html=1;whiteSpace=wrap;connectable=0;strokeColor=inherit;overflow=hidden;fillColor=none;top=0;left=0;bottom=0;right=0;pointerEvents=1;" parent="15" vertex="1">
                    <mxGeometry x="112" width="56" height="40" as="geometry">
                        <mxRectangle width="56" height="40" as="alternateBounds"/>
                    </mxGeometry>
                </mxCell>
                <mxCell id="19" value="&lt;meta charset=&quot;utf-8&quot;&gt;&lt;span style=&quot;color: rgb(0, 0, 0); font-family: Helvetica; font-size: 12px; font-style: normal; font-variant-ligatures: normal; font-variant-caps: normal; font-weight: 400; letter-spacing: normal; orphans: 2; text-align: center; text-indent: 0px; text-transform: none; widows: 2; word-spacing: 0px; -webkit-text-stroke-width: 0px; white-space: normal; background-color: rgb(251, 251, 251); text-decoration-thickness: initial; text-decoration-style: initial; text-decoration-color: initial; display: inline !important; float: none;&quot;&gt;0x4###&lt;/span&gt;" style="shape=partialRectangle;html=1;whiteSpace=wrap;connectable=0;strokeColor=inherit;overflow=hidden;fillColor=none;top=0;left=0;bottom=0;right=0;pointerEvents=1;" parent="15" vertex="1">
                    <mxGeometry x="168" width="56" height="40" as="geometry">
                        <mxRectangle width="56" height="40" as="alternateBounds"/>
                    </mxGeometry>
                </mxCell>
                <mxCell id="20" value="&lt;meta charset=&quot;utf-8&quot;&gt;&lt;span style=&quot;color: rgb(0, 0, 0); font-family: Helvetica; font-size: 12px; font-style: normal; font-variant-ligatures: normal; font-variant-caps: normal; font-weight: 400; letter-spacing: normal; orphans: 2; text-align: center; text-indent: 0px; text-transform: none; widows: 2; word-spacing: 0px; -webkit-text-stroke-width: 0px; white-space: normal; background-color: rgb(251, 251, 251); text-decoration-thickness: initial; text-decoration-style: initial; text-decoration-color: initial; display: inline !important; float: none;&quot;&gt;6000&lt;/span&gt;" style="shape=partialRectangle;html=1;whiteSpace=wrap;connectable=0;strokeColor=inherit;overflow=hidden;fillColor=none;top=0;left=0;bottom=0;right=0;pointerEvents=1;" parent="15" vertex="1">
                    <mxGeometry x="224" width="56" height="40" as="geometry">
                        <mxRectangle width="56" height="40" as="alternateBounds"/>
                    </mxGeometry>
                </mxCell>
                <mxCell id="82" value="&lt;meta charset=&quot;utf-8&quot;&gt;&lt;span style=&quot;color: rgb(0, 0, 0); font-family: Helvetica; font-size: 12px; font-style: normal; font-variant-ligatures: normal; font-variant-caps: normal; font-weight: 400; letter-spacing: normal; orphans: 2; text-align: center; text-indent: 0px; text-transform: none; widows: 2; word-spacing: 0px; -webkit-text-stroke-width: 0px; white-space: normal; background-color: rgb(251, 251, 251); text-decoration-thickness: initial; text-decoration-style: initial; text-decoration-color: initial; display: inline !important; float: none;&quot;&gt;...&lt;/span&gt;" style="shape=partialRectangle;html=1;whiteSpace=wrap;connectable=0;strokeColor=inherit;overflow=hidden;fillColor=none;top=0;left=0;bottom=0;right=0;pointerEvents=1;" parent="15" vertex="1">
                    <mxGeometry x="280" width="56" height="40" as="geometry">
                        <mxRectangle width="56" height="40" as="alternateBounds"/>
                    </mxGeometry>
                </mxCell>
                <mxCell id="27" style="shape=tableRow;horizontal=0;startSize=0;swimlaneHead=0;swimlaneBody=0;strokeColor=inherit;top=0;left=0;bottom=0;right=0;collapsible=0;dropTarget=0;fillColor=none;points=[[0,0.5],[1,0.5]];portConstraint=eastwest;" parent="2" vertex="1">
                    <mxGeometry y="120" width="336" height="40" as="geometry"/>
                </mxCell>
                <mxCell id="28" value="1005" style="shape=partialRectangle;html=1;whiteSpace=wrap;connectable=0;strokeColor=inherit;overflow=hidden;fillColor=none;top=0;left=0;bottom=0;right=0;pointerEvents=1;" parent="27" vertex="1">
                    <mxGeometry width="56" height="40" as="geometry">
                        <mxRectangle width="56" height="40" as="alternateBounds"/>
                    </mxGeometry>
                </mxCell>
                <mxCell id="29" value="王五" style="shape=partialRectangle;html=1;whiteSpace=wrap;connectable=0;strokeColor=inherit;overflow=hidden;fillColor=none;top=0;left=0;bottom=0;right=0;pointerEvents=1;" parent="27" vertex="1">
                    <mxGeometry x="56" width="56" height="40" as="geometry">
                        <mxRectangle width="56" height="40" as="alternateBounds"/>
                    </mxGeometry>
                </mxCell>
                <mxCell id="30" value="&lt;span style=&quot;color: rgb(0, 0, 0);&quot;&gt;随机数&lt;/span&gt;" style="shape=partialRectangle;html=1;whiteSpace=wrap;connectable=0;strokeColor=inherit;overflow=hidden;fillColor=none;top=0;left=0;bottom=0;right=0;pointerEvents=1;" parent="27" vertex="1">
                    <mxGeometry x="112" width="56" height="40" as="geometry">
                        <mxRectangle width="56" height="40" as="alternateBounds"/>
                    </mxGeometry>
                </mxCell>
                <mxCell id="31" value="&lt;meta charset=&quot;utf-8&quot;&gt;&lt;span style=&quot;color: rgb(0, 0, 0); font-family: Helvetica; font-size: 12px; font-style: normal; font-variant-ligatures: normal; font-variant-caps: normal; font-weight: 400; letter-spacing: normal; orphans: 2; text-align: center; text-indent: 0px; text-transform: none; widows: 2; word-spacing: 0px; -webkit-text-stroke-width: 0px; white-space: normal; background-color: rgb(251, 251, 251); text-decoration-thickness: initial; text-decoration-style: initial; text-decoration-color: initial; display: inline !important; float: none;&quot;&gt;0x5###&lt;/span&gt;" style="shape=partialRectangle;html=1;whiteSpace=wrap;connectable=0;strokeColor=inherit;overflow=hidden;fillColor=none;top=0;left=0;bottom=0;right=0;pointerEvents=1;" parent="27" vertex="1">
                    <mxGeometry x="168" width="56" height="40" as="geometry">
                        <mxRectangle width="56" height="40" as="alternateBounds"/>
                    </mxGeometry>
                </mxCell>
                <mxCell id="32" value="&lt;meta charset=&quot;utf-8&quot;&gt;&lt;span style=&quot;color: rgb(0, 0, 0); font-family: Helvetica; font-size: 12px; font-style: normal; font-variant-ligatures: normal; font-variant-caps: normal; font-weight: 400; letter-spacing: normal; orphans: 2; text-align: center; text-indent: 0px; text-transform: none; widows: 2; word-spacing: 0px; -webkit-text-stroke-width: 0px; white-space: normal; background-color: rgb(251, 251, 251); text-decoration-thickness: initial; text-decoration-style: initial; text-decoration-color: initial; display: inline !important; float: none;&quot;&gt;8000&lt;/span&gt;" style="shape=partialRectangle;html=1;whiteSpace=wrap;connectable=0;strokeColor=inherit;overflow=hidden;fillColor=none;top=0;left=0;bottom=0;right=0;pointerEvents=1;" parent="27" vertex="1">
                    <mxGeometry x="224" width="56" height="40" as="geometry">
                        <mxRectangle width="56" height="40" as="alternateBounds"/>
                    </mxGeometry>
                </mxCell>
                <mxCell id="83" value="&lt;meta charset=&quot;utf-8&quot;&gt;&lt;span style=&quot;color: rgb(0, 0, 0); font-family: Helvetica; font-size: 12px; font-style: normal; font-variant-ligatures: normal; font-variant-caps: normal; font-weight: 400; letter-spacing: normal; orphans: 2; text-align: center; text-indent: 0px; text-transform: none; widows: 2; word-spacing: 0px; -webkit-text-stroke-width: 0px; white-space: normal; background-color: rgb(251, 251, 251); text-decoration-thickness: initial; text-decoration-style: initial; text-decoration-color: initial; display: inline !important; float: none;&quot;&gt;...&lt;/span&gt;" style="shape=partialRectangle;html=1;whiteSpace=wrap;connectable=0;strokeColor=inherit;overflow=hidden;fillColor=none;top=0;left=0;bottom=0;right=0;pointerEvents=1;" parent="27" vertex="1">
                    <mxGeometry x="280" width="56" height="40" as="geometry">
                        <mxRectangle width="56" height="40" as="alternateBounds"/>
                    </mxGeometry>
                </mxCell>
                <mxCell id="52" value="" style="shape=table;startSize=0;container=1;collapsible=0;childLayout=tableLayout;" parent="1" vertex="1">
                    <mxGeometry x="500" y="200" width="280" height="160" as="geometry"/>
                </mxCell>
                <mxCell id="53" value="" style="shape=tableRow;horizontal=0;startSize=0;swimlaneHead=0;swimlaneBody=0;strokeColor=inherit;top=0;left=0;bottom=0;right=0;collapsible=0;dropTarget=0;fillColor=none;points=[[0,0.5],[1,0.5]];portConstraint=eastwest;" parent="52" vertex="1">
                    <mxGeometry width="280" height="40" as="geometry"/>
                </mxCell>
                <mxCell id="54" value="ID" style="shape=partialRectangle;html=1;whiteSpace=wrap;connectable=0;strokeColor=inherit;overflow=hidden;fillColor=none;top=0;left=0;bottom=0;right=0;pointerEvents=1;" parent="53" vertex="1">
                    <mxGeometry width="56" height="40" as="geometry">
                        <mxRectangle width="56" height="40" as="alternateBounds"/>
                    </mxGeometry>
                </mxCell>
                <mxCell id="55" value="用户名" style="shape=partialRectangle;html=1;whiteSpace=wrap;connectable=0;strokeColor=inherit;overflow=hidden;fillColor=none;top=0;left=0;bottom=0;right=0;pointerEvents=1;" parent="53" vertex="1">
                    <mxGeometry x="56" width="56" height="40" as="geometry">
                        <mxRectangle width="56" height="40" as="alternateBounds"/>
                    </mxGeometry>
                </mxCell>
                <mxCell id="56" value="&lt;font style=&quot;color: rgb(255, 0, 0);&quot;&gt;公钥&lt;/font&gt;" style="shape=partialRectangle;html=1;whiteSpace=wrap;connectable=0;strokeColor=inherit;overflow=hidden;fillColor=none;top=0;left=0;bottom=0;right=0;pointerEvents=1;" parent="53" vertex="1">
                    <mxGeometry x="112" width="56" height="40" as="geometry">
                        <mxRectangle width="56" height="40" as="alternateBounds"/>
                    </mxGeometry>
                </mxCell>
                <mxCell id="57" value="余额" style="shape=partialRectangle;html=1;whiteSpace=wrap;connectable=0;strokeColor=inherit;overflow=hidden;fillColor=none;top=0;left=0;bottom=0;right=0;pointerEvents=1;" parent="53" vertex="1">
                    <mxGeometry x="168" width="56" height="40" as="geometry">
                        <mxRectangle width="56" height="40" as="alternateBounds"/>
                    </mxGeometry>
                </mxCell>
                <mxCell id="58" value="其它" style="shape=partialRectangle;html=1;whiteSpace=wrap;connectable=0;strokeColor=inherit;overflow=hidden;fillColor=none;top=0;left=0;bottom=0;right=0;pointerEvents=1;" parent="53" vertex="1">
                    <mxGeometry x="224" width="56" height="40" as="geometry">
                        <mxRectangle width="56" height="40" as="alternateBounds"/>
                    </mxGeometry>
                </mxCell>
                <mxCell id="59" value="" style="shape=tableRow;horizontal=0;startSize=0;swimlaneHead=0;swimlaneBody=0;strokeColor=inherit;top=0;left=0;bottom=0;right=0;collapsible=0;dropTarget=0;fillColor=none;points=[[0,0.5],[1,0.5]];portConstraint=eastwest;" parent="52" vertex="1">
                    <mxGeometry y="40" width="280" height="40" as="geometry"/>
                </mxCell>
                <mxCell id="60" value="1003" style="shape=partialRectangle;html=1;whiteSpace=wrap;connectable=0;strokeColor=inherit;overflow=hidden;fillColor=none;top=0;left=0;bottom=0;right=0;pointerEvents=1;" parent="59" vertex="1">
                    <mxGeometry width="56" height="40" as="geometry">
                        <mxRectangle width="56" height="40" as="alternateBounds"/>
                    </mxGeometry>
                </mxCell>
                <mxCell id="61" value="张三" style="shape=partialRectangle;html=1;whiteSpace=wrap;connectable=0;strokeColor=inherit;overflow=hidden;fillColor=none;top=0;left=0;bottom=0;right=0;pointerEvents=1;" parent="59" vertex="1">
                    <mxGeometry x="56" width="56" height="40" as="geometry">
                        <mxRectangle width="56" height="40" as="alternateBounds"/>
                    </mxGeometry>
                </mxCell>
                <mxCell id="62" value="&lt;font style=&quot;color: rgb(255, 0, 0);&quot;&gt;0x345..&lt;/font&gt;" style="shape=partialRectangle;html=1;whiteSpace=wrap;connectable=0;strokeColor=inherit;overflow=hidden;fillColor=none;top=0;left=0;bottom=0;right=0;pointerEvents=1;" parent="59" vertex="1">
                    <mxGeometry x="112" width="56" height="40" as="geometry">
                        <mxRectangle width="56" height="40" as="alternateBounds"/>
                    </mxGeometry>
                </mxCell>
                <mxCell id="63" value="5000" style="shape=partialRectangle;html=1;whiteSpace=wrap;connectable=0;strokeColor=inherit;overflow=hidden;fillColor=none;top=0;left=0;bottom=0;right=0;pointerEvents=1;" parent="59" vertex="1">
                    <mxGeometry x="168" width="56" height="40" as="geometry">
                        <mxRectangle width="56" height="40" as="alternateBounds"/>
                    </mxGeometry>
                </mxCell>
                <mxCell id="64" value="..." style="shape=partialRectangle;html=1;whiteSpace=wrap;connectable=0;strokeColor=inherit;overflow=hidden;fillColor=none;top=0;left=0;bottom=0;right=0;pointerEvents=1;" parent="59" vertex="1">
                    <mxGeometry x="224" width="56" height="40" as="geometry">
                        <mxRectangle width="56" height="40" as="alternateBounds"/>
                    </mxGeometry>
                </mxCell>
                <mxCell id="65" value="" style="shape=tableRow;horizontal=0;startSize=0;swimlaneHead=0;swimlaneBody=0;strokeColor=inherit;top=0;left=0;bottom=0;right=0;collapsible=0;dropTarget=0;fillColor=none;points=[[0,0.5],[1,0.5]];portConstraint=eastwest;" parent="52" vertex="1">
                    <mxGeometry y="80" width="280" height="40" as="geometry"/>
                </mxCell>
                <mxCell id="66" value="1004" style="shape=partialRectangle;html=1;whiteSpace=wrap;connectable=0;strokeColor=inherit;overflow=hidden;fillColor=none;top=0;left=0;bottom=0;right=0;pointerEvents=1;" parent="65" vertex="1">
                    <mxGeometry width="56" height="40" as="geometry">
                        <mxRectangle width="56" height="40" as="alternateBounds"/>
                    </mxGeometry>
                </mxCell>
                <mxCell id="67" value="李四" style="shape=partialRectangle;html=1;whiteSpace=wrap;connectable=0;strokeColor=inherit;overflow=hidden;fillColor=none;top=0;left=0;bottom=0;right=0;pointerEvents=1;" parent="65" vertex="1">
                    <mxGeometry x="56" width="56" height="40" as="geometry">
                        <mxRectangle width="56" height="40" as="alternateBounds"/>
                    </mxGeometry>
                </mxCell>
                <mxCell id="68" value="&lt;font style=&quot;color: rgb(255, 0, 0);&quot;&gt;0x456..&lt;/font&gt;" style="shape=partialRectangle;html=1;whiteSpace=wrap;connectable=0;strokeColor=inherit;overflow=hidden;fillColor=none;top=0;left=0;bottom=0;right=0;pointerEvents=1;" parent="65" vertex="1">
                    <mxGeometry x="112" width="56" height="40" as="geometry">
                        <mxRectangle width="56" height="40" as="alternateBounds"/>
                    </mxGeometry>
                </mxCell>
                <mxCell id="69" value="6000" style="shape=partialRectangle;html=1;whiteSpace=wrap;connectable=0;strokeColor=inherit;overflow=hidden;fillColor=none;top=0;left=0;bottom=0;right=0;pointerEvents=1;" parent="65" vertex="1">
                    <mxGeometry x="168" width="56" height="40" as="geometry">
                        <mxRectangle width="56" height="40" as="alternateBounds"/>
                    </mxGeometry>
                </mxCell>
                <mxCell id="70" value="..." style="shape=partialRectangle;html=1;whiteSpace=wrap;connectable=0;strokeColor=inherit;overflow=hidden;fillColor=none;top=0;left=0;bottom=0;right=0;pointerEvents=1;" parent="65" vertex="1">
                    <mxGeometry x="224" width="56" height="40" as="geometry">
                        <mxRectangle width="56" height="40" as="alternateBounds"/>
                    </mxGeometry>
                </mxCell>
                <mxCell id="71" style="shape=tableRow;horizontal=0;startSize=0;swimlaneHead=0;swimlaneBody=0;strokeColor=inherit;top=0;left=0;bottom=0;right=0;collapsible=0;dropTarget=0;fillColor=none;points=[[0,0.5],[1,0.5]];portConstraint=eastwest;" parent="52" vertex="1">
                    <mxGeometry y="120" width="280" height="40" as="geometry"/>
                </mxCell>
                <mxCell id="72" value="1005" style="shape=partialRectangle;html=1;whiteSpace=wrap;connectable=0;strokeColor=inherit;overflow=hidden;fillColor=none;top=0;left=0;bottom=0;right=0;pointerEvents=1;" parent="71" vertex="1">
                    <mxGeometry width="56" height="40" as="geometry">
                        <mxRectangle width="56" height="40" as="alternateBounds"/>
                    </mxGeometry>
                </mxCell>
                <mxCell id="73" value="王五" style="shape=partialRectangle;html=1;whiteSpace=wrap;connectable=0;strokeColor=inherit;overflow=hidden;fillColor=none;top=0;left=0;bottom=0;right=0;pointerEvents=1;" parent="71" vertex="1">
                    <mxGeometry x="56" width="56" height="40" as="geometry">
                        <mxRectangle width="56" height="40" as="alternateBounds"/>
                    </mxGeometry>
                </mxCell>
                <mxCell id="74" value="&lt;font style=&quot;color: rgb(255, 0, 0);&quot;&gt;0x567..&lt;/font&gt;" style="shape=partialRectangle;html=1;whiteSpace=wrap;connectable=0;strokeColor=inherit;overflow=hidden;fillColor=none;top=0;left=0;bottom=0;right=0;pointerEvents=1;" parent="71" vertex="1">
                    <mxGeometry x="112" width="56" height="40" as="geometry">
                        <mxRectangle width="56" height="40" as="alternateBounds"/>
                    </mxGeometry>
                </mxCell>
                <mxCell id="75" value="8000" style="shape=partialRectangle;html=1;whiteSpace=wrap;connectable=0;strokeColor=inherit;overflow=hidden;fillColor=none;top=0;left=0;bottom=0;right=0;pointerEvents=1;" parent="71" vertex="1">
                    <mxGeometry x="168" width="56" height="40" as="geometry">
                        <mxRectangle width="56" height="40" as="alternateBounds"/>
                    </mxGeometry>
                </mxCell>
                <mxCell id="76" value="..." style="shape=partialRectangle;html=1;whiteSpace=wrap;connectable=0;strokeColor=inherit;overflow=hidden;fillColor=none;top=0;left=0;bottom=0;right=0;pointerEvents=1;" parent="71" vertex="1">
                    <mxGeometry x="224" width="56" height="40" as="geometry">
                        <mxRectangle width="56" height="40" as="alternateBounds"/>
                    </mxGeometry>
                </mxCell>
                <mxCell id="77" value="" style="shape=flexArrow;endArrow=classic;html=1;" parent="1" edge="1">
                    <mxGeometry width="50" height="50" relative="1" as="geometry">
                        <mxPoint x="435" y="279.5" as="sourcePoint"/>
                        <mxPoint x="485" y="279.5" as="targetPoint"/>
                    </mxGeometry>
                </mxCell>
                <mxCell id="78" value="用户表v1" style="text;html=1;align=center;verticalAlign=middle;resizable=0;points=[];autosize=1;strokeColor=none;fillColor=none;" parent="1" vertex="1">
                    <mxGeometry x="170" y="360" width="70" height="30" as="geometry"/>
                </mxCell>
                <mxCell id="79" value="用户表v2" style="text;html=1;align=center;verticalAlign=middle;resizable=0;points=[];autosize=1;strokeColor=none;fillColor=none;" parent="1" vertex="1">
                    <mxGeometry x="590" y="360" width="70" height="30" as="geometry"/>
                </mxCell>
                <mxCell id="3if9wKampapFKrjMIruf-79" value="" style="shape=table;startSize=0;container=1;collapsible=0;childLayout=tableLayout;" parent="1" vertex="1">
                    <mxGeometry x="80" y="480" width="280" height="160" as="geometry"/>
                </mxCell>
                <mxCell id="3if9wKampapFKrjMIruf-80" value="" style="shape=tableRow;horizontal=0;startSize=0;swimlaneHead=0;swimlaneBody=0;strokeColor=inherit;top=0;left=0;bottom=0;right=0;collapsible=0;dropTarget=0;fillColor=none;points=[[0,0.5],[1,0.5]];portConstraint=eastwest;" parent="3if9wKampapFKrjMIruf-79" vertex="1">
                    <mxGeometry width="280" height="40" as="geometry"/>
                </mxCell>
                <mxCell id="3if9wKampapFKrjMIruf-81" value="ID" style="shape=partialRectangle;html=1;whiteSpace=wrap;connectable=0;strokeColor=inherit;overflow=hidden;fillColor=none;top=0;left=0;bottom=0;right=0;pointerEvents=1;" parent="3if9wKampapFKrjMIruf-80" vertex="1">
                    <mxGeometry width="56" height="40" as="geometry">
                        <mxRectangle width="56" height="40" as="alternateBounds"/>
                    </mxGeometry>
                </mxCell>
                <mxCell id="3if9wKampapFKrjMIruf-82" value="用户名" style="shape=partialRectangle;html=1;whiteSpace=wrap;connectable=0;strokeColor=inherit;overflow=hidden;fillColor=none;top=0;left=0;bottom=0;right=0;pointerEvents=1;" parent="3if9wKampapFKrjMIruf-80" vertex="1">
                    <mxGeometry x="56" width="56" height="40" as="geometry">
                        <mxRectangle width="56" height="40" as="alternateBounds"/>
                    </mxGeometry>
                </mxCell>
                <mxCell id="3if9wKampapFKrjMIruf-83" value="&lt;font style=&quot;color: rgb(0, 0, 0);&quot;&gt;公钥&lt;/font&gt;" style="shape=partialRectangle;html=1;whiteSpace=wrap;connectable=0;strokeColor=inherit;overflow=hidden;fillColor=none;top=0;left=0;bottom=0;right=0;pointerEvents=1;" parent="3if9wKampapFKrjMIruf-80" vertex="1">
                    <mxGeometry x="112" width="56" height="40" as="geometry">
                        <mxRectangle width="56" height="40" as="alternateBounds"/>
                    </mxGeometry>
                </mxCell>
                <mxCell id="3if9wKampapFKrjMIruf-84" value="余额" style="shape=partialRectangle;html=1;whiteSpace=wrap;connectable=0;strokeColor=inherit;overflow=hidden;fillColor=none;top=0;left=0;bottom=0;right=0;pointerEvents=1;" parent="3if9wKampapFKrjMIruf-80" vertex="1">
                    <mxGeometry x="168" width="56" height="40" as="geometry">
                        <mxRectangle width="56" height="40" as="alternateBounds"/>
                    </mxGeometry>
                </mxCell>
                <mxCell id="3if9wKampapFKrjMIruf-85" value="其它" style="shape=partialRectangle;html=1;whiteSpace=wrap;connectable=0;strokeColor=inherit;overflow=hidden;fillColor=none;top=0;left=0;bottom=0;right=0;pointerEvents=1;" parent="3if9wKampapFKrjMIruf-80" vertex="1">
                    <mxGeometry x="224" width="56" height="40" as="geometry">
                        <mxRectangle width="56" height="40" as="alternateBounds"/>
                    </mxGeometry>
                </mxCell>
                <mxCell id="3if9wKampapFKrjMIruf-86" value="" style="shape=tableRow;horizontal=0;startSize=0;swimlaneHead=0;swimlaneBody=0;strokeColor=inherit;top=0;left=0;bottom=0;right=0;collapsible=0;dropTarget=0;fillColor=none;points=[[0,0.5],[1,0.5]];portConstraint=eastwest;" parent="3if9wKampapFKrjMIruf-79" vertex="1">
                    <mxGeometry y="40" width="280" height="40" as="geometry"/>
                </mxCell>
                <mxCell id="3if9wKampapFKrjMIruf-87" value="1003" style="shape=partialRectangle;html=1;whiteSpace=wrap;connectable=0;strokeColor=inherit;overflow=hidden;fillColor=none;top=0;left=0;bottom=0;right=0;pointerEvents=1;" parent="3if9wKampapFKrjMIruf-86" vertex="1">
                    <mxGeometry width="56" height="40" as="geometry">
                        <mxRectangle width="56" height="40" as="alternateBounds"/>
                    </mxGeometry>
                </mxCell>
                <mxCell id="3if9wKampapFKrjMIruf-88" value="张三" style="shape=partialRectangle;html=1;whiteSpace=wrap;connectable=0;strokeColor=inherit;overflow=hidden;fillColor=none;top=0;left=0;bottom=0;right=0;pointerEvents=1;" parent="3if9wKampapFKrjMIruf-86" vertex="1">
                    <mxGeometry x="56" width="56" height="40" as="geometry">
                        <mxRectangle width="56" height="40" as="alternateBounds"/>
                    </mxGeometry>
                </mxCell>
                <mxCell id="3if9wKampapFKrjMIruf-89" value="&lt;font style=&quot;color: rgb(0, 0, 0);&quot;&gt;0x345..&lt;/font&gt;" style="shape=partialRectangle;html=1;whiteSpace=wrap;connectable=0;strokeColor=inherit;overflow=hidden;fillColor=none;top=0;left=0;bottom=0;right=0;pointerEvents=1;" parent="3if9wKampapFKrjMIruf-86" vertex="1">
                    <mxGeometry x="112" width="56" height="40" as="geometry">
                        <mxRectangle width="56" height="40" as="alternateBounds"/>
                    </mxGeometry>
                </mxCell>
                <mxCell id="3if9wKampapFKrjMIruf-90" value="5000" style="shape=partialRectangle;html=1;whiteSpace=wrap;connectable=0;strokeColor=inherit;overflow=hidden;fillColor=none;top=0;left=0;bottom=0;right=0;pointerEvents=1;" parent="3if9wKampapFKrjMIruf-86" vertex="1">
                    <mxGeometry x="168" width="56" height="40" as="geometry">
                        <mxRectangle width="56" height="40" as="alternateBounds"/>
                    </mxGeometry>
                </mxCell>
                <mxCell id="3if9wKampapFKrjMIruf-91" value="..." style="shape=partialRectangle;html=1;whiteSpace=wrap;connectable=0;strokeColor=inherit;overflow=hidden;fillColor=none;top=0;left=0;bottom=0;right=0;pointerEvents=1;" parent="3if9wKampapFKrjMIruf-86" vertex="1">
                    <mxGeometry x="224" width="56" height="40" as="geometry">
                        <mxRectangle width="56" height="40" as="alternateBounds"/>
                    </mxGeometry>
                </mxCell>
                <mxCell id="3if9wKampapFKrjMIruf-92" value="" style="shape=tableRow;horizontal=0;startSize=0;swimlaneHead=0;swimlaneBody=0;strokeColor=inherit;top=0;left=0;bottom=0;right=0;collapsible=0;dropTarget=0;fillColor=none;points=[[0,0.5],[1,0.5]];portConstraint=eastwest;" parent="3if9wKampapFKrjMIruf-79" vertex="1">
                    <mxGeometry y="80" width="280" height="40" as="geometry"/>
                </mxCell>
                <mxCell id="3if9wKampapFKrjMIruf-93" value="1004" style="shape=partialRectangle;html=1;whiteSpace=wrap;connectable=0;strokeColor=inherit;overflow=hidden;fillColor=none;top=0;left=0;bottom=0;right=0;pointerEvents=1;" parent="3if9wKampapFKrjMIruf-92" vertex="1">
                    <mxGeometry width="56" height="40" as="geometry">
                        <mxRectangle width="56" height="40" as="alternateBounds"/>
                    </mxGeometry>
                </mxCell>
                <mxCell id="3if9wKampapFKrjMIruf-94" value="李四" style="shape=partialRectangle;html=1;whiteSpace=wrap;connectable=0;strokeColor=inherit;overflow=hidden;fillColor=none;top=0;left=0;bottom=0;right=0;pointerEvents=1;" parent="3if9wKampapFKrjMIruf-92" vertex="1">
                    <mxGeometry x="56" width="56" height="40" as="geometry">
                        <mxRectangle width="56" height="40" as="alternateBounds"/>
                    </mxGeometry>
                </mxCell>
                <mxCell id="3if9wKampapFKrjMIruf-95" value="&lt;font style=&quot;color: rgb(0, 0, 0);&quot;&gt;0x456..&lt;/font&gt;" style="shape=partialRectangle;html=1;whiteSpace=wrap;connectable=0;strokeColor=inherit;overflow=hidden;fillColor=none;top=0;left=0;bottom=0;right=0;pointerEvents=1;" parent="3if9wKampapFKrjMIruf-92" vertex="1">
                    <mxGeometry x="112" width="56" height="40" as="geometry">
                        <mxRectangle width="56" height="40" as="alternateBounds"/>
                    </mxGeometry>
                </mxCell>
                <mxCell id="3if9wKampapFKrjMIruf-96" value="6000" style="shape=partialRectangle;html=1;whiteSpace=wrap;connectable=0;strokeColor=inherit;overflow=hidden;fillColor=none;top=0;left=0;bottom=0;right=0;pointerEvents=1;" parent="3if9wKampapFKrjMIruf-92" vertex="1">
                    <mxGeometry x="168" width="56" height="40" as="geometry">
                        <mxRectangle width="56" height="40" as="alternateBounds"/>
                    </mxGeometry>
                </mxCell>
                <mxCell id="3if9wKampapFKrjMIruf-97" value="..." style="shape=partialRectangle;html=1;whiteSpace=wrap;connectable=0;strokeColor=inherit;overflow=hidden;fillColor=none;top=0;left=0;bottom=0;right=0;pointerEvents=1;" parent="3if9wKampapFKrjMIruf-92" vertex="1">
                    <mxGeometry x="224" width="56" height="40" as="geometry">
                        <mxRectangle width="56" height="40" as="alternateBounds"/>
                    </mxGeometry>
                </mxCell>
                <mxCell id="3if9wKampapFKrjMIruf-98" style="shape=tableRow;horizontal=0;startSize=0;swimlaneHead=0;swimlaneBody=0;strokeColor=inherit;top=0;left=0;bottom=0;right=0;collapsible=0;dropTarget=0;fillColor=none;points=[[0,0.5],[1,0.5]];portConstraint=eastwest;" parent="3if9wKampapFKrjMIruf-79" vertex="1">
                    <mxGeometry y="120" width="280" height="40" as="geometry"/>
                </mxCell>
                <mxCell id="3if9wKampapFKrjMIruf-99" value="1005" style="shape=partialRectangle;html=1;whiteSpace=wrap;connectable=0;strokeColor=inherit;overflow=hidden;fillColor=none;top=0;left=0;bottom=0;right=0;pointerEvents=1;" parent="3if9wKampapFKrjMIruf-98" vertex="1">
                    <mxGeometry width="56" height="40" as="geometry">
                        <mxRectangle width="56" height="40" as="alternateBounds"/>
                    </mxGeometry>
                </mxCell>
                <mxCell id="3if9wKampapFKrjMIruf-100" value="王五" style="shape=partialRectangle;html=1;whiteSpace=wrap;connectable=0;strokeColor=inherit;overflow=hidden;fillColor=none;top=0;left=0;bottom=0;right=0;pointerEvents=1;" parent="3if9wKampapFKrjMIruf-98" vertex="1">
                    <mxGeometry x="56" width="56" height="40" as="geometry">
                        <mxRectangle width="56" height="40" as="alternateBounds"/>
                    </mxGeometry>
                </mxCell>
                <mxCell id="3if9wKampapFKrjMIruf-101" value="&lt;font style=&quot;color: rgb(0, 0, 0);&quot;&gt;0x567..&lt;/font&gt;" style="shape=partialRectangle;html=1;whiteSpace=wrap;connectable=0;strokeColor=inherit;overflow=hidden;fillColor=none;top=0;left=0;bottom=0;right=0;pointerEvents=1;" parent="3if9wKampapFKrjMIruf-98" vertex="1">
                    <mxGeometry x="112" width="56" height="40" as="geometry">
                        <mxRectangle width="56" height="40" as="alternateBounds"/>
                    </mxGeometry>
                </mxCell>
                <mxCell id="3if9wKampapFKrjMIruf-102" value="8000" style="shape=partialRectangle;html=1;whiteSpace=wrap;connectable=0;strokeColor=inherit;overflow=hidden;fillColor=none;top=0;left=0;bottom=0;right=0;pointerEvents=1;" parent="3if9wKampapFKrjMIruf-98" vertex="1">
                    <mxGeometry x="168" width="56" height="40" as="geometry">
                        <mxRectangle width="56" height="40" as="alternateBounds"/>
                    </mxGeometry>
                </mxCell>
                <mxCell id="3if9wKampapFKrjMIruf-103" value="..." style="shape=partialRectangle;html=1;whiteSpace=wrap;connectable=0;strokeColor=inherit;overflow=hidden;fillColor=none;top=0;left=0;bottom=0;right=0;pointerEvents=1;" parent="3if9wKampapFKrjMIruf-98" vertex="1">
                    <mxGeometry x="224" width="56" height="40" as="geometry">
                        <mxRectangle width="56" height="40" as="alternateBounds"/>
                    </mxGeometry>
                </mxCell>
                <mxCell id="3if9wKampapFKrjMIruf-104" value="用户表v2" style="text;html=1;align=center;verticalAlign=middle;resizable=0;points=[];autosize=1;strokeColor=none;fillColor=none;" parent="1" vertex="1">
                    <mxGeometry x="170" y="640" width="70" height="30" as="geometry"/>
                </mxCell>
                <mxCell id="3if9wKampapFKrjMIruf-131" value="" style="shape=table;startSize=0;container=1;collapsible=0;childLayout=tableLayout;" parent="1" vertex="1">
                    <mxGeometry x="440" y="480" width="336" height="160" as="geometry"/>
                </mxCell>
                <mxCell id="3if9wKampapFKrjMIruf-132" value="" style="shape=tableRow;horizontal=0;startSize=0;swimlaneHead=0;swimlaneBody=0;strokeColor=inherit;top=0;left=0;bottom=0;right=0;collapsible=0;dropTarget=0;fillColor=none;points=[[0,0.5],[1,0.5]];portConstraint=eastwest;" parent="3if9wKampapFKrjMIruf-131" vertex="1">
                    <mxGeometry width="336" height="40" as="geometry"/>
                </mxCell>
                <mxCell id="3if9wKampapFKrjMIruf-133" value="ID" style="shape=partialRectangle;html=1;whiteSpace=wrap;connectable=0;strokeColor=inherit;overflow=hidden;fillColor=none;top=0;left=0;bottom=0;right=0;pointerEvents=1;" parent="3if9wKampapFKrjMIruf-132" vertex="1">
                    <mxGeometry width="56" height="40" as="geometry">
                        <mxRectangle width="56" height="40" as="alternateBounds"/>
                    </mxGeometry>
                </mxCell>
                <mxCell id="3if9wKampapFKrjMIruf-134" value="用户名" style="shape=partialRectangle;html=1;whiteSpace=wrap;connectable=0;strokeColor=inherit;overflow=hidden;fillColor=none;top=0;left=0;bottom=0;right=0;pointerEvents=1;" parent="3if9wKampapFKrjMIruf-132" vertex="1">
                    <mxGeometry x="56" width="56" height="40" as="geometry">
                        <mxRectangle width="56" height="40" as="alternateBounds"/>
                    </mxGeometry>
                </mxCell>
                <mxCell id="3if9wKampapFKrjMIruf-135" value="&lt;font style=&quot;color: rgb(0, 0, 0);&quot;&gt;公钥&lt;/font&gt;" style="shape=partialRectangle;html=1;whiteSpace=wrap;connectable=0;strokeColor=inherit;overflow=hidden;fillColor=none;top=0;left=0;bottom=0;right=0;pointerEvents=1;" parent="3if9wKampapFKrjMIruf-132" vertex="1">
                    <mxGeometry x="112" width="56" height="40" as="geometry">
                        <mxRectangle width="56" height="40" as="alternateBounds"/>
                    </mxGeometry>
                </mxCell>
                <mxCell id="3if9wKampapFKrjMIruf-136" value="&lt;span style=&quot;color: rgb(255, 0, 0);&quot;&gt;版本号&lt;/span&gt;" style="shape=partialRectangle;html=1;whiteSpace=wrap;connectable=0;strokeColor=inherit;overflow=hidden;fillColor=none;top=0;left=0;bottom=0;right=0;pointerEvents=1;" parent="3if9wKampapFKrjMIruf-132" vertex="1">
                    <mxGeometry x="168" width="56" height="40" as="geometry">
                        <mxRectangle width="56" height="40" as="alternateBounds"/>
                    </mxGeometry>
                </mxCell>
                <mxCell id="3if9wKampapFKrjMIruf-137" value="余额" style="shape=partialRectangle;html=1;whiteSpace=wrap;connectable=0;strokeColor=inherit;overflow=hidden;fillColor=none;top=0;left=0;bottom=0;right=0;pointerEvents=1;" parent="3if9wKampapFKrjMIruf-132" vertex="1">
                    <mxGeometry x="224" width="56" height="40" as="geometry">
                        <mxRectangle width="56" height="40" as="alternateBounds"/>
                    </mxGeometry>
                </mxCell>
                <mxCell id="3if9wKampapFKrjMIruf-157" value="其它" style="shape=partialRectangle;html=1;whiteSpace=wrap;connectable=0;strokeColor=inherit;overflow=hidden;fillColor=none;top=0;left=0;bottom=0;right=0;pointerEvents=1;" parent="3if9wKampapFKrjMIruf-132" vertex="1">
                    <mxGeometry x="280" width="56" height="40" as="geometry">
                        <mxRectangle width="56" height="40" as="alternateBounds"/>
                    </mxGeometry>
                </mxCell>
                <mxCell id="3if9wKampapFKrjMIruf-138" value="" style="shape=tableRow;horizontal=0;startSize=0;swimlaneHead=0;swimlaneBody=0;strokeColor=inherit;top=0;left=0;bottom=0;right=0;collapsible=0;dropTarget=0;fillColor=none;points=[[0,0.5],[1,0.5]];portConstraint=eastwest;" parent="3if9wKampapFKrjMIruf-131" vertex="1">
                    <mxGeometry y="40" width="336" height="40" as="geometry"/>
                </mxCell>
                <mxCell id="3if9wKampapFKrjMIruf-139" value="1003" style="shape=partialRectangle;html=1;whiteSpace=wrap;connectable=0;strokeColor=inherit;overflow=hidden;fillColor=none;top=0;left=0;bottom=0;right=0;pointerEvents=1;" parent="3if9wKampapFKrjMIruf-138" vertex="1">
                    <mxGeometry width="56" height="40" as="geometry">
                        <mxRectangle width="56" height="40" as="alternateBounds"/>
                    </mxGeometry>
                </mxCell>
                <mxCell id="3if9wKampapFKrjMIruf-140" value="张三" style="shape=partialRectangle;html=1;whiteSpace=wrap;connectable=0;strokeColor=inherit;overflow=hidden;fillColor=none;top=0;left=0;bottom=0;right=0;pointerEvents=1;" parent="3if9wKampapFKrjMIruf-138" vertex="1">
                    <mxGeometry x="56" width="56" height="40" as="geometry">
                        <mxRectangle width="56" height="40" as="alternateBounds"/>
                    </mxGeometry>
                </mxCell>
                <mxCell id="3if9wKampapFKrjMIruf-141" value="&lt;font style=&quot;color: rgb(0, 0, 0);&quot;&gt;0x345..&lt;/font&gt;" style="shape=partialRectangle;html=1;whiteSpace=wrap;connectable=0;strokeColor=inherit;overflow=hidden;fillColor=none;top=0;left=0;bottom=0;right=0;pointerEvents=1;" parent="3if9wKampapFKrjMIruf-138" vertex="1">
                    <mxGeometry x="112" width="56" height="40" as="geometry">
                        <mxRectangle width="56" height="40" as="alternateBounds"/>
                    </mxGeometry>
                </mxCell>
                <mxCell id="3if9wKampapFKrjMIruf-142" value="&lt;meta charset=&quot;utf-8&quot;&gt;&lt;span style=&quot;color: rgb(255, 0, 0); font-family: Helvetica; font-size: 12px; font-style: normal; font-variant-ligatures: normal; font-variant-caps: normal; font-weight: 400; letter-spacing: normal; orphans: 2; text-align: center; text-indent: 0px; text-transform: none; widows: 2; word-spacing: 0px; -webkit-text-stroke-width: 0px; white-space: normal; background-color: rgb(251, 251, 251); text-decoration-thickness: initial; text-decoration-style: initial; text-decoration-color: initial; display: inline !important; float: none;&quot;&gt;9&lt;/span&gt;" style="shape=partialRectangle;html=1;whiteSpace=wrap;connectable=0;strokeColor=inherit;overflow=hidden;fillColor=none;top=0;left=0;bottom=0;right=0;pointerEvents=1;" parent="3if9wKampapFKrjMIruf-138" vertex="1">
                    <mxGeometry x="168" width="56" height="40" as="geometry">
                        <mxRectangle width="56" height="40" as="alternateBounds"/>
                    </mxGeometry>
                </mxCell>
                <mxCell id="3if9wKampapFKrjMIruf-143" value="5000" style="shape=partialRectangle;html=1;whiteSpace=wrap;connectable=0;strokeColor=inherit;overflow=hidden;fillColor=none;top=0;left=0;bottom=0;right=0;pointerEvents=1;" parent="3if9wKampapFKrjMIruf-138" vertex="1">
                    <mxGeometry x="224" width="56" height="40" as="geometry">
                        <mxRectangle width="56" height="40" as="alternateBounds"/>
                    </mxGeometry>
                </mxCell>
                <mxCell id="3if9wKampapFKrjMIruf-158" value="..." style="shape=partialRectangle;html=1;whiteSpace=wrap;connectable=0;strokeColor=inherit;overflow=hidden;fillColor=none;top=0;left=0;bottom=0;right=0;pointerEvents=1;" parent="3if9wKampapFKrjMIruf-138" vertex="1">
                    <mxGeometry x="280" width="56" height="40" as="geometry">
                        <mxRectangle width="56" height="40" as="alternateBounds"/>
                    </mxGeometry>
                </mxCell>
                <mxCell id="3if9wKampapFKrjMIruf-144" value="" style="shape=tableRow;horizontal=0;startSize=0;swimlaneHead=0;swimlaneBody=0;strokeColor=inherit;top=0;left=0;bottom=0;right=0;collapsible=0;dropTarget=0;fillColor=none;points=[[0,0.5],[1,0.5]];portConstraint=eastwest;" parent="3if9wKampapFKrjMIruf-131" vertex="1">
                    <mxGeometry y="80" width="336" height="40" as="geometry"/>
                </mxCell>
                <mxCell id="3if9wKampapFKrjMIruf-145" value="1004" style="shape=partialRectangle;html=1;whiteSpace=wrap;connectable=0;strokeColor=inherit;overflow=hidden;fillColor=none;top=0;left=0;bottom=0;right=0;pointerEvents=1;" parent="3if9wKampapFKrjMIruf-144" vertex="1">
                    <mxGeometry width="56" height="40" as="geometry">
                        <mxRectangle width="56" height="40" as="alternateBounds"/>
                    </mxGeometry>
                </mxCell>
                <mxCell id="3if9wKampapFKrjMIruf-146" value="李四" style="shape=partialRectangle;html=1;whiteSpace=wrap;connectable=0;strokeColor=inherit;overflow=hidden;fillColor=none;top=0;left=0;bottom=0;right=0;pointerEvents=1;" parent="3if9wKampapFKrjMIruf-144" vertex="1">
                    <mxGeometry x="56" width="56" height="40" as="geometry">
                        <mxRectangle width="56" height="40" as="alternateBounds"/>
                    </mxGeometry>
                </mxCell>
                <mxCell id="3if9wKampapFKrjMIruf-147" value="&lt;font style=&quot;color: rgb(0, 0, 0);&quot;&gt;0x456..&lt;/font&gt;" style="shape=partialRectangle;html=1;whiteSpace=wrap;connectable=0;strokeColor=inherit;overflow=hidden;fillColor=none;top=0;left=0;bottom=0;right=0;pointerEvents=1;" parent="3if9wKampapFKrjMIruf-144" vertex="1">
                    <mxGeometry x="112" width="56" height="40" as="geometry">
                        <mxRectangle width="56" height="40" as="alternateBounds"/>
                    </mxGeometry>
                </mxCell>
                <mxCell id="3if9wKampapFKrjMIruf-148" value="&lt;meta charset=&quot;utf-8&quot;&gt;&lt;span style=&quot;color: rgb(255, 0, 0); font-family: Helvetica; font-size: 12px; font-style: normal; font-variant-ligatures: normal; font-variant-caps: normal; font-weight: 400; letter-spacing: normal; orphans: 2; text-align: center; text-indent: 0px; text-transform: none; widows: 2; word-spacing: 0px; -webkit-text-stroke-width: 0px; white-space: normal; background-color: rgb(251, 251, 251); text-decoration-thickness: initial; text-decoration-style: initial; text-decoration-color: initial; display: inline !important; float: none;&quot;&gt;4&lt;/span&gt;" style="shape=partialRectangle;html=1;whiteSpace=wrap;connectable=0;strokeColor=inherit;overflow=hidden;fillColor=none;top=0;left=0;bottom=0;right=0;pointerEvents=1;" parent="3if9wKampapFKrjMIruf-144" vertex="1">
                    <mxGeometry x="168" width="56" height="40" as="geometry">
                        <mxRectangle width="56" height="40" as="alternateBounds"/>
                    </mxGeometry>
                </mxCell>
                <mxCell id="3if9wKampapFKrjMIruf-149" value="6000" style="shape=partialRectangle;html=1;whiteSpace=wrap;connectable=0;strokeColor=inherit;overflow=hidden;fillColor=none;top=0;left=0;bottom=0;right=0;pointerEvents=1;" parent="3if9wKampapFKrjMIruf-144" vertex="1">
                    <mxGeometry x="224" width="56" height="40" as="geometry">
                        <mxRectangle width="56" height="40" as="alternateBounds"/>
                    </mxGeometry>
                </mxCell>
                <mxCell id="3if9wKampapFKrjMIruf-159" value="..." style="shape=partialRectangle;html=1;whiteSpace=wrap;connectable=0;strokeColor=inherit;overflow=hidden;fillColor=none;top=0;left=0;bottom=0;right=0;pointerEvents=1;" parent="3if9wKampapFKrjMIruf-144" vertex="1">
                    <mxGeometry x="280" width="56" height="40" as="geometry">
                        <mxRectangle width="56" height="40" as="alternateBounds"/>
                    </mxGeometry>
                </mxCell>
                <mxCell id="3if9wKampapFKrjMIruf-150" style="shape=tableRow;horizontal=0;startSize=0;swimlaneHead=0;swimlaneBody=0;strokeColor=inherit;top=0;left=0;bottom=0;right=0;collapsible=0;dropTarget=0;fillColor=none;points=[[0,0.5],[1,0.5]];portConstraint=eastwest;" parent="3if9wKampapFKrjMIruf-131" vertex="1">
                    <mxGeometry y="120" width="336" height="40" as="geometry"/>
                </mxCell>
                <mxCell id="3if9wKampapFKrjMIruf-151" value="1005" style="shape=partialRectangle;html=1;whiteSpace=wrap;connectable=0;strokeColor=inherit;overflow=hidden;fillColor=none;top=0;left=0;bottom=0;right=0;pointerEvents=1;" parent="3if9wKampapFKrjMIruf-150" vertex="1">
                    <mxGeometry width="56" height="40" as="geometry">
                        <mxRectangle width="56" height="40" as="alternateBounds"/>
                    </mxGeometry>
                </mxCell>
                <mxCell id="3if9wKampapFKrjMIruf-152" value="王五" style="shape=partialRectangle;html=1;whiteSpace=wrap;connectable=0;strokeColor=inherit;overflow=hidden;fillColor=none;top=0;left=0;bottom=0;right=0;pointerEvents=1;" parent="3if9wKampapFKrjMIruf-150" vertex="1">
                    <mxGeometry x="56" width="56" height="40" as="geometry">
                        <mxRectangle width="56" height="40" as="alternateBounds"/>
                    </mxGeometry>
                </mxCell>
                <mxCell id="3if9wKampapFKrjMIruf-153" value="&lt;font style=&quot;color: rgb(0, 0, 0);&quot;&gt;0x567..&lt;/font&gt;" style="shape=partialRectangle;html=1;whiteSpace=wrap;connectable=0;strokeColor=inherit;overflow=hidden;fillColor=none;top=0;left=0;bottom=0;right=0;pointerEvents=1;" parent="3if9wKampapFKrjMIruf-150" vertex="1">
                    <mxGeometry x="112" width="56" height="40" as="geometry">
                        <mxRectangle width="56" height="40" as="alternateBounds"/>
                    </mxGeometry>
                </mxCell>
                <mxCell id="3if9wKampapFKrjMIruf-154" value="&lt;span style=&quot;color: rgb(255, 0, 0);&quot;&gt;6&lt;/span&gt;" style="shape=partialRectangle;html=1;whiteSpace=wrap;connectable=0;strokeColor=inherit;overflow=hidden;fillColor=none;top=0;left=0;bottom=0;right=0;pointerEvents=1;" parent="3if9wKampapFKrjMIruf-150" vertex="1">
                    <mxGeometry x="168" width="56" height="40" as="geometry">
                        <mxRectangle width="56" height="40" as="alternateBounds"/>
                    </mxGeometry>
                </mxCell>
                <mxCell id="3if9wKampapFKrjMIruf-155" value="8000" style="shape=partialRectangle;html=1;whiteSpace=wrap;connectable=0;strokeColor=inherit;overflow=hidden;fillColor=none;top=0;left=0;bottom=0;right=0;pointerEvents=1;" parent="3if9wKampapFKrjMIruf-150" vertex="1">
                    <mxGeometry x="224" width="56" height="40" as="geometry">
                        <mxRectangle width="56" height="40" as="alternateBounds"/>
                    </mxGeometry>
                </mxCell>
                <mxCell id="3if9wKampapFKrjMIruf-160" value="..." style="shape=partialRectangle;html=1;whiteSpace=wrap;connectable=0;strokeColor=inherit;overflow=hidden;fillColor=none;top=0;left=0;bottom=0;right=0;pointerEvents=1;" parent="3if9wKampapFKrjMIruf-150" vertex="1">
                    <mxGeometry x="280" width="56" height="40" as="geometry">
                        <mxRectangle width="56" height="40" as="alternateBounds"/>
                    </mxGeometry>
                </mxCell>
                <mxCell id="3if9wKampapFKrjMIruf-156" value="用户表v3" style="text;html=1;align=center;verticalAlign=middle;resizable=0;points=[];autosize=1;strokeColor=none;fillColor=none;" parent="1" vertex="1">
                    <mxGeometry x="530" y="640" width="70" height="30" as="geometry"/>
                </mxCell>
                <mxCell id="3if9wKampapFKrjMIruf-161" value="" style="shape=flexArrow;endArrow=classic;html=1;" parent="1" edge="1">
                    <mxGeometry width="50" height="50" relative="1" as="geometry">
                        <mxPoint x="380" y="559.5" as="sourcePoint"/>
                        <mxPoint x="430" y="559.5" as="targetPoint"/>
                    </mxGeometry>
                </mxCell>
            </root>
        </mxGraphModel>
    </diagram>
    <diagram id="Ytyfaa1cUchQmPaUttlQ" name="Msg">
        <mxGraphModel dx="1003" dy="652" grid="1" gridSize="10" guides="1" tooltips="1" connect="1" arrows="1" fold="1" page="1" pageScale="1" pageWidth="827" pageHeight="1169" math="0" shadow="0">
            <root>
                <mxCell id="0"/>
                <mxCell id="1" parent="0"/>
                <mxCell id="IurNdxWVmjMJVr9rij2v-15" style="edgeStyle=none;html=1;exitX=0.5;exitY=0;exitDx=0;exitDy=0;entryX=0.5;entryY=1;entryDx=0;entryDy=0;endArrow=classic;endFill=1;" parent="1" source="IurNdxWVmjMJVr9rij2v-1" target="IurNdxWVmjMJVr9rij2v-13" edge="1">
                    <mxGeometry relative="1" as="geometry">
                        <Array as="points">
                            <mxPoint x="140" y="180"/>
                            <mxPoint x="220" y="180"/>
                        </Array>
                    </mxGeometry>
                </mxCell>
                <mxCell id="IurNdxWVmjMJVr9rij2v-1" value="登录" style="rounded=0;whiteSpace=wrap;html=1;" parent="1" vertex="1">
                    <mxGeometry x="120" y="200" width="40" height="40" as="geometry"/>
                </mxCell>
                <mxCell id="IurNdxWVmjMJVr9rij2v-19" style="edgeStyle=none;html=1;exitX=0.5;exitY=0;exitDx=0;exitDy=0;entryX=0.5;entryY=1;entryDx=0;entryDy=0;" parent="1" source="IurNdxWVmjMJVr9rij2v-3" target="IurNdxWVmjMJVr9rij2v-13" edge="1">
                    <mxGeometry relative="1" as="geometry">
                        <Array as="points">
                            <mxPoint x="200" y="180"/>
                            <mxPoint x="220" y="180"/>
                        </Array>
                    </mxGeometry>
                </mxCell>
                <mxCell id="IurNdxWVmjMJVr9rij2v-3" value="我的公钥" style="rounded=0;whiteSpace=wrap;html=1;" parent="1" vertex="1">
                    <mxGeometry x="160" y="200" width="80" height="40" as="geometry"/>
                </mxCell>
                <mxCell id="IurNdxWVmjMJVr9rij2v-4" value="签名" style="rounded=0;whiteSpace=wrap;html=1;" parent="1" vertex="1">
                    <mxGeometry x="240" y="200" width="80" height="40" as="geometry"/>
                </mxCell>
                <mxCell id="IurNdxWVmjMJVr9rij2v-26" style="edgeStyle=none;html=1;exitX=0.5;exitY=0;exitDx=0;exitDy=0;entryX=0.5;entryY=1;entryDx=0;entryDy=0;" parent="1" source="IurNdxWVmjMJVr9rij2v-5" target="IurNdxWVmjMJVr9rij2v-23" edge="1">
                    <mxGeometry relative="1" as="geometry">
                        <Array as="points">
                            <mxPoint x="380" y="180"/>
                            <mxPoint x="520" y="180"/>
                        </Array>
                    </mxGeometry>
                </mxCell>
                <mxCell id="IurNdxWVmjMJVr9rij2v-5" value="转账" style="rounded=0;whiteSpace=wrap;html=1;" parent="1" vertex="1">
                    <mxGeometry x="360" y="200" width="40" height="40" as="geometry"/>
                </mxCell>
                <mxCell id="IurNdxWVmjMJVr9rij2v-72" style="edgeStyle=none;html=1;exitX=0.5;exitY=0;exitDx=0;exitDy=0;entryX=0.5;entryY=1;entryDx=0;entryDy=0;" parent="1" source="IurNdxWVmjMJVr9rij2v-6" target="IurNdxWVmjMJVr9rij2v-71" edge="1">
                    <mxGeometry relative="1" as="geometry"/>
                </mxCell>
                <mxCell id="IurNdxWVmjMJVr9rij2v-6" value="&lt;font style=&quot;color: rgb(255, 0, 0);&quot;&gt;随机数&lt;/font&gt;" style="rounded=0;whiteSpace=wrap;html=1;" parent="1" vertex="1">
                    <mxGeometry x="200" y="480" width="40" height="40" as="geometry"/>
                </mxCell>
                <mxCell id="IurNdxWVmjMJVr9rij2v-27" style="edgeStyle=none;html=1;exitX=0.5;exitY=0;exitDx=0;exitDy=0;entryX=0.5;entryY=1;entryDx=0;entryDy=0;" parent="1" source="IurNdxWVmjMJVr9rij2v-7" target="IurNdxWVmjMJVr9rij2v-23" edge="1">
                    <mxGeometry relative="1" as="geometry">
                        <mxPoint x="500" y="160" as="targetPoint"/>
                        <Array as="points">
                            <mxPoint x="440" y="180"/>
                            <mxPoint x="520" y="180"/>
                        </Array>
                    </mxGeometry>
                </mxCell>
                <mxCell id="IurNdxWVmjMJVr9rij2v-7" value="我的公钥" style="rounded=0;whiteSpace=wrap;html=1;" parent="1" vertex="1">
                    <mxGeometry x="400" y="200" width="80" height="40" as="geometry"/>
                </mxCell>
                <mxCell id="IurNdxWVmjMJVr9rij2v-8" value="签名" style="rounded=0;whiteSpace=wrap;html=1;" parent="1" vertex="1">
                    <mxGeometry x="600" y="200" width="80" height="40" as="geometry"/>
                </mxCell>
                <mxCell id="IurNdxWVmjMJVr9rij2v-28" style="edgeStyle=none;html=1;exitX=0.5;exitY=0;exitDx=0;exitDy=0;entryX=0.5;entryY=1;entryDx=0;entryDy=0;" parent="1" source="IurNdxWVmjMJVr9rij2v-9" target="IurNdxWVmjMJVr9rij2v-23" edge="1">
                    <mxGeometry relative="1" as="geometry"/>
                </mxCell>
                <mxCell id="IurNdxWVmjMJVr9rij2v-9" value="接收方公钥" style="rounded=0;whiteSpace=wrap;html=1;" parent="1" vertex="1">
                    <mxGeometry x="480" y="200" width="80" height="40" as="geometry"/>
                </mxCell>
                <mxCell id="IurNdxWVmjMJVr9rij2v-29" style="edgeStyle=none;html=1;exitX=0.5;exitY=0;exitDx=0;exitDy=0;entryX=0.5;entryY=1;entryDx=0;entryDy=0;" parent="1" source="IurNdxWVmjMJVr9rij2v-10" target="IurNdxWVmjMJVr9rij2v-23" edge="1">
                    <mxGeometry relative="1" as="geometry">
                        <Array as="points">
                            <mxPoint x="580" y="180"/>
                            <mxPoint x="520" y="180"/>
                        </Array>
                    </mxGeometry>
                </mxCell>
                <mxCell id="IurNdxWVmjMJVr9rij2v-10" value="金额" style="rounded=0;whiteSpace=wrap;html=1;" parent="1" vertex="1">
                    <mxGeometry x="560" y="200" width="40" height="40" as="geometry"/>
                </mxCell>
                <mxCell id="IurNdxWVmjMJVr9rij2v-14" style="edgeStyle=none;html=1;entryX=0.5;entryY=0;entryDx=0;entryDy=0;" parent="1" source="IurNdxWVmjMJVr9rij2v-13" target="IurNdxWVmjMJVr9rij2v-4" edge="1">
                    <mxGeometry relative="1" as="geometry">
                        <Array as="points">
                            <mxPoint x="280" y="140"/>
                        </Array>
                    </mxGeometry>
                </mxCell>
                <mxCell id="IurNdxWVmjMJVr9rij2v-20" style="edgeStyle=none;html=1;exitX=1;exitY=0.5;exitDx=0;exitDy=0;entryX=0;entryY=0.5;entryDx=0;entryDy=0;" parent="1" source="IurNdxWVmjMJVr9rij2v-12" target="IurNdxWVmjMJVr9rij2v-13" edge="1">
                    <mxGeometry relative="1" as="geometry"/>
                </mxCell>
                <mxCell id="IurNdxWVmjMJVr9rij2v-12" value="私钥" style="rounded=0;whiteSpace=wrap;html=1;fillColor=#CCCCCC;" parent="1" vertex="1">
                    <mxGeometry x="120" y="120" width="40" height="40" as="geometry"/>
                </mxCell>
                <mxCell id="IurNdxWVmjMJVr9rij2v-13" value="签名&lt;div&gt;算法&lt;/div&gt;" style="rounded=1;whiteSpace=wrap;html=1;" parent="1" vertex="1">
                    <mxGeometry x="200" y="120" width="40" height="40" as="geometry"/>
                </mxCell>
                <mxCell id="IurNdxWVmjMJVr9rij2v-24" style="edgeStyle=none;html=1;exitX=1;exitY=0.5;exitDx=0;exitDy=0;" parent="1" source="IurNdxWVmjMJVr9rij2v-21" target="IurNdxWVmjMJVr9rij2v-23" edge="1">
                    <mxGeometry relative="1" as="geometry"/>
                </mxCell>
                <mxCell id="IurNdxWVmjMJVr9rij2v-21" value="私钥" style="rounded=0;whiteSpace=wrap;html=1;fillColor=#CCCCCC;" parent="1" vertex="1">
                    <mxGeometry x="360" y="120" width="40" height="40" as="geometry"/>
                </mxCell>
                <mxCell id="IurNdxWVmjMJVr9rij2v-31" style="edgeStyle=none;html=1;entryX=0.5;entryY=0;entryDx=0;entryDy=0;" parent="1" source="IurNdxWVmjMJVr9rij2v-23" target="IurNdxWVmjMJVr9rij2v-8" edge="1">
                    <mxGeometry relative="1" as="geometry">
                        <mxPoint x="600" y="140" as="sourcePoint"/>
                        <Array as="points">
                            <mxPoint x="640" y="140"/>
                        </Array>
                    </mxGeometry>
                </mxCell>
                <mxCell id="IurNdxWVmjMJVr9rij2v-23" value="签名&lt;div&gt;算法&lt;/div&gt;" style="rounded=1;whiteSpace=wrap;html=1;" parent="1" vertex="1">
                    <mxGeometry x="500" y="120" width="40" height="40" as="geometry"/>
                </mxCell>
                <mxCell id="IurNdxWVmjMJVr9rij2v-32" value="登录消息v1" style="text;html=1;align=center;verticalAlign=middle;resizable=0;points=[];autosize=1;strokeColor=none;fillColor=none;" parent="1" vertex="1">
                    <mxGeometry x="180" y="250" width="80" height="30" as="geometry"/>
                </mxCell>
                <mxCell id="IurNdxWVmjMJVr9rij2v-33" value="转账消息v1" style="text;html=1;align=center;verticalAlign=middle;resizable=0;points=[];autosize=1;strokeColor=none;fillColor=none;" parent="1" vertex="1">
                    <mxGeometry x="480" y="250" width="80" height="30" as="geometry"/>
                </mxCell>
                <mxCell id="IurNdxWVmjMJVr9rij2v-39" style="edgeStyle=none;html=1;exitX=0.5;exitY=0;exitDx=0;exitDy=0;entryX=0.5;entryY=1;entryDx=0;entryDy=0;" parent="1" source="IurNdxWVmjMJVr9rij2v-40" target="IurNdxWVmjMJVr9rij2v-57" edge="1">
                    <mxGeometry relative="1" as="geometry">
                        <Array as="points">
                            <mxPoint x="380" y="460"/>
                            <mxPoint x="520" y="460"/>
                        </Array>
                    </mxGeometry>
                </mxCell>
                <mxCell id="IurNdxWVmjMJVr9rij2v-40" value="转账" style="rounded=0;whiteSpace=wrap;html=1;" parent="1" vertex="1">
                    <mxGeometry x="360" y="480" width="40" height="40" as="geometry"/>
                </mxCell>
                <mxCell id="IurNdxWVmjMJVr9rij2v-41" style="edgeStyle=none;html=1;exitX=0.5;exitY=0;exitDx=0;exitDy=0;entryX=0.5;entryY=1;entryDx=0;entryDy=0;" parent="1" source="IurNdxWVmjMJVr9rij2v-42" target="IurNdxWVmjMJVr9rij2v-57" edge="1">
                    <mxGeometry relative="1" as="geometry">
                        <mxPoint x="500" y="440" as="targetPoint"/>
                        <Array as="points">
                            <mxPoint x="440" y="460"/>
                            <mxPoint x="520" y="460"/>
                        </Array>
                    </mxGeometry>
                </mxCell>
                <mxCell id="IurNdxWVmjMJVr9rij2v-42" value="我的公钥" style="rounded=0;whiteSpace=wrap;html=1;" parent="1" vertex="1">
                    <mxGeometry x="400" y="480" width="80" height="40" as="geometry"/>
                </mxCell>
                <mxCell id="IurNdxWVmjMJVr9rij2v-43" value="签名" style="rounded=0;whiteSpace=wrap;html=1;" parent="1" vertex="1">
                    <mxGeometry x="640" y="480" width="80" height="40" as="geometry"/>
                </mxCell>
                <mxCell id="IurNdxWVmjMJVr9rij2v-44" style="edgeStyle=none;html=1;exitX=0.5;exitY=0;exitDx=0;exitDy=0;entryX=0.5;entryY=1;entryDx=0;entryDy=0;" parent="1" source="IurNdxWVmjMJVr9rij2v-45" target="IurNdxWVmjMJVr9rij2v-57" edge="1">
                    <mxGeometry relative="1" as="geometry"/>
                </mxCell>
                <mxCell id="IurNdxWVmjMJVr9rij2v-45" value="接收方公钥" style="rounded=0;whiteSpace=wrap;html=1;" parent="1" vertex="1">
                    <mxGeometry x="480" y="480" width="80" height="40" as="geometry"/>
                </mxCell>
                <mxCell id="IurNdxWVmjMJVr9rij2v-46" style="edgeStyle=none;html=1;exitX=0.5;exitY=0;exitDx=0;exitDy=0;entryX=0.5;entryY=1;entryDx=0;entryDy=0;" parent="1" source="IurNdxWVmjMJVr9rij2v-47" target="IurNdxWVmjMJVr9rij2v-57" edge="1">
                    <mxGeometry relative="1" as="geometry">
                        <Array as="points">
                            <mxPoint x="580" y="460"/>
                            <mxPoint x="520" y="460"/>
                        </Array>
                    </mxGeometry>
                </mxCell>
                <mxCell id="IurNdxWVmjMJVr9rij2v-47" value="金额" style="rounded=0;whiteSpace=wrap;html=1;" parent="1" vertex="1">
                    <mxGeometry x="560" y="480" width="40" height="40" as="geometry"/>
                </mxCell>
                <mxCell id="IurNdxWVmjMJVr9rij2v-52" style="edgeStyle=none;html=1;exitX=1;exitY=0.5;exitDx=0;exitDy=0;" parent="1" source="IurNdxWVmjMJVr9rij2v-53" target="IurNdxWVmjMJVr9rij2v-57" edge="1">
                    <mxGeometry relative="1" as="geometry"/>
                </mxCell>
                <mxCell id="IurNdxWVmjMJVr9rij2v-53" value="私钥" style="rounded=0;whiteSpace=wrap;html=1;fillColor=#CCCCCC;" parent="1" vertex="1">
                    <mxGeometry x="360" y="400" width="40" height="40" as="geometry"/>
                </mxCell>
                <mxCell id="IurNdxWVmjMJVr9rij2v-54" style="edgeStyle=none;html=1;exitX=1;exitY=0.5;exitDx=0;exitDy=0;entryX=0.5;entryY=0;entryDx=0;entryDy=0;" parent="1" source="IurNdxWVmjMJVr9rij2v-57" target="IurNdxWVmjMJVr9rij2v-43" edge="1">
                    <mxGeometry relative="1" as="geometry">
                        <Array as="points">
                            <mxPoint x="680" y="420"/>
                        </Array>
                        <mxPoint x="630" y="420" as="sourcePoint"/>
                    </mxGeometry>
                </mxCell>
                <mxCell id="IurNdxWVmjMJVr9rij2v-57" value="签名&lt;div&gt;算法&lt;/div&gt;" style="rounded=1;whiteSpace=wrap;html=1;" parent="1" vertex="1">
                    <mxGeometry x="500" y="400" width="40" height="40" as="geometry"/>
                </mxCell>
                <mxCell id="IurNdxWVmjMJVr9rij2v-58" value="登录消息v2" style="text;html=1;align=center;verticalAlign=middle;resizable=0;points=[];autosize=1;strokeColor=none;fillColor=none;" parent="1" vertex="1">
                    <mxGeometry x="160" y="530" width="80" height="30" as="geometry"/>
                </mxCell>
                <mxCell id="IurNdxWVmjMJVr9rij2v-59" value="转账消息v2" style="text;html=1;align=center;verticalAlign=middle;resizable=0;points=[];autosize=1;strokeColor=none;fillColor=none;" parent="1" vertex="1">
                    <mxGeometry x="500" y="530" width="80" height="30" as="geometry"/>
                </mxCell>
                <mxCell id="IurNdxWVmjMJVr9rij2v-74" style="edgeStyle=none;html=1;exitX=0.5;exitY=0;exitDx=0;exitDy=0;" parent="1" source="IurNdxWVmjMJVr9rij2v-62" edge="1">
                    <mxGeometry relative="1" as="geometry">
                        <mxPoint x="520" y="440" as="targetPoint"/>
                        <Array as="points">
                            <mxPoint x="620" y="460"/>
                            <mxPoint x="520" y="460"/>
                        </Array>
                    </mxGeometry>
                </mxCell>
                <mxCell id="IurNdxWVmjMJVr9rij2v-62" value="&lt;font style=&quot;color: rgb(255, 0, 0);&quot;&gt;随机数&lt;/font&gt;" style="rounded=0;whiteSpace=wrap;html=1;" parent="1" vertex="1">
                    <mxGeometry x="600" y="480" width="40" height="40" as="geometry"/>
                </mxCell>
                <mxCell id="IurNdxWVmjMJVr9rij2v-63" style="edgeStyle=none;html=1;exitX=0.5;exitY=0;exitDx=0;exitDy=0;entryX=0.5;entryY=1;entryDx=0;entryDy=0;endArrow=classic;endFill=1;" parent="1" source="IurNdxWVmjMJVr9rij2v-64" target="IurNdxWVmjMJVr9rij2v-71" edge="1">
                    <mxGeometry relative="1" as="geometry">
                        <Array as="points">
                            <mxPoint x="100" y="460"/>
                            <mxPoint x="220" y="460"/>
                        </Array>
                    </mxGeometry>
                </mxCell>
                <mxCell id="IurNdxWVmjMJVr9rij2v-64" value="登录" style="rounded=0;whiteSpace=wrap;html=1;" parent="1" vertex="1">
                    <mxGeometry x="80" y="480" width="40" height="40" as="geometry"/>
                </mxCell>
                <mxCell id="IurNdxWVmjMJVr9rij2v-73" style="edgeStyle=none;html=1;exitX=0.5;exitY=0;exitDx=0;exitDy=0;" parent="1" source="IurNdxWVmjMJVr9rij2v-66" edge="1">
                    <mxGeometry relative="1" as="geometry">
                        <mxPoint x="220" y="440" as="targetPoint"/>
                        <Array as="points">
                            <mxPoint x="160" y="460"/>
                            <mxPoint x="220" y="460"/>
                        </Array>
                    </mxGeometry>
                </mxCell>
                <mxCell id="IurNdxWVmjMJVr9rij2v-66" value="我的公钥" style="rounded=0;whiteSpace=wrap;html=1;" parent="1" vertex="1">
                    <mxGeometry x="120" y="480" width="80" height="40" as="geometry"/>
                </mxCell>
                <mxCell id="IurNdxWVmjMJVr9rij2v-67" value="签名" style="rounded=0;whiteSpace=wrap;html=1;" parent="1" vertex="1">
                    <mxGeometry x="240" y="480" width="80" height="40" as="geometry"/>
                </mxCell>
                <mxCell id="IurNdxWVmjMJVr9rij2v-68" style="edgeStyle=none;html=1;entryX=0.5;entryY=0;entryDx=0;entryDy=0;" parent="1" source="IurNdxWVmjMJVr9rij2v-71" target="IurNdxWVmjMJVr9rij2v-67" edge="1">
                    <mxGeometry relative="1" as="geometry">
                        <Array as="points">
                            <mxPoint x="240" y="420"/>
                            <mxPoint x="280" y="420"/>
                        </Array>
                    </mxGeometry>
                </mxCell>
                <mxCell id="IurNdxWVmjMJVr9rij2v-69" style="edgeStyle=none;html=1;exitX=1;exitY=0.5;exitDx=0;exitDy=0;entryX=0;entryY=0.5;entryDx=0;entryDy=0;" parent="1" source="IurNdxWVmjMJVr9rij2v-70" target="IurNdxWVmjMJVr9rij2v-71" edge="1">
                    <mxGeometry relative="1" as="geometry"/>
                </mxCell>
                <mxCell id="IurNdxWVmjMJVr9rij2v-70" value="私钥" style="rounded=0;whiteSpace=wrap;html=1;fillColor=#CCCCCC;" parent="1" vertex="1">
                    <mxGeometry x="80" y="400" width="40" height="40" as="geometry"/>
                </mxCell>
                <mxCell id="IurNdxWVmjMJVr9rij2v-71" value="签名&lt;div&gt;算法&lt;/div&gt;" style="rounded=1;whiteSpace=wrap;html=1;" parent="1" vertex="1">
                    <mxGeometry x="200" y="400" width="40" height="40" as="geometry"/>
                </mxCell>
            </root>
        </mxGraphModel>
    </diagram>
    <diagram id="4A5VAY5a8oiC2I0Gc6Ds" name="PW">
        <mxGraphModel dx="1003" dy="652" grid="1" gridSize="10" guides="1" tooltips="1" connect="1" arrows="1" fold="1" page="1" pageScale="1" pageWidth="827" pageHeight="1169" math="0" shadow="0">
            <root>
                <mxCell id="0"/>
                <mxCell id="1" parent="0"/>
                <mxCell id="_FnBruE2vbnEgnEE5ed6-11" value="4" style="ellipse;whiteSpace=wrap;html=1;aspect=fixed;fillColor=#f8cecc;strokeColor=#b85450;" parent="1" vertex="1">
                    <mxGeometry x="417" y="326" width="20" height="20" as="geometry"/>
                </mxCell>
                <mxCell id="_FnBruE2vbnEgnEE5ed6-10" value="3" style="ellipse;whiteSpace=wrap;html=1;aspect=fixed;fillColor=#f8cecc;strokeColor=#b85450;" parent="1" vertex="1">
                    <mxGeometry x="328" y="318" width="20" height="20" as="geometry"/>
                </mxCell>
                <mxCell id="_FnBruE2vbnEgnEE5ed6-9" value="2" style="ellipse;whiteSpace=wrap;html=1;aspect=fixed;fillColor=#f8cecc;strokeColor=#b85450;" parent="1" vertex="1">
                    <mxGeometry x="364" y="403" width="20" height="20" as="geometry"/>
                </mxCell>
                <mxCell id="_FnBruE2vbnEgnEE5ed6-8" value="1" style="ellipse;whiteSpace=wrap;html=1;aspect=fixed;fillColor=#f8cecc;strokeColor=#b85450;" parent="1" vertex="1">
                    <mxGeometry x="120" y="376" width="20" height="20" as="geometry"/>
                </mxCell>
                <mxCell id="_FnBruE2vbnEgnEE5ed6-6" value="4" style="ellipse;whiteSpace=wrap;html=1;aspect=fixed;fillColor=#f8cecc;strokeColor=#b85450;" parent="1" vertex="1">
                    <mxGeometry x="366" y="203" width="20" height="20" as="geometry"/>
                </mxCell>
                <mxCell id="_FnBruE2vbnEgnEE5ed6-3" value="3" style="ellipse;whiteSpace=wrap;html=1;aspect=fixed;fillColor=#f8cecc;strokeColor=#b85450;" parent="1" vertex="1">
                    <mxGeometry x="337" y="126" width="20" height="20" as="geometry"/>
                </mxCell>
                <mxCell id="_FnBruE2vbnEgnEE5ed6-2" value="2" style="ellipse;whiteSpace=wrap;html=1;aspect=fixed;fillColor=#f8cecc;strokeColor=#b85450;" parent="1" vertex="1">
                    <mxGeometry x="290" y="176" width="20" height="20" as="geometry"/>
                </mxCell>
                <mxCell id="_FnBruE2vbnEgnEE5ed6-1" value="1" style="ellipse;whiteSpace=wrap;html=1;aspect=fixed;fillColor=#f8cecc;strokeColor=#b85450;" parent="1" vertex="1">
                    <mxGeometry x="120" y="176" width="20" height="20" as="geometry"/>
                </mxCell>
                <mxCell id="mKhohd0WUKDrPWeXTFhj-35" value="" style="rounded=1;whiteSpace=wrap;html=1;fillColor=none;dashed=1;" parent="1" vertex="1">
                    <mxGeometry x="152" y="350" width="96" height="60" as="geometry"/>
                </mxCell>
                <mxCell id="SfRDpIiNQ9kf3y3Ic5NK-1" value="用户名" style="rounded=0;whiteSpace=wrap;html=1;" parent="1" vertex="1">
                    <mxGeometry x="160" y="160" width="40" height="40" as="geometry"/>
                </mxCell>
                <mxCell id="mKhohd0WUKDrPWeXTFhj-2" style="edgeStyle=none;html=1;exitX=0.5;exitY=0;exitDx=0;exitDy=0;entryX=0;entryY=0.5;entryDx=0;entryDy=0;endArrow=none;endFill=0;" parent="1" source="SfRDpIiNQ9kf3y3Ic5NK-2" target="mKhohd0WUKDrPWeXTFhj-1" edge="1">
                    <mxGeometry relative="1" as="geometry">
                        <Array as="points">
                            <mxPoint x="220" y="120"/>
                        </Array>
                    </mxGeometry>
                </mxCell>
                <mxCell id="SfRDpIiNQ9kf3y3Ic5NK-2" value="密码" style="rounded=0;whiteSpace=wrap;html=1;fillColor=#CCCCCC;" parent="1" vertex="1">
                    <mxGeometry x="200" y="160" width="40" height="40" as="geometry"/>
                </mxCell>
                <mxCell id="mKhohd0WUKDrPWeXTFhj-3" style="edgeStyle=none;html=1;exitX=0.5;exitY=0;exitDx=0;exitDy=0;entryX=0;entryY=0.5;entryDx=0;entryDy=0;endArrow=none;endFill=0;" parent="1" source="SfRDpIiNQ9kf3y3Ic5NK-3" target="mKhohd0WUKDrPWeXTFhj-1" edge="1">
                    <mxGeometry relative="1" as="geometry">
                        <Array as="points">
                            <mxPoint x="260" y="120"/>
                        </Array>
                    </mxGeometry>
                </mxCell>
                <mxCell id="mKhohd0WUKDrPWeXTFhj-6" style="edgeStyle=none;html=1;exitX=0.5;exitY=1;exitDx=0;exitDy=0;" parent="1" source="SfRDpIiNQ9kf3y3Ic5NK-3" edge="1">
                    <mxGeometry relative="1" as="geometry">
                        <mxPoint x="420" y="200" as="targetPoint"/>
                        <Array as="points">
                            <mxPoint x="260" y="220"/>
                            <mxPoint x="420" y="220"/>
                        </Array>
                    </mxGeometry>
                </mxCell>
                <mxCell id="SfRDpIiNQ9kf3y3Ic5NK-3" value="盐" style="rounded=0;whiteSpace=wrap;html=1;" parent="1" vertex="1">
                    <mxGeometry x="240" y="160" width="40" height="40" as="geometry"/>
                </mxCell>
                <mxCell id="SfRDpIiNQ9kf3y3Ic5NK-4" value="" style="shape=cylinder3;whiteSpace=wrap;html=1;boundedLbl=1;backgroundOutline=1;size=9;" parent="1" vertex="1">
                    <mxGeometry x="400" y="160" width="40" height="40" as="geometry"/>
                </mxCell>
                <mxCell id="SfRDpIiNQ9kf3y3Ic5NK-5" value="哈希值" style="rounded=0;whiteSpace=wrap;html=1;" parent="1" vertex="1">
                    <mxGeometry x="320" y="160" width="40" height="40" as="geometry"/>
                </mxCell>
                <mxCell id="mKhohd0WUKDrPWeXTFhj-4" style="edgeStyle=none;html=1;entryX=0.5;entryY=0;entryDx=0;entryDy=0;exitX=1;exitY=0.5;exitDx=0;exitDy=0;" parent="1" source="mKhohd0WUKDrPWeXTFhj-1" target="SfRDpIiNQ9kf3y3Ic5NK-5" edge="1">
                    <mxGeometry relative="1" as="geometry">
                        <mxPoint x="340" y="120" as="sourcePoint"/>
                        <Array as="points">
                            <mxPoint x="340" y="120"/>
                        </Array>
                    </mxGeometry>
                </mxCell>
                <mxCell id="mKhohd0WUKDrPWeXTFhj-8" value="计算" style="edgeLabel;html=1;align=center;verticalAlign=middle;resizable=0;points=[];" parent="mKhohd0WUKDrPWeXTFhj-4" vertex="1" connectable="0">
                    <mxGeometry x="0.2667" y="3" relative="1" as="geometry">
                        <mxPoint x="-3" y="-28" as="offset"/>
                    </mxGeometry>
                </mxCell>
                <mxCell id="mKhohd0WUKDrPWeXTFhj-1" value="哈希&lt;div&gt;算法&lt;/div&gt;" style="rounded=1;whiteSpace=wrap;html=1;" parent="1" vertex="1">
                    <mxGeometry x="280" y="100" width="40" height="40" as="geometry"/>
                </mxCell>
                <mxCell id="mKhohd0WUKDrPWeXTFhj-5" style="edgeStyle=none;html=1;exitX=0.5;exitY=1;exitDx=0;exitDy=0;entryX=0.5;entryY=1;entryDx=0;entryDy=0;entryPerimeter=0;" parent="1" source="SfRDpIiNQ9kf3y3Ic5NK-5" target="SfRDpIiNQ9kf3y3Ic5NK-4" edge="1">
                    <mxGeometry relative="1" as="geometry">
                        <Array as="points">
                            <mxPoint x="340" y="220"/>
                            <mxPoint x="420" y="220"/>
                        </Array>
                    </mxGeometry>
                </mxCell>
                <mxCell id="mKhohd0WUKDrPWeXTFhj-7" style="edgeStyle=none;html=1;exitX=0.5;exitY=1;exitDx=0;exitDy=0;entryX=0.5;entryY=1;entryDx=0;entryDy=0;entryPerimeter=0;" parent="1" source="SfRDpIiNQ9kf3y3Ic5NK-1" target="SfRDpIiNQ9kf3y3Ic5NK-4" edge="1">
                    <mxGeometry relative="1" as="geometry">
                        <Array as="points">
                            <mxPoint x="180" y="220"/>
                            <mxPoint x="420" y="220"/>
                        </Array>
                    </mxGeometry>
                </mxCell>
                <mxCell id="mKhohd0WUKDrPWeXTFhj-9" value="存储" style="edgeLabel;html=1;align=center;verticalAlign=middle;resizable=0;points=[];" parent="mKhohd0WUKDrPWeXTFhj-7" vertex="1" connectable="0">
                    <mxGeometry x="0.6429" y="-1" relative="1" as="geometry">
                        <mxPoint x="10" y="-11" as="offset"/>
                    </mxGeometry>
                </mxCell>
                <mxCell id="mKhohd0WUKDrPWeXTFhj-10" value="用户名" style="rounded=0;whiteSpace=wrap;html=1;" parent="1" vertex="1">
                    <mxGeometry x="160" y="360" width="40" height="40" as="geometry"/>
                </mxCell>
                <mxCell id="mKhohd0WUKDrPWeXTFhj-11" style="edgeStyle=none;html=1;exitX=0.5;exitY=0;exitDx=0;exitDy=0;entryX=0;entryY=0.5;entryDx=0;entryDy=0;endArrow=none;endFill=0;" parent="1" source="mKhohd0WUKDrPWeXTFhj-12" target="mKhohd0WUKDrPWeXTFhj-20" edge="1">
                    <mxGeometry relative="1" as="geometry">
                        <Array as="points">
                            <mxPoint x="220" y="320"/>
                        </Array>
                    </mxGeometry>
                </mxCell>
                <mxCell id="mKhohd0WUKDrPWeXTFhj-12" value="密码" style="rounded=0;whiteSpace=wrap;html=1;fillColor=#CCCCCC;" parent="1" vertex="1">
                    <mxGeometry x="200" y="360" width="40" height="40" as="geometry"/>
                </mxCell>
                <mxCell id="mKhohd0WUKDrPWeXTFhj-13" style="edgeStyle=none;html=1;exitX=0.5;exitY=0;exitDx=0;exitDy=0;entryX=0;entryY=0.5;entryDx=0;entryDy=0;endArrow=none;endFill=0;" parent="1" source="mKhohd0WUKDrPWeXTFhj-15" target="mKhohd0WUKDrPWeXTFhj-20" edge="1">
                    <mxGeometry relative="1" as="geometry">
                        <Array as="points">
                            <mxPoint x="260" y="320"/>
                        </Array>
                    </mxGeometry>
                </mxCell>
                <mxCell id="mKhohd0WUKDrPWeXTFhj-15" value="盐" style="rounded=0;whiteSpace=wrap;html=1;" parent="1" vertex="1">
                    <mxGeometry x="240" y="360" width="40" height="40" as="geometry"/>
                </mxCell>
                <mxCell id="mKhohd0WUKDrPWeXTFhj-24" style="edgeStyle=none;html=1;exitX=0.5;exitY=1;exitDx=0;exitDy=0;exitPerimeter=0;entryX=0.5;entryY=1;entryDx=0;entryDy=0;" parent="1" source="mKhohd0WUKDrPWeXTFhj-16" target="mKhohd0WUKDrPWeXTFhj-15" edge="1">
                    <mxGeometry relative="1" as="geometry">
                        <Array as="points">
                            <mxPoint x="420" y="420"/>
                            <mxPoint x="260" y="420"/>
                        </Array>
                    </mxGeometry>
                </mxCell>
                <mxCell id="mKhohd0WUKDrPWeXTFhj-25" style="edgeStyle=none;html=1;exitX=0.5;exitY=1;exitDx=0;exitDy=0;exitPerimeter=0;entryX=0.5;entryY=1;entryDx=0;entryDy=0;" parent="1" source="mKhohd0WUKDrPWeXTFhj-16" target="mKhohd0WUKDrPWeXTFhj-17" edge="1">
                    <mxGeometry relative="1" as="geometry">
                        <Array as="points">
                            <mxPoint x="420" y="420"/>
                            <mxPoint x="340" y="420"/>
                        </Array>
                    </mxGeometry>
                </mxCell>
                <mxCell id="mKhohd0WUKDrPWeXTFhj-27" value="查找" style="edgeLabel;html=1;align=center;verticalAlign=middle;resizable=0;points=[];" parent="mKhohd0WUKDrPWeXTFhj-25" vertex="1" connectable="0">
                    <mxGeometry x="-0.2833" relative="1" as="geometry">
                        <mxPoint y="-10" as="offset"/>
                    </mxGeometry>
                </mxCell>
                <mxCell id="bUZ_Qy7tk6mJHSJjhzQ8-1" style="edgeStyle=none;html=1;exitX=0.5;exitY=1;exitDx=0;exitDy=0;exitPerimeter=0;entryX=0.5;entryY=1;entryDx=0;entryDy=0;" parent="1" source="mKhohd0WUKDrPWeXTFhj-16" target="mKhohd0WUKDrPWeXTFhj-10" edge="1">
                    <mxGeometry relative="1" as="geometry">
                        <mxPoint x="190" y="480" as="targetPoint"/>
                        <Array as="points">
                            <mxPoint x="420" y="420"/>
                            <mxPoint x="180" y="420"/>
                        </Array>
                    </mxGeometry>
                </mxCell>
                <mxCell id="mKhohd0WUKDrPWeXTFhj-16" value="" style="shape=cylinder3;whiteSpace=wrap;html=1;boundedLbl=1;backgroundOutline=1;size=9;" parent="1" vertex="1">
                    <mxGeometry x="400" y="360" width="40" height="40" as="geometry"/>
                </mxCell>
                <mxCell id="mKhohd0WUKDrPWeXTFhj-38" style="edgeStyle=none;html=1;exitX=1;exitY=0.5;exitDx=0;exitDy=0;entryX=0;entryY=0.5;entryDx=0;entryDy=0;" parent="1" source="mKhohd0WUKDrPWeXTFhj-17" target="mKhohd0WUKDrPWeXTFhj-36" edge="1">
                    <mxGeometry relative="1" as="geometry">
                        <Array as="points">
                            <mxPoint x="380" y="380"/>
                            <mxPoint x="420" y="320"/>
                        </Array>
                    </mxGeometry>
                </mxCell>
                <mxCell id="mKhohd0WUKDrPWeXTFhj-17" value="哈希值&lt;div&gt;1&lt;/div&gt;" style="rounded=0;whiteSpace=wrap;html=1;" parent="1" vertex="1">
                    <mxGeometry x="320" y="360" width="40" height="40" as="geometry"/>
                </mxCell>
                <mxCell id="mKhohd0WUKDrPWeXTFhj-18" style="edgeStyle=none;html=1;exitX=1;exitY=0.5;exitDx=0;exitDy=0;" parent="1" source="mKhohd0WUKDrPWeXTFhj-20" edge="1">
                    <mxGeometry relative="1" as="geometry">
                        <mxPoint x="340" y="320" as="sourcePoint"/>
                        <Array as="points">
                            <mxPoint x="340" y="320"/>
                        </Array>
                        <mxPoint x="360" y="320" as="targetPoint"/>
                    </mxGeometry>
                </mxCell>
                <mxCell id="mKhohd0WUKDrPWeXTFhj-19" value="计算" style="edgeLabel;html=1;align=center;verticalAlign=middle;resizable=0;points=[];" parent="mKhohd0WUKDrPWeXTFhj-18" vertex="1" connectable="0">
                    <mxGeometry x="0.2667" y="3" relative="1" as="geometry">
                        <mxPoint x="-9" y="-8" as="offset"/>
                    </mxGeometry>
                </mxCell>
                <mxCell id="mKhohd0WUKDrPWeXTFhj-20" value="哈希&lt;div&gt;算法&lt;/div&gt;" style="rounded=1;whiteSpace=wrap;html=1;" parent="1" vertex="1">
                    <mxGeometry x="280" y="300" width="40" height="40" as="geometry"/>
                </mxCell>
                <mxCell id="mKhohd0WUKDrPWeXTFhj-37" style="edgeStyle=none;html=1;exitX=1;exitY=0.5;exitDx=0;exitDy=0;entryX=0;entryY=0.5;entryDx=0;entryDy=0;" parent="1" source="mKhohd0WUKDrPWeXTFhj-26" target="mKhohd0WUKDrPWeXTFhj-36" edge="1">
                    <mxGeometry relative="1" as="geometry"/>
                </mxCell>
                <mxCell id="mKhohd0WUKDrPWeXTFhj-39" value="对比" style="edgeLabel;html=1;align=center;verticalAlign=middle;resizable=0;points=[];" parent="mKhohd0WUKDrPWeXTFhj-37" vertex="1" connectable="0">
                    <mxGeometry x="-0.15" relative="1" as="geometry">
                        <mxPoint x="-1" y="-10" as="offset"/>
                    </mxGeometry>
                </mxCell>
                <mxCell id="mKhohd0WUKDrPWeXTFhj-26" value="哈希值&lt;div&gt;2&lt;/div&gt;" style="rounded=0;whiteSpace=wrap;html=1;" parent="1" vertex="1">
                    <mxGeometry x="360" y="300" width="40" height="40" as="geometry"/>
                </mxCell>
                <mxCell id="mKhohd0WUKDrPWeXTFhj-28" value="" style="rounded=1;whiteSpace=wrap;html=1;fillColor=none;dashed=1;" parent="1" vertex="1">
                    <mxGeometry x="152" y="150" width="96" height="60" as="geometry"/>
                </mxCell>
                <mxCell id="mKhohd0WUKDrPWeXTFhj-30" style="edgeStyle=none;html=1;exitX=0.9;exitY=0.5;exitDx=0;exitDy=0;exitPerimeter=0;entryX=0;entryY=0.5;entryDx=0;entryDy=0;dashed=1;" parent="1" source="mKhohd0WUKDrPWeXTFhj-29" target="mKhohd0WUKDrPWeXTFhj-28" edge="1">
                    <mxGeometry relative="1" as="geometry"/>
                </mxCell>
                <mxCell id="mKhohd0WUKDrPWeXTFhj-31" value="发送" style="edgeLabel;html=1;align=center;verticalAlign=middle;resizable=0;points=[];" parent="mKhohd0WUKDrPWeXTFhj-30" vertex="1" connectable="0">
                    <mxGeometry x="-0.2632" y="-2" relative="1" as="geometry">
                        <mxPoint y="-12" as="offset"/>
                    </mxGeometry>
                </mxCell>
                <mxCell id="mKhohd0WUKDrPWeXTFhj-29" value="" style="shape=actor;whiteSpace=wrap;html=1;" parent="1" vertex="1">
                    <mxGeometry x="40" y="160" width="40" height="40" as="geometry"/>
                </mxCell>
                <mxCell id="mKhohd0WUKDrPWeXTFhj-33" style="edgeStyle=none;html=1;exitX=0.9;exitY=0.5;exitDx=0;exitDy=0;exitPerimeter=0;entryX=0;entryY=0.5;entryDx=0;entryDy=0;dashed=1;" parent="1" source="mKhohd0WUKDrPWeXTFhj-32" target="mKhohd0WUKDrPWeXTFhj-35" edge="1">
                    <mxGeometry relative="1" as="geometry"/>
                </mxCell>
                <mxCell id="mKhohd0WUKDrPWeXTFhj-34" value="发送" style="edgeLabel;html=1;align=center;verticalAlign=middle;resizable=0;points=[];" parent="mKhohd0WUKDrPWeXTFhj-33" vertex="1" connectable="0">
                    <mxGeometry x="0.1905" y="1" relative="1" as="geometry">
                        <mxPoint x="-17" y="-9" as="offset"/>
                    </mxGeometry>
                </mxCell>
                <mxCell id="mKhohd0WUKDrPWeXTFhj-32" value="" style="shape=actor;whiteSpace=wrap;html=1;" parent="1" vertex="1">
                    <mxGeometry x="40" y="360" width="40" height="40" as="geometry"/>
                </mxCell>
                <mxCell id="mKhohd0WUKDrPWeXTFhj-36" value="一致&lt;div&gt;?&lt;/div&gt;" style="rhombus;whiteSpace=wrap;html=1;" parent="1" vertex="1">
                    <mxGeometry x="440" y="300" width="40" height="40" as="geometry"/>
                </mxCell>
                <mxCell id="mKhohd0WUKDrPWeXTFhj-42" value="生成" style="text;html=1;align=center;verticalAlign=middle;resizable=0;points=[];autosize=1;strokeColor=none;fillColor=none;" parent="1" vertex="1">
                    <mxGeometry x="275" y="146" width="50" height="30" as="geometry"/>
                </mxCell>
                <mxCell id="mKhohd0WUKDrPWeXTFhj-43" value="" style="endArrow=classic;html=1;entryX=1;entryY=0.5;entryDx=0;entryDy=0;" parent="1" target="SfRDpIiNQ9kf3y3Ic5NK-3" edge="1">
                    <mxGeometry width="50" height="50" relative="1" as="geometry">
                        <mxPoint x="300" y="170" as="sourcePoint"/>
                        <mxPoint x="280" y="220" as="targetPoint"/>
                        <Array as="points">
                            <mxPoint x="300" y="180"/>
                        </Array>
                    </mxGeometry>
                </mxCell>
            </root>
        </mxGraphModel>
    </diagram>
    <diagram id="3pSu_qps810TLwxptPtE" name="Sig">
        <mxGraphModel dx="1003" dy="652" grid="1" gridSize="10" guides="1" tooltips="1" connect="1" arrows="1" fold="1" page="1" pageScale="1" pageWidth="827" pageHeight="1169" math="0" shadow="0">
            <root>
                <mxCell id="0"/>
                <mxCell id="1" parent="0"/>
                <mxCell id="9vAoQWnHIr4qPCcQ2zUs-4" value="1" style="ellipse;whiteSpace=wrap;html=1;aspect=fixed;fillColor=#f8cecc;strokeColor=#b85450;" parent="1" vertex="1">
                    <mxGeometry x="43" y="113" width="20" height="20" as="geometry"/>
                </mxCell>
                <mxCell id="9vAoQWnHIr4qPCcQ2zUs-9" value="4" style="ellipse;whiteSpace=wrap;html=1;aspect=fixed;fillColor=#f8cecc;strokeColor=#b85450;" parent="1" vertex="1">
                    <mxGeometry x="365" y="307" width="20" height="20" as="geometry"/>
                </mxCell>
                <mxCell id="9vAoQWnHIr4qPCcQ2zUs-10" value="2" style="ellipse;whiteSpace=wrap;html=1;aspect=fixed;fillColor=#f8cecc;strokeColor=#b85450;" parent="1" vertex="1">
                    <mxGeometry x="119" y="378" width="20" height="20" as="geometry"/>
                </mxCell>
                <mxCell id="9vAoQWnHIr4qPCcQ2zUs-3" value="4" style="ellipse;whiteSpace=wrap;html=1;aspect=fixed;fillColor=#f8cecc;strokeColor=#b85450;" parent="1" vertex="1">
                    <mxGeometry x="370" y="108" width="20" height="20" as="geometry"/>
                </mxCell>
                <mxCell id="9vAoQWnHIr4qPCcQ2zUs-8" value="3" style="ellipse;whiteSpace=wrap;html=1;aspect=fixed;fillColor=#f8cecc;strokeColor=#b85450;" parent="1" vertex="1">
                    <mxGeometry x="343" y="404" width="20" height="20" as="geometry"/>
                </mxCell>
                <mxCell id="9vAoQWnHIr4qPCcQ2zUs-2" value="3" style="ellipse;whiteSpace=wrap;html=1;aspect=fixed;fillColor=#f8cecc;strokeColor=#b85450;" parent="1" vertex="1">
                    <mxGeometry x="119" y="178" width="20" height="20" as="geometry"/>
                </mxCell>
                <mxCell id="9vAoQWnHIr4qPCcQ2zUs-7" value="1" style="ellipse;whiteSpace=wrap;html=1;aspect=fixed;fillColor=#f8cecc;strokeColor=#b85450;" parent="1" vertex="1">
                    <mxGeometry x="211" y="290" width="20" height="20" as="geometry"/>
                </mxCell>
                <mxCell id="9vAoQWnHIr4qPCcQ2zUs-6" value="5" style="ellipse;whiteSpace=wrap;html=1;aspect=fixed;fillColor=#f8cecc;strokeColor=#b85450;" parent="1" vertex="1">
                    <mxGeometry x="341" y="203" width="20" height="20" as="geometry"/>
                </mxCell>
                <mxCell id="_9fRVPTrfo4MUQjSuLvH-39" value="" style="rounded=1;whiteSpace=wrap;html=1;fillColor=none;dashed=1;" parent="1" vertex="1">
                    <mxGeometry x="152" y="350" width="96" height="60" as="geometry"/>
                </mxCell>
                <mxCell id="_9fRVPTrfo4MUQjSuLvH-32" value="" style="rounded=1;whiteSpace=wrap;html=1;fillColor=none;dashed=1;" parent="1" vertex="1">
                    <mxGeometry x="152" y="150" width="138" height="60" as="geometry"/>
                </mxCell>
                <mxCell id="ItyKf6oo-BnoNrc80j_P-4" style="edgeStyle=none;html=1;exitX=0.5;exitY=0;exitDx=0;exitDy=0;entryX=0.5;entryY=1;entryDx=0;entryDy=0;strokeColor=#3333FF;endArrow=none;endFill=0;" parent="1" source="_9fRVPTrfo4MUQjSuLvH-1" target="ItyKf6oo-BnoNrc80j_P-3" edge="1">
                    <mxGeometry relative="1" as="geometry"/>
                </mxCell>
                <mxCell id="ItyKf6oo-BnoNrc80j_P-17" style="edgeStyle=none;html=1;exitX=0.75;exitY=0;exitDx=0;exitDy=0;entryX=0;entryY=0.5;entryDx=0;entryDy=0;endArrow=none;endFill=0;" parent="1" source="_9fRVPTrfo4MUQjSuLvH-1" target="ItyKf6oo-BnoNrc80j_P-9" edge="1">
                    <mxGeometry relative="1" as="geometry">
                        <Array as="points">
                            <mxPoint x="220" y="130"/>
                        </Array>
                    </mxGeometry>
                </mxCell>
                <mxCell id="_9fRVPTrfo4MUQjSuLvH-1" value="用户名" style="rounded=0;whiteSpace=wrap;html=1;" parent="1" vertex="1">
                    <mxGeometry x="160" y="160" width="40" height="40" as="geometry"/>
                </mxCell>
                <mxCell id="ItyKf6oo-BnoNrc80j_P-10" style="edgeStyle=none;html=1;exitX=0.5;exitY=0;exitDx=0;exitDy=0;entryX=0;entryY=0.75;entryDx=0;entryDy=0;endArrow=none;endFill=0;" parent="1" source="_9fRVPTrfo4MUQjSuLvH-3" target="ItyKf6oo-BnoNrc80j_P-9" edge="1">
                    <mxGeometry relative="1" as="geometry">
                        <Array as="points">
                            <mxPoint x="230" y="140"/>
                        </Array>
                    </mxGeometry>
                </mxCell>
                <mxCell id="_9fRVPTrfo4MUQjSuLvH-3" value="公钥" style="rounded=0;whiteSpace=wrap;html=1;" parent="1" vertex="1">
                    <mxGeometry x="200" y="160" width="40" height="40" as="geometry"/>
                </mxCell>
                <mxCell id="_9fRVPTrfo4MUQjSuLvH-5" style="edgeStyle=none;html=1;exitX=0.5;exitY=1;exitDx=0;exitDy=0;" parent="1" source="_9fRVPTrfo4MUQjSuLvH-3" edge="1">
                    <mxGeometry relative="1" as="geometry">
                        <mxPoint x="420" y="200" as="targetPoint"/>
                        <Array as="points">
                            <mxPoint x="220" y="220"/>
                            <mxPoint x="420" y="220"/>
                        </Array>
                        <mxPoint x="260" y="200" as="sourcePoint"/>
                    </mxGeometry>
                </mxCell>
                <mxCell id="_9fRVPTrfo4MUQjSuLvH-7" value="" style="shape=cylinder3;whiteSpace=wrap;html=1;boundedLbl=1;backgroundOutline=1;size=9;" parent="1" vertex="1">
                    <mxGeometry x="400" y="160" width="40" height="40" as="geometry"/>
                </mxCell>
                <mxCell id="_9fRVPTrfo4MUQjSuLvH-13" style="edgeStyle=none;html=1;exitX=0.5;exitY=1;exitDx=0;exitDy=0;entryX=0.5;entryY=1;entryDx=0;entryDy=0;entryPerimeter=0;" parent="1" source="_9fRVPTrfo4MUQjSuLvH-1" target="_9fRVPTrfo4MUQjSuLvH-7" edge="1">
                    <mxGeometry relative="1" as="geometry">
                        <Array as="points">
                            <mxPoint x="180" y="220"/>
                            <mxPoint x="420" y="220"/>
                        </Array>
                    </mxGeometry>
                </mxCell>
                <mxCell id="_9fRVPTrfo4MUQjSuLvH-14" value="存储" style="edgeLabel;html=1;align=center;verticalAlign=middle;resizable=0;points=[];" parent="_9fRVPTrfo4MUQjSuLvH-13" vertex="1" connectable="0">
                    <mxGeometry x="0.6429" y="-1" relative="1" as="geometry">
                        <mxPoint x="-10" y="-11" as="offset"/>
                    </mxGeometry>
                </mxCell>
                <mxCell id="BfrjNbCUdq4DYrV1_egF-3" style="edgeStyle=none;html=1;exitX=0.5;exitY=0;exitDx=0;exitDy=0;entryX=0.5;entryY=1;entryDx=0;entryDy=0;strokeColor=#3333FF;endArrow=none;endFill=0;" parent="1" source="_9fRVPTrfo4MUQjSuLvH-15" target="BfrjNbCUdq4DYrV1_egF-2" edge="1">
                    <mxGeometry relative="1" as="geometry"/>
                </mxCell>
                <mxCell id="aOMCXmy0dZu19aR-0TSh-2" style="edgeStyle=none;html=1;exitX=0.75;exitY=0;exitDx=0;exitDy=0;entryX=0;entryY=0.5;entryDx=0;entryDy=0;endArrow=none;endFill=0;" parent="1" source="_9fRVPTrfo4MUQjSuLvH-15" target="_9fRVPTrfo4MUQjSuLvH-28" edge="1">
                    <mxGeometry relative="1" as="geometry">
                        <Array as="points">
                            <mxPoint x="200" y="330"/>
                        </Array>
                    </mxGeometry>
                </mxCell>
                <mxCell id="_9fRVPTrfo4MUQjSuLvH-15" value="用户名" style="rounded=0;whiteSpace=wrap;html=1;" parent="1" vertex="1">
                    <mxGeometry x="160" y="360" width="40" height="40" as="geometry"/>
                </mxCell>
                <mxCell id="ItyKf6oo-BnoNrc80j_P-12" style="edgeStyle=none;html=1;exitX=0.5;exitY=0;exitDx=0;exitDy=0;entryX=0;entryY=1;entryDx=0;entryDy=0;endArrow=none;endFill=0;" parent="1" source="_9fRVPTrfo4MUQjSuLvH-17" target="_9fRVPTrfo4MUQjSuLvH-28" edge="1">
                    <mxGeometry relative="1" as="geometry"/>
                </mxCell>
                <mxCell id="_9fRVPTrfo4MUQjSuLvH-17" value="签名" style="rounded=0;whiteSpace=wrap;html=1;" parent="1" vertex="1">
                    <mxGeometry x="200" y="360" width="40" height="40" as="geometry"/>
                </mxCell>
                <mxCell id="_9fRVPTrfo4MUQjSuLvH-21" style="edgeStyle=none;html=1;exitX=0.5;exitY=1;exitDx=0;exitDy=0;exitPerimeter=0;entryX=0.5;entryY=1;entryDx=0;entryDy=0;" parent="1" source="_9fRVPTrfo4MUQjSuLvH-23" target="_9fRVPTrfo4MUQjSuLvH-25" edge="1">
                    <mxGeometry relative="1" as="geometry">
                        <Array as="points">
                            <mxPoint x="420" y="420"/>
                            <mxPoint x="300" y="420"/>
                        </Array>
                    </mxGeometry>
                </mxCell>
                <mxCell id="_9fRVPTrfo4MUQjSuLvH-22" value="查找" style="edgeLabel;html=1;align=center;verticalAlign=middle;resizable=0;points=[];" parent="_9fRVPTrfo4MUQjSuLvH-21" vertex="1" connectable="0">
                    <mxGeometry x="-0.2833" relative="1" as="geometry">
                        <mxPoint x="-3" y="-10" as="offset"/>
                    </mxGeometry>
                </mxCell>
                <mxCell id="BfrjNbCUdq4DYrV1_egF-8" style="edgeStyle=none;html=1;exitX=0.5;exitY=1;exitDx=0;exitDy=0;exitPerimeter=0;entryX=0.5;entryY=1;entryDx=0;entryDy=0;" parent="1" source="_9fRVPTrfo4MUQjSuLvH-23" target="_9fRVPTrfo4MUQjSuLvH-15" edge="1">
                    <mxGeometry relative="1" as="geometry">
                        <Array as="points">
                            <mxPoint x="420" y="420"/>
                            <mxPoint x="180" y="420"/>
                        </Array>
                    </mxGeometry>
                </mxCell>
                <mxCell id="_9fRVPTrfo4MUQjSuLvH-23" value="" style="shape=cylinder3;whiteSpace=wrap;html=1;boundedLbl=1;backgroundOutline=1;size=9;" parent="1" vertex="1">
                    <mxGeometry x="400" y="360" width="40" height="40" as="geometry"/>
                </mxCell>
                <mxCell id="BfrjNbCUdq4DYrV1_egF-7" style="edgeStyle=none;html=1;exitX=0.5;exitY=0;exitDx=0;exitDy=0;entryX=0.5;entryY=1;entryDx=0;entryDy=0;endArrow=none;endFill=0;" parent="1" source="_9fRVPTrfo4MUQjSuLvH-25" target="_9fRVPTrfo4MUQjSuLvH-28" edge="1">
                    <mxGeometry relative="1" as="geometry"/>
                </mxCell>
                <mxCell id="_9fRVPTrfo4MUQjSuLvH-25" value="共钥" style="rounded=0;whiteSpace=wrap;html=1;" parent="1" vertex="1">
                    <mxGeometry x="280" y="360" width="40" height="40" as="geometry"/>
                </mxCell>
                <mxCell id="aOMCXmy0dZu19aR-0TSh-3" style="edgeStyle=none;html=1;exitX=1;exitY=0.5;exitDx=0;exitDy=0;entryX=0;entryY=0.5;entryDx=0;entryDy=0;" parent="1" source="_9fRVPTrfo4MUQjSuLvH-28" target="_9fRVPTrfo4MUQjSuLvH-40" edge="1">
                    <mxGeometry relative="1" as="geometry"/>
                </mxCell>
                <mxCell id="4OiQcQfuJjp3vusAhwcE-1" value="验证" style="edgeLabel;html=1;align=center;verticalAlign=middle;resizable=0;points=[];" parent="aOMCXmy0dZu19aR-0TSh-3" vertex="1" connectable="0">
                    <mxGeometry x="-0.05" y="2" relative="1" as="geometry">
                        <mxPoint y="-8" as="offset"/>
                    </mxGeometry>
                </mxCell>
                <mxCell id="_9fRVPTrfo4MUQjSuLvH-28" value="签名&lt;div&gt;算法&lt;/div&gt;" style="rounded=1;whiteSpace=wrap;html=1;" parent="1" vertex="1">
                    <mxGeometry x="280" y="290" width="40" height="40" as="geometry"/>
                </mxCell>
                <mxCell id="_9fRVPTrfo4MUQjSuLvH-33" style="edgeStyle=none;html=1;exitX=0.9;exitY=0.5;exitDx=0;exitDy=0;exitPerimeter=0;entryX=0;entryY=0.5;entryDx=0;entryDy=0;dashed=1;strokeColor=#3333FF;" parent="1" source="_9fRVPTrfo4MUQjSuLvH-35" target="_9fRVPTrfo4MUQjSuLvH-32" edge="1">
                    <mxGeometry relative="1" as="geometry"/>
                </mxCell>
                <mxCell id="_9fRVPTrfo4MUQjSuLvH-34" value="发送" style="edgeLabel;html=1;align=center;verticalAlign=middle;resizable=0;points=[];" parent="_9fRVPTrfo4MUQjSuLvH-33" vertex="1" connectable="0">
                    <mxGeometry x="-0.2632" y="-2" relative="1" as="geometry">
                        <mxPoint y="-12" as="offset"/>
                    </mxGeometry>
                </mxCell>
                <mxCell id="oE77BCOLdqdMOP6kB6UJ-2" style="edgeStyle=none;html=1;exitX=0.5;exitY=0;exitDx=0;exitDy=0;entryX=0;entryY=0.5;entryDx=0;entryDy=0;dashed=1;strokeColor=#3333FF;" edge="1" parent="1" source="_9fRVPTrfo4MUQjSuLvH-35" target="ItyKf6oo-BnoNrc80j_P-2">
                    <mxGeometry relative="1" as="geometry">
                        <Array as="points">
                            <mxPoint x="60" y="110"/>
                        </Array>
                    </mxGeometry>
                </mxCell>
                <mxCell id="oE77BCOLdqdMOP6kB6UJ-4" value="生成" style="edgeLabel;html=1;align=center;verticalAlign=middle;resizable=0;points=[];" vertex="1" connectable="0" parent="oE77BCOLdqdMOP6kB6UJ-2">
                    <mxGeometry x="0.3143" y="-2" relative="1" as="geometry">
                        <mxPoint x="-9" y="-12" as="offset"/>
                    </mxGeometry>
                </mxCell>
                <mxCell id="_9fRVPTrfo4MUQjSuLvH-35" value="" style="shape=actor;whiteSpace=wrap;html=1;" parent="1" vertex="1">
                    <mxGeometry x="40" y="160" width="40" height="40" as="geometry"/>
                </mxCell>
                <mxCell id="_9fRVPTrfo4MUQjSuLvH-36" style="edgeStyle=none;html=1;exitX=0.9;exitY=0.5;exitDx=0;exitDy=0;exitPerimeter=0;entryX=0;entryY=0.5;entryDx=0;entryDy=0;dashed=1;strokeColor=#3333FF;" parent="1" source="_9fRVPTrfo4MUQjSuLvH-38" target="_9fRVPTrfo4MUQjSuLvH-39" edge="1">
                    <mxGeometry relative="1" as="geometry"/>
                </mxCell>
                <mxCell id="_9fRVPTrfo4MUQjSuLvH-37" value="发送" style="edgeLabel;html=1;align=center;verticalAlign=middle;resizable=0;points=[];" parent="_9fRVPTrfo4MUQjSuLvH-36" vertex="1" connectable="0">
                    <mxGeometry x="0.1905" y="1" relative="1" as="geometry">
                        <mxPoint x="-17" y="-9" as="offset"/>
                    </mxGeometry>
                </mxCell>
                <mxCell id="oE77BCOLdqdMOP6kB6UJ-5" style="edgeStyle=none;html=1;exitX=0.5;exitY=0;exitDx=0;exitDy=0;entryX=0;entryY=0.5;entryDx=0;entryDy=0;strokeColor=#3333FF;dashed=1;" edge="1" parent="1" source="_9fRVPTrfo4MUQjSuLvH-38" target="BfrjNbCUdq4DYrV1_egF-1">
                    <mxGeometry relative="1" as="geometry">
                        <Array as="points">
                            <mxPoint x="60" y="310"/>
                        </Array>
                    </mxGeometry>
                </mxCell>
                <mxCell id="_9fRVPTrfo4MUQjSuLvH-38" value="" style="shape=actor;whiteSpace=wrap;html=1;" parent="1" vertex="1">
                    <mxGeometry x="40" y="360" width="40" height="40" as="geometry"/>
                </mxCell>
                <mxCell id="_9fRVPTrfo4MUQjSuLvH-40" value="OK?" style="rhombus;whiteSpace=wrap;html=1;" parent="1" vertex="1">
                    <mxGeometry x="400" y="290" width="40" height="40" as="geometry"/>
                </mxCell>
                <mxCell id="BfrjNbCUdq4DYrV1_egF-4" style="edgeStyle=none;html=1;exitX=1;exitY=0.5;exitDx=0;exitDy=0;entryX=0;entryY=0.5;entryDx=0;entryDy=0;strokeColor=#3333FF;endArrow=none;endFill=0;" parent="1" source="BfrjNbCUdq4DYrV1_egF-1" target="BfrjNbCUdq4DYrV1_egF-2" edge="1">
                    <mxGeometry relative="1" as="geometry"/>
                </mxCell>
                <mxCell id="BfrjNbCUdq4DYrV1_egF-1" value="私钥" style="rounded=0;whiteSpace=wrap;html=1;fillColor=#CCCCCC;" parent="1" vertex="1">
                    <mxGeometry x="80" y="290" width="40" height="40" as="geometry"/>
                </mxCell>
                <mxCell id="BfrjNbCUdq4DYrV1_egF-5" style="edgeStyle=none;html=1;exitX=1;exitY=0.5;exitDx=0;exitDy=0;entryX=0.25;entryY=0;entryDx=0;entryDy=0;strokeColor=#3333FF;" parent="1" source="BfrjNbCUdq4DYrV1_egF-2" target="_9fRVPTrfo4MUQjSuLvH-17" edge="1">
                    <mxGeometry relative="1" as="geometry">
                        <Array as="points">
                            <mxPoint x="210" y="310"/>
                        </Array>
                    </mxGeometry>
                </mxCell>
                <mxCell id="aOMCXmy0dZu19aR-0TSh-1" value="生成" style="edgeLabel;html=1;align=center;verticalAlign=middle;resizable=0;points=[];" parent="BfrjNbCUdq4DYrV1_egF-5" vertex="1" connectable="0">
                    <mxGeometry x="-0.575" y="1" relative="1" as="geometry">
                        <mxPoint y="-9" as="offset"/>
                    </mxGeometry>
                </mxCell>
                <mxCell id="BfrjNbCUdq4DYrV1_egF-2" value="签名&lt;br&gt;&lt;div&gt;算法&lt;/div&gt;" style="rounded=1;whiteSpace=wrap;html=1;" parent="1" vertex="1">
                    <mxGeometry x="140" y="290" width="40" height="40" as="geometry"/>
                </mxCell>
                <mxCell id="ItyKf6oo-BnoNrc80j_P-16" style="edgeStyle=none;html=1;exitX=0.75;exitY=0;exitDx=0;exitDy=0;entryX=0;entryY=1;entryDx=0;entryDy=0;endArrow=none;endFill=0;" parent="1" source="ItyKf6oo-BnoNrc80j_P-1" target="ItyKf6oo-BnoNrc80j_P-9" edge="1">
                    <mxGeometry relative="1" as="geometry"/>
                </mxCell>
                <mxCell id="ItyKf6oo-BnoNrc80j_P-1" value="签名" style="rounded=0;whiteSpace=wrap;html=1;" parent="1" vertex="1">
                    <mxGeometry x="240" y="160" width="40" height="40" as="geometry"/>
                </mxCell>
                <mxCell id="ItyKf6oo-BnoNrc80j_P-6" style="edgeStyle=none;html=1;exitX=1;exitY=0.5;exitDx=0;exitDy=0;entryX=0;entryY=0.5;entryDx=0;entryDy=0;strokeColor=#3333FF;endArrow=none;endFill=0;" parent="1" source="ItyKf6oo-BnoNrc80j_P-2" target="ItyKf6oo-BnoNrc80j_P-3" edge="1">
                    <mxGeometry relative="1" as="geometry"/>
                </mxCell>
                <mxCell id="ItyKf6oo-BnoNrc80j_P-2" value="私钥" style="rounded=0;whiteSpace=wrap;html=1;fillColor=#CCCCCC;" parent="1" vertex="1">
                    <mxGeometry x="80" y="90" width="40" height="40" as="geometry"/>
                </mxCell>
                <mxCell id="ItyKf6oo-BnoNrc80j_P-7" style="edgeStyle=none;html=1;exitX=1;exitY=0.5;exitDx=0;exitDy=0;entryX=0.5;entryY=0;entryDx=0;entryDy=0;strokeColor=#3333FF;" parent="1" source="ItyKf6oo-BnoNrc80j_P-3" target="ItyKf6oo-BnoNrc80j_P-1" edge="1">
                    <mxGeometry relative="1" as="geometry">
                        <Array as="points">
                            <mxPoint x="260" y="110"/>
                        </Array>
                    </mxGeometry>
                </mxCell>
                <mxCell id="ItyKf6oo-BnoNrc80j_P-8" value="生成" style="edgeLabel;html=1;align=center;verticalAlign=middle;resizable=0;points=[];" parent="ItyKf6oo-BnoNrc80j_P-7" vertex="1" connectable="0">
                    <mxGeometry x="-0.7231" y="1" relative="1" as="geometry">
                        <mxPoint y="-9" as="offset"/>
                    </mxGeometry>
                </mxCell>
                <mxCell id="ItyKf6oo-BnoNrc80j_P-3" value="签名&lt;br&gt;&lt;div&gt;算法&lt;/div&gt;" style="rounded=1;whiteSpace=wrap;html=1;" parent="1" vertex="1">
                    <mxGeometry x="140" y="90" width="40" height="40" as="geometry"/>
                </mxCell>
                <mxCell id="ItyKf6oo-BnoNrc80j_P-14" style="edgeStyle=none;html=1;exitX=1;exitY=0.5;exitDx=0;exitDy=0;entryX=0;entryY=0.5;entryDx=0;entryDy=0;" parent="1" source="ItyKf6oo-BnoNrc80j_P-9" target="ItyKf6oo-BnoNrc80j_P-13" edge="1">
                    <mxGeometry relative="1" as="geometry"/>
                </mxCell>
                <mxCell id="ItyKf6oo-BnoNrc80j_P-15" value="验证" style="edgeLabel;html=1;align=center;verticalAlign=middle;resizable=0;points=[];" parent="ItyKf6oo-BnoNrc80j_P-14" vertex="1" connectable="0">
                    <mxGeometry x="-0.1" y="2" relative="1" as="geometry">
                        <mxPoint x="-2" y="-8" as="offset"/>
                    </mxGeometry>
                </mxCell>
                <mxCell id="ItyKf6oo-BnoNrc80j_P-9" value="签名&lt;div&gt;算法&lt;/div&gt;" style="rounded=1;whiteSpace=wrap;html=1;" parent="1" vertex="1">
                    <mxGeometry x="320" y="90" width="40" height="40" as="geometry"/>
                </mxCell>
                <mxCell id="ItyKf6oo-BnoNrc80j_P-13" value="OK?" style="rhombus;whiteSpace=wrap;html=1;" parent="1" vertex="1">
                    <mxGeometry x="400" y="90" width="40" height="40" as="geometry"/>
                </mxCell>
                <mxCell id="9vAoQWnHIr4qPCcQ2zUs-1" value="2" style="ellipse;whiteSpace=wrap;html=1;aspect=fixed;fillColor=#f8cecc;strokeColor=#b85450;" parent="1" vertex="1">
                    <mxGeometry x="218" y="92" width="20" height="20" as="geometry"/>
                </mxCell>
                <mxCell id="oE77BCOLdqdMOP6kB6UJ-6" value="使用" style="text;html=1;align=center;verticalAlign=middle;resizable=0;points=[];autosize=1;strokeColor=none;fillColor=none;" vertex="1" parent="1">
                    <mxGeometry x="28" y="286" width="50" height="30" as="geometry"/>
                </mxCell>
            </root>
        </mxGraphModel>
    </diagram>
    <diagram id="s7Crm9k_BEY48GetkhHK" name="Nonce">
        <mxGraphModel dx="1003" dy="652" grid="1" gridSize="10" guides="1" tooltips="1" connect="1" arrows="1" fold="1" page="1" pageScale="1" pageWidth="827" pageHeight="1169" math="0" shadow="0">
            <root>
                <mxCell id="0"/>
                <mxCell id="1" parent="0"/>
                <mxCell id="bzNPUlouegwef-V-TdDn-1" value="1" style="ellipse;whiteSpace=wrap;html=1;aspect=fixed;fillColor=#f8cecc;strokeColor=#b85450;" parent="1" vertex="1">
                    <mxGeometry x="43" y="114" width="20" height="20" as="geometry"/>
                </mxCell>
                <mxCell id="m5ivXNBrPraafHOv01ZF-1" value="4" style="ellipse;whiteSpace=wrap;html=1;aspect=fixed;fillColor=#f8cecc;strokeColor=#b85450;" parent="1" vertex="1">
                    <mxGeometry x="365" y="307" width="20" height="20" as="geometry"/>
                </mxCell>
                <mxCell id="m5ivXNBrPraafHOv01ZF-3" value="3" style="ellipse;whiteSpace=wrap;html=1;aspect=fixed;fillColor=#f8cecc;strokeColor=#b85450;" parent="1" vertex="1">
                    <mxGeometry x="359" y="404" width="20" height="20" as="geometry"/>
                </mxCell>
                <mxCell id="m5ivXNBrPraafHOv01ZF-2" value="2" style="ellipse;whiteSpace=wrap;html=1;aspect=fixed;fillColor=#f8cecc;strokeColor=#b85450;" parent="1" vertex="1">
                    <mxGeometry x="119" y="378" width="20" height="20" as="geometry"/>
                </mxCell>
                <mxCell id="m5ivXNBrPraafHOv01ZF-4" value="1" style="ellipse;whiteSpace=wrap;html=1;aspect=fixed;fillColor=#f8cecc;strokeColor=#b85450;" parent="1" vertex="1">
                    <mxGeometry x="216" y="292" width="20" height="20" as="geometry"/>
                </mxCell>
                <mxCell id="3kpFoad8vjSZnRGtAbd9-1" value="5" style="ellipse;whiteSpace=wrap;html=1;aspect=fixed;fillColor=#f8cecc;strokeColor=#b85450;" parent="1" vertex="1">
                    <mxGeometry x="353" y="204" width="20" height="20" as="geometry"/>
                </mxCell>
                <mxCell id="A6CwViizrrFjdWTRQzl0-1" value="4" style="ellipse;whiteSpace=wrap;html=1;aspect=fixed;fillColor=#f8cecc;strokeColor=#b85450;" parent="1" vertex="1">
                    <mxGeometry x="370" y="108" width="20" height="20" as="geometry"/>
                </mxCell>
                <mxCell id="PD9ieVNKy4GhbzYrBS4M-1" value="3" style="ellipse;whiteSpace=wrap;html=1;aspect=fixed;fillColor=#f8cecc;strokeColor=#b85450;" parent="1" vertex="1">
                    <mxGeometry x="119" y="178" width="20" height="20" as="geometry"/>
                </mxCell>
                <mxCell id="0NzJUQz1MfwDQ4VU7mgq-1" value="2" style="ellipse;whiteSpace=wrap;html=1;aspect=fixed;fillColor=#f8cecc;strokeColor=#b85450;" parent="1" vertex="1">
                    <mxGeometry x="218" y="92" width="20" height="20" as="geometry"/>
                </mxCell>
                <mxCell id="idqu97gbhCp227kUFgKh-1" value="" style="rounded=1;whiteSpace=wrap;html=1;fillColor=none;dashed=1;" parent="1" vertex="1">
                    <mxGeometry x="152" y="350" width="138" height="60" as="geometry"/>
                </mxCell>
                <mxCell id="idqu97gbhCp227kUFgKh-2" value="" style="rounded=1;whiteSpace=wrap;html=1;fillColor=none;dashed=1;" parent="1" vertex="1">
                    <mxGeometry x="152" y="150" width="138" height="60" as="geometry"/>
                </mxCell>
                <mxCell id="idqu97gbhCp227kUFgKh-3" style="edgeStyle=none;html=1;exitX=0.5;exitY=0;exitDx=0;exitDy=0;entryX=0.5;entryY=1;entryDx=0;entryDy=0;strokeColor=#3333FF;endArrow=none;endFill=0;" parent="1" source="idqu97gbhCp227kUFgKh-5" target="idqu97gbhCp227kUFgKh-44" edge="1">
                    <mxGeometry relative="1" as="geometry"/>
                </mxCell>
                <mxCell id="idqu97gbhCp227kUFgKh-4" style="edgeStyle=none;html=1;exitX=0.75;exitY=0;exitDx=0;exitDy=0;entryX=0;entryY=0.5;entryDx=0;entryDy=0;endArrow=none;endFill=0;" parent="1" source="idqu97gbhCp227kUFgKh-5" target="idqu97gbhCp227kUFgKh-47" edge="1">
                    <mxGeometry relative="1" as="geometry">
                        <Array as="points">
                            <mxPoint x="220" y="130"/>
                        </Array>
                    </mxGeometry>
                </mxCell>
                <mxCell id="idqu97gbhCp227kUFgKh-5" value="用户名" style="rounded=0;whiteSpace=wrap;html=1;" parent="1" vertex="1">
                    <mxGeometry x="160" y="160" width="40" height="40" as="geometry"/>
                </mxCell>
                <mxCell id="idqu97gbhCp227kUFgKh-6" style="edgeStyle=none;html=1;exitX=0.5;exitY=0;exitDx=0;exitDy=0;entryX=0;entryY=0.75;entryDx=0;entryDy=0;endArrow=none;endFill=0;" parent="1" source="idqu97gbhCp227kUFgKh-7" target="idqu97gbhCp227kUFgKh-47" edge="1">
                    <mxGeometry relative="1" as="geometry">
                        <Array as="points">
                            <mxPoint x="230" y="140"/>
                        </Array>
                    </mxGeometry>
                </mxCell>
                <mxCell id="idqu97gbhCp227kUFgKh-7" value="公钥" style="rounded=0;whiteSpace=wrap;html=1;" parent="1" vertex="1">
                    <mxGeometry x="200" y="160" width="40" height="40" as="geometry"/>
                </mxCell>
                <mxCell id="idqu97gbhCp227kUFgKh-8" style="edgeStyle=none;html=1;exitX=0.5;exitY=1;exitDx=0;exitDy=0;" parent="1" source="idqu97gbhCp227kUFgKh-7" edge="1">
                    <mxGeometry relative="1" as="geometry">
                        <mxPoint x="420" y="200" as="targetPoint"/>
                        <Array as="points">
                            <mxPoint x="220" y="220"/>
                            <mxPoint x="420" y="220"/>
                        </Array>
                        <mxPoint x="260" y="200" as="sourcePoint"/>
                    </mxGeometry>
                </mxCell>
                <mxCell id="idqu97gbhCp227kUFgKh-9" value="" style="shape=cylinder3;whiteSpace=wrap;html=1;boundedLbl=1;backgroundOutline=1;size=9;" parent="1" vertex="1">
                    <mxGeometry x="400" y="160" width="40" height="40" as="geometry"/>
                </mxCell>
                <mxCell id="idqu97gbhCp227kUFgKh-10" style="edgeStyle=none;html=1;exitX=0.5;exitY=1;exitDx=0;exitDy=0;entryX=0.5;entryY=1;entryDx=0;entryDy=0;entryPerimeter=0;" parent="1" source="idqu97gbhCp227kUFgKh-5" target="idqu97gbhCp227kUFgKh-9" edge="1">
                    <mxGeometry relative="1" as="geometry">
                        <Array as="points">
                            <mxPoint x="180" y="220"/>
                            <mxPoint x="420" y="220"/>
                        </Array>
                    </mxGeometry>
                </mxCell>
                <mxCell id="idqu97gbhCp227kUFgKh-11" value="存储" style="edgeLabel;html=1;align=center;verticalAlign=middle;resizable=0;points=[];" parent="idqu97gbhCp227kUFgKh-10" vertex="1" connectable="0">
                    <mxGeometry x="0.6429" y="-1" relative="1" as="geometry">
                        <mxPoint y="-11" as="offset"/>
                    </mxGeometry>
                </mxCell>
                <mxCell id="idqu97gbhCp227kUFgKh-12" style="edgeStyle=none;html=1;exitX=0.5;exitY=0;exitDx=0;exitDy=0;entryX=0.5;entryY=1;entryDx=0;entryDy=0;strokeColor=#3333FF;endArrow=none;endFill=0;" parent="1" source="idqu97gbhCp227kUFgKh-14" target="idqu97gbhCp227kUFgKh-37" edge="1">
                    <mxGeometry relative="1" as="geometry"/>
                </mxCell>
                <mxCell id="idqu97gbhCp227kUFgKh-13" style="edgeStyle=none;html=1;exitX=0.75;exitY=0;exitDx=0;exitDy=0;entryX=0;entryY=0.5;entryDx=0;entryDy=0;endArrow=none;endFill=0;" parent="1" source="idqu97gbhCp227kUFgKh-14" target="idqu97gbhCp227kUFgKh-25" edge="1">
                    <mxGeometry relative="1" as="geometry">
                        <Array as="points">
                            <mxPoint x="200" y="330"/>
                        </Array>
                    </mxGeometry>
                </mxCell>
                <mxCell id="idqu97gbhCp227kUFgKh-14" value="用户名" style="rounded=0;whiteSpace=wrap;html=1;" parent="1" vertex="1">
                    <mxGeometry x="160" y="360" width="40" height="40" as="geometry"/>
                </mxCell>
                <mxCell id="idqu97gbhCp227kUFgKh-15" style="edgeStyle=none;html=1;exitX=0.5;exitY=0;exitDx=0;exitDy=0;entryX=0;entryY=1;entryDx=0;entryDy=0;endArrow=none;endFill=0;" parent="1" source="idqu97gbhCp227kUFgKh-16" target="idqu97gbhCp227kUFgKh-25" edge="1">
                    <mxGeometry relative="1" as="geometry"/>
                </mxCell>
                <mxCell id="idqu97gbhCp227kUFgKh-16" value="签名" style="rounded=0;whiteSpace=wrap;html=1;" parent="1" vertex="1">
                    <mxGeometry x="240" y="360" width="40" height="40" as="geometry"/>
                </mxCell>
                <mxCell id="idqu97gbhCp227kUFgKh-17" style="edgeStyle=none;html=1;exitX=0.5;exitY=1;exitDx=0;exitDy=0;exitPerimeter=0;entryX=0.5;entryY=1;entryDx=0;entryDy=0;" parent="1" source="idqu97gbhCp227kUFgKh-20" target="idqu97gbhCp227kUFgKh-22" edge="1">
                    <mxGeometry relative="1" as="geometry">
                        <Array as="points">
                            <mxPoint x="420" y="420"/>
                            <mxPoint x="340" y="420"/>
                        </Array>
                    </mxGeometry>
                </mxCell>
                <mxCell id="idqu97gbhCp227kUFgKh-18" value="查找" style="edgeLabel;html=1;align=center;verticalAlign=middle;resizable=0;points=[];" parent="idqu97gbhCp227kUFgKh-17" vertex="1" connectable="0">
                    <mxGeometry x="-0.2833" relative="1" as="geometry">
                        <mxPoint x="-3" y="-10" as="offset"/>
                    </mxGeometry>
                </mxCell>
                <mxCell id="idqu97gbhCp227kUFgKh-19" style="edgeStyle=none;html=1;exitX=0.5;exitY=1;exitDx=0;exitDy=0;exitPerimeter=0;entryX=0.5;entryY=1;entryDx=0;entryDy=0;" parent="1" source="idqu97gbhCp227kUFgKh-20" target="idqu97gbhCp227kUFgKh-14" edge="1">
                    <mxGeometry relative="1" as="geometry">
                        <Array as="points">
                            <mxPoint x="420" y="420"/>
                            <mxPoint x="180" y="420"/>
                        </Array>
                    </mxGeometry>
                </mxCell>
                <mxCell id="UI5ZIwwhluf9tkh3ZStT-1" style="edgeStyle=none;html=1;exitX=0.5;exitY=1;exitDx=0;exitDy=0;exitPerimeter=0;entryX=0.5;entryY=1;entryDx=0;entryDy=0;" parent="1" source="idqu97gbhCp227kUFgKh-20" target="1YCO0_J7oh56pzW2GMpL-1" edge="1">
                    <mxGeometry relative="1" as="geometry">
                        <Array as="points">
                            <mxPoint x="420" y="420"/>
                            <mxPoint x="220" y="420"/>
                        </Array>
                    </mxGeometry>
                </mxCell>
                <mxCell id="idqu97gbhCp227kUFgKh-20" value="" style="shape=cylinder3;whiteSpace=wrap;html=1;boundedLbl=1;backgroundOutline=1;size=9;" parent="1" vertex="1">
                    <mxGeometry x="400" y="360" width="40" height="40" as="geometry"/>
                </mxCell>
                <mxCell id="idqu97gbhCp227kUFgKh-21" style="edgeStyle=none;html=1;exitX=0.5;exitY=0;exitDx=0;exitDy=0;entryX=0.5;entryY=1;entryDx=0;entryDy=0;endArrow=none;endFill=0;" parent="1" source="idqu97gbhCp227kUFgKh-22" target="idqu97gbhCp227kUFgKh-25" edge="1">
                    <mxGeometry relative="1" as="geometry"/>
                </mxCell>
                <mxCell id="idqu97gbhCp227kUFgKh-22" value="共钥" style="rounded=0;whiteSpace=wrap;html=1;" parent="1" vertex="1">
                    <mxGeometry x="320" y="360" width="40" height="40" as="geometry"/>
                </mxCell>
                <mxCell id="idqu97gbhCp227kUFgKh-23" style="edgeStyle=none;html=1;exitX=1;exitY=0.5;exitDx=0;exitDy=0;entryX=0;entryY=0.5;entryDx=0;entryDy=0;" parent="1" source="idqu97gbhCp227kUFgKh-25" target="idqu97gbhCp227kUFgKh-32" edge="1">
                    <mxGeometry relative="1" as="geometry"/>
                </mxCell>
                <mxCell id="idqu97gbhCp227kUFgKh-24" value="验证" style="edgeLabel;html=1;align=center;verticalAlign=middle;resizable=0;points=[];" parent="idqu97gbhCp227kUFgKh-23" vertex="1" connectable="0">
                    <mxGeometry x="-0.05" y="2" relative="1" as="geometry">
                        <mxPoint y="-8" as="offset"/>
                    </mxGeometry>
                </mxCell>
                <mxCell id="idqu97gbhCp227kUFgKh-25" value="签名&lt;div&gt;算法&lt;/div&gt;" style="rounded=1;whiteSpace=wrap;html=1;" parent="1" vertex="1">
                    <mxGeometry x="280" y="290" width="40" height="40" as="geometry"/>
                </mxCell>
                <mxCell id="idqu97gbhCp227kUFgKh-26" style="edgeStyle=none;html=1;exitX=0.9;exitY=0.5;exitDx=0;exitDy=0;exitPerimeter=0;entryX=0;entryY=0.5;entryDx=0;entryDy=0;dashed=1;strokeColor=#3333FF;" parent="1" source="idqu97gbhCp227kUFgKh-28" target="idqu97gbhCp227kUFgKh-2" edge="1">
                    <mxGeometry relative="1" as="geometry"/>
                </mxCell>
                <mxCell id="idqu97gbhCp227kUFgKh-27" value="发送" style="edgeLabel;html=1;align=center;verticalAlign=middle;resizable=0;points=[];" parent="idqu97gbhCp227kUFgKh-26" vertex="1" connectable="0">
                    <mxGeometry x="-0.2632" y="-2" relative="1" as="geometry">
                        <mxPoint y="-12" as="offset"/>
                    </mxGeometry>
                </mxCell>
                <mxCell id="6RVEvXUnIi2BK6GZCq8R-1" style="edgeStyle=none;html=1;exitX=0.5;exitY=0;exitDx=0;exitDy=0;entryX=0;entryY=0.5;entryDx=0;entryDy=0;strokeColor=#3333FF;dashed=1;" edge="1" parent="1" source="idqu97gbhCp227kUFgKh-28" target="idqu97gbhCp227kUFgKh-41">
                    <mxGeometry relative="1" as="geometry">
                        <Array as="points">
                            <mxPoint x="60" y="110"/>
                        </Array>
                    </mxGeometry>
                </mxCell>
                <mxCell id="idqu97gbhCp227kUFgKh-28" value="" style="shape=actor;whiteSpace=wrap;html=1;" parent="1" vertex="1">
                    <mxGeometry x="40" y="160" width="40" height="40" as="geometry"/>
                </mxCell>
                <mxCell id="idqu97gbhCp227kUFgKh-29" style="edgeStyle=none;html=1;exitX=0.9;exitY=0.5;exitDx=0;exitDy=0;exitPerimeter=0;entryX=0;entryY=0.5;entryDx=0;entryDy=0;dashed=1;strokeColor=#3333FF;" parent="1" source="idqu97gbhCp227kUFgKh-31" target="idqu97gbhCp227kUFgKh-1" edge="1">
                    <mxGeometry relative="1" as="geometry"/>
                </mxCell>
                <mxCell id="idqu97gbhCp227kUFgKh-30" value="发送" style="edgeLabel;html=1;align=center;verticalAlign=middle;resizable=0;points=[];" parent="idqu97gbhCp227kUFgKh-29" vertex="1" connectable="0">
                    <mxGeometry x="0.1905" y="1" relative="1" as="geometry">
                        <mxPoint x="-17" y="-9" as="offset"/>
                    </mxGeometry>
                </mxCell>
                <mxCell id="6RVEvXUnIi2BK6GZCq8R-4" style="edgeStyle=none;html=1;exitX=0.5;exitY=0;exitDx=0;exitDy=0;entryX=0;entryY=0.5;entryDx=0;entryDy=0;strokeColor=#3333FF;dashed=1;" edge="1" parent="1" source="idqu97gbhCp227kUFgKh-31" target="idqu97gbhCp227kUFgKh-34">
                    <mxGeometry relative="1" as="geometry">
                        <Array as="points">
                            <mxPoint x="60" y="310"/>
                        </Array>
                    </mxGeometry>
                </mxCell>
                <mxCell id="idqu97gbhCp227kUFgKh-31" value="" style="shape=actor;whiteSpace=wrap;html=1;" parent="1" vertex="1">
                    <mxGeometry x="40" y="360" width="40" height="40" as="geometry"/>
                </mxCell>
                <mxCell id="idqu97gbhCp227kUFgKh-32" value="OK?" style="rhombus;whiteSpace=wrap;html=1;" parent="1" vertex="1">
                    <mxGeometry x="400" y="290" width="40" height="40" as="geometry"/>
                </mxCell>
                <mxCell id="idqu97gbhCp227kUFgKh-33" style="edgeStyle=none;html=1;exitX=1;exitY=0.5;exitDx=0;exitDy=0;entryX=0;entryY=0.5;entryDx=0;entryDy=0;strokeColor=#3333FF;endArrow=none;endFill=0;" parent="1" source="idqu97gbhCp227kUFgKh-34" target="idqu97gbhCp227kUFgKh-37" edge="1">
                    <mxGeometry relative="1" as="geometry"/>
                </mxCell>
                <mxCell id="idqu97gbhCp227kUFgKh-34" value="私钥" style="rounded=0;whiteSpace=wrap;html=1;fillColor=#CCCCCC;" parent="1" vertex="1">
                    <mxGeometry x="80" y="290" width="40" height="40" as="geometry"/>
                </mxCell>
                <mxCell id="idqu97gbhCp227kUFgKh-35" style="edgeStyle=none;html=1;exitX=1;exitY=0.5;exitDx=0;exitDy=0;entryX=0.25;entryY=0;entryDx=0;entryDy=0;strokeColor=#3333FF;" parent="1" source="idqu97gbhCp227kUFgKh-37" target="idqu97gbhCp227kUFgKh-16" edge="1">
                    <mxGeometry relative="1" as="geometry">
                        <Array as="points">
                            <mxPoint x="250" y="310"/>
                        </Array>
                    </mxGeometry>
                </mxCell>
                <mxCell id="idqu97gbhCp227kUFgKh-36" value="生成" style="edgeLabel;html=1;align=center;verticalAlign=middle;resizable=0;points=[];" parent="idqu97gbhCp227kUFgKh-35" vertex="1" connectable="0">
                    <mxGeometry x="-0.575" y="1" relative="1" as="geometry">
                        <mxPoint x="-6" y="-9" as="offset"/>
                    </mxGeometry>
                </mxCell>
                <mxCell id="idqu97gbhCp227kUFgKh-37" value="签名&lt;br&gt;&lt;div&gt;算法&lt;/div&gt;" style="rounded=1;whiteSpace=wrap;html=1;" parent="1" vertex="1">
                    <mxGeometry x="140" y="290" width="40" height="40" as="geometry"/>
                </mxCell>
                <mxCell id="idqu97gbhCp227kUFgKh-38" style="edgeStyle=none;html=1;exitX=0.75;exitY=0;exitDx=0;exitDy=0;entryX=0;entryY=1;entryDx=0;entryDy=0;endArrow=none;endFill=0;" parent="1" source="idqu97gbhCp227kUFgKh-39" target="idqu97gbhCp227kUFgKh-47" edge="1">
                    <mxGeometry relative="1" as="geometry"/>
                </mxCell>
                <mxCell id="idqu97gbhCp227kUFgKh-39" value="签名" style="rounded=0;whiteSpace=wrap;html=1;" parent="1" vertex="1">
                    <mxGeometry x="240" y="160" width="40" height="40" as="geometry"/>
                </mxCell>
                <mxCell id="idqu97gbhCp227kUFgKh-40" style="edgeStyle=none;html=1;exitX=1;exitY=0.5;exitDx=0;exitDy=0;entryX=0;entryY=0.5;entryDx=0;entryDy=0;strokeColor=#3333FF;endArrow=none;endFill=0;" parent="1" source="idqu97gbhCp227kUFgKh-41" target="idqu97gbhCp227kUFgKh-44" edge="1">
                    <mxGeometry relative="1" as="geometry"/>
                </mxCell>
                <mxCell id="idqu97gbhCp227kUFgKh-41" value="私钥" style="rounded=0;whiteSpace=wrap;html=1;fillColor=#CCCCCC;" parent="1" vertex="1">
                    <mxGeometry x="80" y="90" width="40" height="40" as="geometry"/>
                </mxCell>
                <mxCell id="idqu97gbhCp227kUFgKh-42" style="edgeStyle=none;html=1;exitX=1;exitY=0.5;exitDx=0;exitDy=0;entryX=0.5;entryY=0;entryDx=0;entryDy=0;strokeColor=#3333FF;" parent="1" source="idqu97gbhCp227kUFgKh-44" target="idqu97gbhCp227kUFgKh-39" edge="1">
                    <mxGeometry relative="1" as="geometry">
                        <Array as="points">
                            <mxPoint x="260" y="110"/>
                        </Array>
                    </mxGeometry>
                </mxCell>
                <mxCell id="idqu97gbhCp227kUFgKh-43" value="生成" style="edgeLabel;html=1;align=center;verticalAlign=middle;resizable=0;points=[];" parent="idqu97gbhCp227kUFgKh-42" vertex="1" connectable="0">
                    <mxGeometry x="-0.7231" y="1" relative="1" as="geometry">
                        <mxPoint y="-9" as="offset"/>
                    </mxGeometry>
                </mxCell>
                <mxCell id="idqu97gbhCp227kUFgKh-44" value="签名&lt;br&gt;&lt;div&gt;算法&lt;/div&gt;" style="rounded=1;whiteSpace=wrap;html=1;" parent="1" vertex="1">
                    <mxGeometry x="140" y="90" width="40" height="40" as="geometry"/>
                </mxCell>
                <mxCell id="idqu97gbhCp227kUFgKh-45" style="edgeStyle=none;html=1;exitX=1;exitY=0.5;exitDx=0;exitDy=0;entryX=0;entryY=0.5;entryDx=0;entryDy=0;" parent="1" source="idqu97gbhCp227kUFgKh-47" target="idqu97gbhCp227kUFgKh-48" edge="1">
                    <mxGeometry relative="1" as="geometry"/>
                </mxCell>
                <mxCell id="idqu97gbhCp227kUFgKh-46" value="验证" style="edgeLabel;html=1;align=center;verticalAlign=middle;resizable=0;points=[];" parent="idqu97gbhCp227kUFgKh-45" vertex="1" connectable="0">
                    <mxGeometry x="-0.1" y="2" relative="1" as="geometry">
                        <mxPoint x="-2" y="-8" as="offset"/>
                    </mxGeometry>
                </mxCell>
                <mxCell id="idqu97gbhCp227kUFgKh-47" value="签名&lt;div&gt;算法&lt;/div&gt;" style="rounded=1;whiteSpace=wrap;html=1;" parent="1" vertex="1">
                    <mxGeometry x="320" y="90" width="40" height="40" as="geometry"/>
                </mxCell>
                <mxCell id="idqu97gbhCp227kUFgKh-48" value="OK?" style="rhombus;whiteSpace=wrap;html=1;" parent="1" vertex="1">
                    <mxGeometry x="400" y="90" width="40" height="40" as="geometry"/>
                </mxCell>
                <mxCell id="c9gbLq4ln8lDYehAgokP-1" style="edgeStyle=none;html=1;exitX=0.5;exitY=1;exitDx=0;exitDy=0;" parent="1" source="idqu97gbhCp227kUFgKh-49" edge="1">
                    <mxGeometry relative="1" as="geometry">
                        <mxPoint x="420" y="200" as="targetPoint"/>
                        <Array as="points">
                            <mxPoint x="340" y="220"/>
                            <mxPoint x="420" y="220"/>
                        </Array>
                    </mxGeometry>
                </mxCell>
                <mxCell id="idqu97gbhCp227kUFgKh-49" value="&lt;font style=&quot;color: rgb(255, 0, 0);&quot;&gt;版本号&lt;/font&gt;" style="rounded=0;whiteSpace=wrap;html=1;" parent="1" vertex="1">
                    <mxGeometry x="320" y="160" width="40" height="40" as="geometry"/>
                </mxCell>
                <mxCell id="1YCO0_J7oh56pzW2GMpL-2" style="edgeStyle=none;html=1;exitX=0.5;exitY=0;exitDx=0;exitDy=0;entryX=0.75;entryY=1;entryDx=0;entryDy=0;strokeColor=#3333FF;endArrow=none;endFill=0;" parent="1" source="1YCO0_J7oh56pzW2GMpL-1" target="idqu97gbhCp227kUFgKh-37" edge="1">
                    <mxGeometry relative="1" as="geometry"/>
                </mxCell>
                <mxCell id="-Wv9wln_PYsDwXQhGmWK-1" style="edgeStyle=none;html=1;exitX=0.75;exitY=0;exitDx=0;exitDy=0;entryX=0;entryY=0.75;entryDx=0;entryDy=0;endArrow=none;endFill=0;" parent="1" source="1YCO0_J7oh56pzW2GMpL-1" target="idqu97gbhCp227kUFgKh-25" edge="1">
                    <mxGeometry relative="1" as="geometry">
                        <Array as="points">
                            <mxPoint x="230" y="340"/>
                        </Array>
                    </mxGeometry>
                </mxCell>
                <mxCell id="1YCO0_J7oh56pzW2GMpL-1" value="&lt;font style=&quot;color: rgb(255, 0, 0);&quot;&gt;版本号&lt;/font&gt;" style="rounded=0;whiteSpace=wrap;html=1;" parent="1" vertex="1">
                    <mxGeometry x="200" y="360" width="40" height="40" as="geometry"/>
                </mxCell>
                <mxCell id="mopMmpFVhPClbDVtDKXC-1" style="edgeStyle=none;html=1;exitX=0.5;exitY=1;exitDx=0;exitDy=0;entryX=0.5;entryY=0;entryDx=0;entryDy=0;entryPerimeter=0;" parent="1" source="idqu97gbhCp227kUFgKh-32" target="idqu97gbhCp227kUFgKh-20" edge="1">
                    <mxGeometry relative="1" as="geometry"/>
                </mxCell>
                <mxCell id="mopMmpFVhPClbDVtDKXC-2" value="yes&lt;div&gt;版本号+1&lt;/div&gt;" style="text;html=1;align=center;verticalAlign=middle;resizable=0;points=[];autosize=1;strokeColor=none;fillColor=none;" parent="1" vertex="1">
                    <mxGeometry x="414" y="312" width="70" height="40" as="geometry"/>
                </mxCell>
                <mxCell id="mopMmpFVhPClbDVtDKXC-3" value="&lt;font style=&quot;color: rgb(255, 0, 0);&quot;&gt;5&lt;/font&gt;" style="ellipse;whiteSpace=wrap;html=1;aspect=fixed;fillColor=#FFCCCC;strokeColor=#b85450;" parent="1" vertex="1">
                    <mxGeometry x="395" y="330" width="20" height="20" as="geometry"/>
                </mxCell>
                <mxCell id="6RVEvXUnIi2BK6GZCq8R-3" value="生成" style="text;html=1;align=center;verticalAlign=middle;resizable=0;points=[];autosize=1;strokeColor=none;fillColor=none;" vertex="1" parent="1">
                    <mxGeometry x="30" y="86" width="50" height="30" as="geometry"/>
                </mxCell>
                <mxCell id="6RVEvXUnIi2BK6GZCq8R-5" value="使用" style="text;html=1;align=center;verticalAlign=middle;resizable=0;points=[];autosize=1;strokeColor=none;fillColor=none;" vertex="1" parent="1">
                    <mxGeometry x="30" y="286" width="50" height="30" as="geometry"/>
                </mxCell>
            </root>
        </mxGraphModel>
    </diagram>
    <diagram id="hS2gEI9Ev7oVQ2Dv8Z8Y" name="Key">
        <mxGraphModel dx="774" dy="652" grid="1" gridSize="10" guides="1" tooltips="1" connect="1" arrows="1" fold="1" page="1" pageScale="1" pageWidth="827" pageHeight="1169" math="0" shadow="0">
            <root>
                <mxCell id="0"/>
                <mxCell id="1" parent="0"/>
                <mxCell id="-cxyng2Q86wyNeK6CYTB-12" value="" style="rounded=0;whiteSpace=wrap;html=1;strokeColor=none;" vertex="1" parent="1">
                    <mxGeometry x="400" y="160" width="40" height="40" as="geometry"/>
                </mxCell>
                <mxCell id="BhMLg7fyJHVAn3xImd9E-3" style="edgeStyle=none;html=1;exitX=1;exitY=0.25;exitDx=0;exitDy=0;entryX=0;entryY=0.25;entryDx=0;entryDy=0;" edge="1" parent="1" source="BhMLg7fyJHVAn3xImd9E-1" target="BhMLg7fyJHVAn3xImd9E-2">
                    <mxGeometry relative="1" as="geometry"/>
                </mxCell>
                <mxCell id="BhMLg7fyJHVAn3xImd9E-5" value="计算" style="edgeLabel;html=1;align=center;verticalAlign=middle;resizable=0;points=[];" vertex="1" connectable="0" parent="BhMLg7fyJHVAn3xImd9E-3">
                    <mxGeometry x="-0.35" y="3" relative="1" as="geometry">
                        <mxPoint x="-12" y="-7" as="offset"/>
                    </mxGeometry>
                </mxCell>
                <mxCell id="BhMLg7fyJHVAn3xImd9E-1" value="私钥" style="rounded=0;whiteSpace=wrap;html=1;fillColor=#CCCCCC;" vertex="1" parent="1">
                    <mxGeometry x="160" y="160" width="40" height="40" as="geometry"/>
                </mxCell>
                <mxCell id="BhMLg7fyJHVAn3xImd9E-2" value="公钥" style="rounded=0;whiteSpace=wrap;html=1;fillStyle=auto;fillColor=default;" vertex="1" parent="1">
                    <mxGeometry x="320" y="160" width="40" height="40" as="geometry"/>
                </mxCell>
                <mxCell id="-cxyng2Q86wyNeK6CYTB-3" value="&lt;font style=&quot;font-size: 42px;&quot;&gt;🫙&lt;/font&gt;" style="text;html=1;align=center;verticalAlign=middle;resizable=0;points=[];autosize=1;strokeColor=none;fillColor=none;fontSize=22;" vertex="1" parent="1">
                    <mxGeometry x="389" y="151" width="70" height="60" as="geometry"/>
                </mxCell>
                <mxCell id="-cxyng2Q86wyNeK6CYTB-11" style="edgeStyle=none;html=1;exitX=0;exitY=0.75;exitDx=0;exitDy=0;entryX=1;entryY=0.75;entryDx=0;entryDy=0;" edge="1" parent="1" source="-cxyng2Q86wyNeK6CYTB-7" target="-cxyng2Q86wyNeK6CYTB-12">
                    <mxGeometry relative="1" as="geometry">
                        <mxPoint x="480" y="190" as="targetPoint"/>
                    </mxGeometry>
                </mxCell>
                <mxCell id="-cxyng2Q86wyNeK6CYTB-18" value="还原" style="edgeLabel;html=1;align=center;verticalAlign=middle;resizable=0;points=[];" vertex="1" connectable="0" parent="-cxyng2Q86wyNeK6CYTB-11">
                    <mxGeometry x="-0.6167" relative="1" as="geometry">
                        <mxPoint y="10" as="offset"/>
                    </mxGeometry>
                </mxCell>
                <mxCell id="-cxyng2Q86wyNeK6CYTB-7" value="" style="shape=image;verticalLabelPosition=bottom;labelBackgroundColor=default;verticalAlign=top;aspect=fixed;imageAspect=0;image=data:image/png,iVBORw0KGgoAAAANSUhEUgAAAFgAAABaCAIAAACzPwZoAAAAAXNSR0IArs4c6QAAAERlWElmTU0AKgAAAAgAAYdpAAQAAAABAAAAGgAAAAAAA6ABAAMAAAABAAEAAKACAAQAAAABAAAAWKADAAQAAAABAAAAWgAAAACdQBtwAAA3IElEQVR4AaV8B5Bc533f6+/t215uy/U7XMHhDsABIECwF4kUSdGyFMX22KPIHju27Mx4YmfszHgy48ix4ziZxLEnTrFjJ7IsRXYkW5JVKJEiKbAAJECCaIdyuMPVvdve9/WS37eL29srICnnzd7e2933vvL//vX3/3+Pdl2X2nk4rY/td5zaWx8lisKlZdP881vLNMu7tu3jubgkeEXO5zIiywR5WmZYjqVFhhE5jud5lqYZisKr+0DLaNN2KcNxNNMqaMp8o5FpKms0nZY8/RT1iz09Ax4Rd+HKt+uN37t4JWRQAds8FfJ/ZGYy7pVFmqa7W/xw52itRlGKQ2XK5ZVcodBQLIpTg95kONAry9zeRiqGWVcUjecohlUUZb3WECQ+6PdPezxelg0wrG0YJm3GZJ9fFGSejQp8hGG9PCcwNMZuu47mOKqmaabpWFZIEmOiRGjhug5Nq6ZVUrWSbVcVLa2aFcMoezjdI9CBIMhnFov98WhM5Nu0w/thn/fn+pJfWM6E4qmFanXhwtXjvfEnh1JhybN35O//zWqj8Z+z2bJJyTY97vGM+fwxjyfskbCEDENvEwKrjYW6Vaq9cPUGI0kTw6mQKLi66RimJgiK7Yzquuzx4J6g5ElnNkLhoMzSfpbx0qyX40WskUu5DO2yYp5ncqqxpjdjqvYAx1EiWVvHdXOmVdP0WqOp26AJ3eeVEyG/wjEKTTc59na1OlAsPDjUjz46U5Jp+uGh4ZuqtXDnTt/IpFMrXV1Zy2vmRw9NxHnaT1EfhjUwtbpp3V7bdIrl08nEwXg0LHIyy9EULbg2OqMdapsQaHFxbf3Lr5xdZcVHHnu4JxoSGdrjc1PxyIpuFimKF++yZCQQmLs+5z04KbK0xHE+jhM5hnEctGhTdKFQOFOsNHnWTsWGEwnvFheDQRQIitcT8npoG/wBDnEM26k5Nm1ahmPdWlz8dG9q0CN3zw1tRnjmgZH+QmZzfXPtSKpPFT23Kg39zGsPzEydTMY7JHv/k5puFEql50/O9tBs1LJd2wHvUqA4Q9NYP9slhGhSlG5Z310ufP+lV6Ne+RcfPTHYE+JwmePSDF1wGE7RxoJ+yAWGhbXt9QuNXMYj8jJFh1gGA7cwW4a7RrvnVzcvrK4f55zT01P3+7zgOp4ilNBNcBvby7L4p7m26tKm49ZpSqGcuuNUWS63vnGEER6MJYNguZ1zEijqUa8sT0/98aW5uq7FJCnK0/ma++K1xUxVmR0b7GWZ7fXceW/7E2adrjaT8cQUK2KmUE82TbgORGBcV2eZxWqJK1n2fLVx5sKFmxuF4cGBp04dHQz4OWhQl4Kqs1yqpKsejouzYHFyYJRBlo6HQ9VmIxiJYJ4awxR1czWXf2XhTrFeu+/4iU8MJGI85ye0Jtc7jmOaFi0QVnRsy7Zt03YhHQZD67atWU5Baayvrz03PZkKendRod2jQFPTqZ6njbG5m4tyb6qHYxPxmKabm9m82WycHh/t8cloHXPbe2AMum5mC7nJiXHHMl1Ch9bhUozrQD3oNHV1YYHt+/invnJzPu0NPTM5+sSx6T7J026OrCPDKI6z5FBjHmEQzL/F5KAOJrxGWcO9vaJl36jXXsnl31PVqZD/6cnRn+pP9fKcr3Vxe1aGZUNs0IDukmFg5gqFd6vmuqpNFW1nbm2jX+B/+uCY0KUddk1JoImGu1Su5ZtqUoJ0uX6O9clezXHXmmAygxclqFt0u4uUFkWtFosGy0YjEShvlywP03p3QBKXcRbr9Tumzb2wuvbUyMDx8fEhUWAoGpILNcbSDku5TYbJGlYfZUd5aYsIpJsIz4/3Jr6xmY66rmQasqZ9LORPhUMRUZJoaMYdh+O4pu3AlKJTF+fgMpoCO2iW3aTdmkutKY0epfbxU8e5uzy34/bOBywPjNSnxoe+fu6dJUk+GPLBgDNQ1aIXU12oKRua3R8JDPg8YZbt3IWTuu3crjRCA8mMoSmuY0MbqYZR19ddvWoa64xBlUrPjk1yTz98/4OgFU1zWGhoDUJU2oAUUQ5sW83SD3p94MzuA1p9sCfOpNPlWumQHJgKDfTTNKwZrtp5IWW4blZtbhgWpTIOZMFybdMydb1u24ZpFjiqRlM5RfnJw1NJnxdd6BSFUbBYDDSFIbWWt9MmToZikZPjB7597dawOC55iaXCJbLAS6Gg0lRW8wVb8XI9ES9H1Fn7yKvaYq3anCtXqrVqpVHNlxvpLGtaWo9fCvrUiP9E/8BIKMD9WDjIWTb4Fl6DYds1x6m4TtW0shAfW0/xTB/L7Fpk9BGXPD89NHSIEY4JfEdktrre/g9/4Sur639SKBuKQWuWXNfZphoqVBxDFUVxDfZT4B4dHz4WCcMQ2q776tqGTQujAS+P8bhUWKT9oghl2TkCFPXA2MiVuZu3F5aOHTsu0Cqx144jmIbX5zEcIatpRq0+5veG+bvOSI5n3rXNjaYmUEyCF2AEx/oScb83FAlEQqGk3xcLBgWOo683VChFmBNIsqobiqXZ0DqCwIoyWBGXDO+nhAyKylAUhoUXDtgCsBOsDzxFqEl+a+CwCO/kC2frTd2wYCN5zXQ1U2wqlGUyPFvHLEX++MjQR2MxaGLDsv7NN77XoKkfe/iBHl6AXhVcKxIMwmHrLC8ahtmazxT/5KvfHp2YOjrZx9M0qEZzLChGM2Brx9TVAMf1yB6vR4LxTlPUzWbT5j2ywMDYhltjxgghUBgzWoYg4Z2+UalDEHTdgmlnONrHUkG4BiABJJb4x/scGAoOs/2L40DzW0S1MPO23Wg0H4iEfPfWebgJ3YNwaHpX6+CI765n//rNt06dPPlIPCoxNCyMQLsJWQrAb98pdy9cuf2dV946cWp6tL/Pw8CPY3hBYLCyRKQo1bGg7fxwagXBs2XC2+O91ztt2hYsq8NyUMttw9CRyXvds6pq5aZS4eGcCVGOgQJnWQ4m6o1mIyJ7n/LdtTv73g4qXJlfuJMv3X/qvl6iA3b0Bt/8q3PzX0kXfn12qj/oE114XjRUW4R30TK8zE6bWIyV9ObvvPTmkfGxJ4ZTHEjBMzzPSSwPBuIZdsMxNiqVW2pzgKafHBgO8R027bSx44TjECYJLMa33cmOC3Z8ADutacYbK2mGYUdjoYBEBRBfMWyOpa9X61FdPxgJ7Vrn9v0YN77PuNR7G4W/+u5Z2K0FW/61R2fQb7cKgP17aHz00tr6G0t3Hrnv2KjpwLuCH7dhGAptJGQRqqTdPkY73Jv85EPHf3Dm7OjESI/EuxyniHzRNm7lc8u5XK1abtarbqn85ODg47391AcSoj3QD0MFXNk0zHcXV7KWc3Siv1eAHDOi62Amm4q2rOtPhQKxnaarQ0Uyetf+5oVr3z1/6eZ64dChQ9987e2nk8LhiYnONTjBMBDOPnVo4gsXLsXHx0dlmXYckecUnss3GpSpeaDYWjeQAdP0yeGBjczY+ZXlYYlfyeeuK40NS1ui7DzlDvm8EwfHnwhEH5MDkojI+QMO4jh8wCVbPy/azlsLayD1R8ZHwz4fvE9odsSoJdO+mSu4HvGxcNgHYd26vv0fvFB13Bc1+yvvXF5cWDIbjecmxiZGh19+9VUmEPqtn3zuKEvkv3NgNFA6v3vhykaz8bkHT2MGfrgiDKvaZt62Zn1ypIvW4NBb1ervv/bmXDFLW2bQsgaiUfDUycHhsEcOiJLAsHJLHXZ30emr++RDEUKlqFJTfWFprdrQDo4MzIaD7dmymDbj3qjW6vX6cDIxJgjdfI5ucGPaMM+upf/q3at3DDvl8R4eHrov4vfwbKOh/s35y09PDv7yiRmimHceb1j23545N9YTOTF1MGaaLEWbHJe2zXGHSskCzFzn8grlfn159WqxMNTXdzAYSDFsnOOiLPsBKqFz/9bJBxPCtOzXSpXXVtLwGmeGB2Z9ASwh8U1hZFi6Zhnn6+oxiZ+A10sUNjmwqnghcj9fLHxpee1MoZZguJFI9HjQG+E4D0shGKNZ7pyi3bly6SeOH/nU8BAosT25liVey+T+aC1zarDvIWhNh7Z5rmhZsq4N+L1kBFsTwH+YG2K1oOxb/Xf/1HXVB5zuXopdl9dd5y9W1hdX0qlk4tmBZBgQC00iaCAwLGPXaHauVh+l6SHfXR7B7SBBGo6zpv67av3GlTnJch4Jh6ajcS9DyzByLA1PHk4Yx9BP+GVxZOh/Ly3f39MD3KkbaQE/TyTjz3HcjVu3sseP9xOvyY5S1Ibl+GEXd1KNMEgXj+yawof8uEuit+8iS+q61/Oly4sriVjs2NhQEFgOqO0g6KYsjofKXMiWqk2tx+vtJifItKTrX37llfNzNyRJOjQ2NppIgX7wfDB5rmWkIVJYQLjqY/0DCLRev3kT0d123615oquJoG8gHlcNHXGqTXiIt4DifGil1t3g3nP0hxc8QwWCT1Fcw3H29X8AKJ6pVP5iOTOZSnx0ZLDfAdXBCIQZMpZ9ezPz5fWylEv//JHJuLDtSpL+aPpV8uJ6WWnS558yzKDtAsjjGEqgLZZieFqAlMGfk1xqnGOeDYf+cHNdq1V+IRTp5mqcH4RHPDJ4sd645pg9jDBEu44owVtt+2N75/ZhvsECAyvDlTnLKjebS4Zx29CXbJv7fjr/SCoK0e2sKlRxw3bOlGrfv/AewpnT08cDgoAFAylMl1oqVs9cvX7p+hVfNP7EsSOzfSm5S423hzLpuA/7fQWHNgqFNY5rev1Rn89LPD9BJEgoHDcKb+AO23YOpFK9pfy5i+8+/chjKXhDXbPBeCWOHw2FuUatUSutSB5NlllN1+A5kTY+1NGeOSwPgl/FdsuavVirFZrKUqO2li8uVHIb9Qrr9dInvva95wLS80cPH45FgBxDVKqG8Z0b87+zXJiN+H98auS+YIijXcOwVorVty5ffSddCPg9Dx2Z/PFENNYT647HQEH43Zuq4mE4VWmuaHpGt5cbakExKMfEtEMsG5I9Sa8cEjiB57yAKQCN8Nx7rvXahfODowM/P36ol9mhCNtzhce5aRhXHbdkmn7TBPbVK7UA4T2kwLTBL+B5jZhhR0EI1lSyhUJ6M5fOZDfLjaxNLQlCDUsri6JHjvj5RFDuC4a5T44PvnF14cVvvvLZhP9jD548EIsILBMWRK+qmRV7/vZyeLB3JV++eG3hxsrm5FDvz943dWpsJArkrqUXu0eyoipvLi19qZL/lxPTs7GehyCBLsIws6GbG4pS1bQiIBnVzlQamsAg4AJXyIgFGOZJXg4dP/n7Ny8NW86nJw7Je7xAeJwDQOiAqmquRTnSPdgBVEjXqvPF8kK5kracXFPdLOulTEGrNcOW4xG5iCz3DURm+nr8gUDCA/vFBh1aBv6OgO1iQ7teqL7w6g8X3pk7efLYp5999FQ8YlDutXwlu5ldSW/curOE4CAWS3zi0QdOH5kZCkiISjrzR994rVLU2RurLyzezNVKx6Ynn+/vPxjtiW1dhPUBsyAwU12qqVvVeqPRqDdVledFBIg+WfILrOaVv3r12qXl+V966tlHZV9HTrfauPsfjgm6g7eCBcdRbZ0sUtRyrbmaK6yXq5VatVgs1Yplw9C8kifl8fdFIqlQICHJPg9wYxn/BJ5mXVowTca0BMoFdkGEdb5YrXFCtlr+9lsL5y6+MzM79tuP3z+eIOgwJrCpapcz2aai9UcjpxKxbk+mNRLy9t7N23/y5rs3Cw352MSR6cmP+OQe2xyJRDqE6FzZPgGUWjdNzbabFtIcJiJViXGBkZct4w+uvnsoFvvNsSkfey9S3G0MKOlmvvhWrbSYz18y7TWHySlawUJTzFAoMBoMDciekEfqdSxkSSCJMvwMCsgbvGHobJw7rG4jxEJ8Bu+ThRW7UqpgoUyHKqjWhfn5F5ZXfInwpx954GdkUI73tfqF1IEHuocGGsGlS6v63y2sXjjzdlCgTxw9PJhK+v0ibARt6wcSyXsRAk1iVXGATWwCrFu6ZQLIsBj2rN5YuHHzM7PHh3z+ba5rXdx+y9v29yrlLxfLuYba0AHzaKaqBSkqJYlhr7dX9gQ9sp+hJYFknqBQJXjnACxaACJOWIrj4M65FG0ZjEXCObADDzcUJ4aDoVAIxAXenZw8kAtH31i58Zc/eNkaTD1x+Mi45PHthCVAAljdmqZdzOTO3pifV+yp48emE6EoOJyhRdNFGAYt1TX43aegAqw35gkOh3/lIvrlOFkErm0f9MT8Q0OEc1sX7L4TTGrbm4XCSqHYANkg4aIn6gv0y944Uk2CEHUdD8shWod2F0y7DfIT+wJmQMTBMABOieNkWxBU3A4IG39gcyBT9Bv5gmFTQHcVCnii3XCYG5R+Obtxpp6btpyf6x36p4dnwW/tMWF+dyqV/3R7Eekz1RcZ8/sO83yMZwIsL7KsHw3D7WNck2MCXnlod+RB2sAMlzY3L6Y3Tp44MbRn0dE+sH80c7e/dq9d7/CmoHdXNE11gINTecMuq2peBXcQUEWgWZGlZNoFGAP96uH4AMf4JB4q2YtcLFATktpyOZ3kYdqqAe+gFA9WsW3GBBjuEpQJWCvG0e8wgWhvzO/PLd5J68hFOSQj1DoArt4qldNlVfYGZmQ/kppBZMOIkEPSGDgbYAfwpAODr2jUfoSAlF3ayF4qFgZpt5/EB3fxhXb76GYvEUA7IpsIdmk46fSo1zvk9ba/JKkaiJbtAChv6lrV0GtNNd9Q6qqqIIHGMCqAWJWvAq1hXEh6gCSmGSggJOg4xMkIeeCvwmeFy0tAPhsIswNXErSw4HjYAAudsWDokSefnPb5wMAdRsVA+3pTxxlPJpPT85kSy3lDQV/Qz/IADRF8WGgfDoLOAojeXzrQVNMwEK+hI8UwvFK3I9K19F2nuEWxLEzNJ3ngX5HF7AgOeAoeKwdlS7mygHWCIwO5A+HgOANDhbWuNppIadu6Cr8UeKZlUhrDugZEEt6bQBGXFx4hIDak50ELkNXlTKDshDWppMA+IHADPt+uYeLjrCTNDifN/tjtci0Nx1HTqmWb9XqCkgwQHeTgaQachWxi11y2T8msbEdiGYRYAPWxoP49jun21a0z6NRVx8kquqghBGV7JDGBLDwR/O0D53ihze7IjfyMUNfTxphdJBAU3VANE6bKhJsMNAX6gaVNCstvcS3OAgmBlCItaoV4OhkMHIhG+rr72e6RnGEySACO9EQGeyLTLlVuKGa9iVweBxmiWYtiYAoMEhDsfziug2VFrAHWbeq6IJEM1f6Xbn2L0NMwdE6kVzbzVw3L7w/0RQMpr4xUA0TyA25uNQJDwfNCgBdgBwn7tLgGOh2uNyQBb7Aa0A40sv+M7UQl8UDYO+r3eUhY4RIu3O/okB8/+mjkhGXX70F2U0eTxJtEQssFwyJA2xsdYwS6bdGQUESfgoBCjLJuJDyIwu55oCWRZkA4FSvlD6QrzevprHBnqTfg+7FEdCiZSEpid4Syb0Pt9vG+g2r4QEIWcndLNAwN2mJGZIaTMa/A10zzRjpty/JkNBrabzJ7e4J5gipqaxNQIQCNA1W0Hx2hOaC1VjRj1bIPQF1zPCoXAqwBotyLFhgtghQg2rfqDURtQZ6bCvjzDSbfUP9azw7VtacH4hMeWYKbvHdkH/ob9ic/9ysTocCJ3j6kvSQYE4p6s9n84gvfP9qbDBDs1BU+SIbRF9QSnF84vHAxSjSN1D5Kh3bQfmtAGGvI6/1+Jnej0jiZTADecU2jZpgoTdkt3lu34D8sXL5aezOdkX0BZKHwMeGXB2OxuE+SHbdaKiuqYcExgLPcGu0/gCIc0rlTfl+LNcntYO+LmayBQqHeXs2lGroBASbu2PseRU3LNJvvrm2ky2Uo7V+amhhLJve9Awp/OhKeOnb0az88+zptP378mMixm4rNNprhVvpz710YFngNslRVdOTQHRIdsD6GFZEQBz4NGNmhTNNGjMsjOyZ6AgjlP2yMvt0bcyjgRyFM5wskqdOL65MDI9ArQRZKms2oRt1yYJYg3nsPfFk3jMuF4nXkyhgWZVaXVzd/8wfnvlxoEt289wbyDf2ZcOizQd+X1nNvFBsw6hLPAhbOGyZUzL0OcIxXZGAJQUqJYeEXYPE8DO1lmZgsDIakpE+EUlN1raipVZRg3MuA36MD9nc///kOGTDuzUr15Wvzj566b1ISYAFplgWIpmoocSF1cxD7zsWdBsFERYa3vZ5UMJRKxD2R0PW1zOvn3urV1Hgq5QHgv+cASD8Yi74Edt9IH4rHPKII26bajpfk7fbpAg0YHHetUbd104cIkodTxCLfgaoliWVl4iMxIjJcHO+iIs11VKuVv3MpeKntMe8ddmdQWEu82M9//vOdr+DAnlleRerhqZlJmAMwIf7ggsJPKqm6oirw+1A907keJ+gAoZtumLxLB2k6wFAH/b6J8SE4en/+1ZfS2exEb08ogMZ2jARqOigKg5HgzRu3bhZrJ/t7aUHIwfvRlKAkQQV0d3H3nGMXalVd1WKBgMwx4FZ40EF40PAXgSdwMHpuXTdqulk1rIaFJIgNMC6t6RUFCTBkJ3dKdxv4RO2SZuYazdVyefesIFzXfL5vKepP+QE70xKqSkgui/WLUll3ag1Fp9iEiKTl9szgoiKwlWCKiZMCutFjopR6+GSKkf72By+VXr30688HJkK+XboQcz0R9DcPHvw/r1+YGxgYHhkQRW6zqXosawhKbw8lQLsBUbga8NbDPiRcFQphBbNqmA2lsVmpF+oKsitKQ0XAFPX74iF/2CsE/T6ZcqKUm2ppH/A7NDpkvOJQVdOsKVazqWqKUkcjlraDI1DzJ8diKyL/+lsX5Eo1lUohjEXdJNwtMA8tiVj5Wr0REKA8CC06B6pSTMKCJI0MUsLjha0ZGBoUe5JnLl4ub6zed3BCbmW0O7fgBCIthwK3s/m5y1dGxw54JQmutK1pEfgFe5gC6qPuupd1FeAtiyw5vFLXbWhqpamWNb2JJRAEyeeP9MSHBwYGB/sGe5PJYDAZDA0HQ0ggia6rmEZFNcpKE/gKzExN1SHUqIuUAr5gIr5Pgke1rDO3F/794vJMJP6PpicmJB7IgU3TJsuYKCNBDaph9kVCYygOw8xbM1u1XaQ/4cwDCODBo+RLEiOhVuqVa9f/9NKtZ8aGP3vqyIzPu4sv4IvP3Vn5ra+8MDU1/qmPP2GaRr1U6g8HpwO7QSq0CfV7qVRCBBAVJJQvIXBCRVMrdtzJ9kTku5eJfFZdp6lpTRvzRf0H0XZtQ4tCE811gYnu4IjWpEgAmOyJ9ff15RcWFheW4wB1URuFeKytNVgONqxcrVm4GfRspSgUhr6zuroCJIsAHRyAMKLxXMQ1PNjK6w+efevcXLaYCASBl0HP3+0I46Vpr9+v0NTl61fQa08g6KLITDXCIg+Qont+mAzi6IDPF/P6UGEI1QCmw6vtYe+Y904qoC940IBOEWJJkgC/C8PGCCwSYjhgCpS4AS7bhxDoHlp9QuAnk/GsZrx5+QZuCwf8EBwUXoJFXV5ATdiGolVUFQwvtbBWQADrkrRaU8qqwiFwE4C5MDDMfpc6FPEbPYnXNoo3bt2G3p2MhRAgdIaOuHgoFsob+nfX11PBQMDnL2mm3aj5/H5EVphG+0q84wWGQhKMuBVQ0q1v2t93KLv3BBSESYLyErBITru+0TQBq7eibRTlqRRe9D6E6LSFdMahZNyplr/1+vnFpolKGMEjImCHvoEmsHmmYlorDd3L0jFRwCpNyp5JWSxWqhfq2ny9zoIaIof1Fyl6pif8bG/kHUX//vWFcDg0Fg50EGDMBMDJQF/q3du3LuUykaGBCENlFL3osCOkonebZJ2B/UgnZMC2DZkF1kBwBlSYuq5pkXcVVZ42VWfY69UqIQTUKdYZuLBqu03bQeFj1jTXLdTN65CpQ0MD3mD4ynvv3c5ueHtikteHpm3aMcH/DNs0rLym+XkOIQCUH4xrNBTkZdmpVPMb6XoVCQTBJ5OgGYGp45Nyq+lD0fBUPNohBGYFWkAQgGRcSK/TkpQMhQCsbhSLQx7eA2u637wxZix1+8Dt9zqwZiomz3OkrJFhDHgZDGtSqClE5SANR6nMMCuVytlLl4myRCUdFEnOoSDjVVVdpuica2UFLmy793l9z0eCMF3lavU/3lm9cvv2/YcO3dffB9RCo1gIGO59u5D7ZMD30b4UVFdH+lGa9l69fm01v7yeTfIoo4DqEAOhQMQvHU3Fw6Qgc/eBsPWPsxvffu/SEwdnQpHkpUtXfuFAcrp/ILL7QpSiWavlElyPKJKrqHtraaSOs9fdcsmxLqc3mtCMWD1yEJzEAupmoQwcNcDuvMQvptPTQwOk2BgFwpC3IKA+kQdMEmFI0V6dZkylmaRs/ATyh4PBf3Z0+gzjfGfptuIVB5KpqIJCYpTC2XXd8ooiqNAZAVFsHDsbDo3I3iWZLeULvQm4VdB0PhleZIsF9syOWNNPReKrovh2KXc6nGq6bhMoyc7r0DLqdc+XirxmyJabU2GqYLMJ/isLcERQHs/BowHmgnwZCJQzze/cXlxH7aZmuag/1rC/wmJqTVozXF3HZXYy+NTs0WdGhzgdVMA+AwnGkOCWCLSAO3osBxSCUQE2iOm1Z9jHMM/PzHh6er6xeGttZeXggYNQbPVG08twEZ+/wwsYeft6TDgu8tEDw9rwgIcHpH73+51T2/6ECwYF/vnZ2f9ybe56Nl3iWBVLv/07OQOodatUhMbtjZH9HeBw+HvkGrgJjq1oqKuxDFWFJ27AazT0qdGhp06cQEDMEwjSZSyHtW1es1BwCh4hFT9BcSoR7YFgApUBaEcR408QFcRJmus0bLPRap0Mv+tAhcbHkwjPPedWV7+ZXj3YE0/odoJnQvdGRmDfIHG5Yqm/Jwb719XYPqcwB7Ph6D8e6Puzcq3qFRB9gBk7B5zcy8Vy06FGIBEgK8G7WQQXxDkglStAHlmAeSiu0zSrybAXbsw9MDz4ZDAAPuqeB0E4u462NiZOEUoPIC1wDRF6KgwFnlRcum7TMsV69gS0sHwPh8KzgcDhTO4Hi4s3GP7HQ8GePT5MuyOE5BnT/sFmzqtrbAA7hjz7ar6uUVE9NP3pwZFb1sqNzU1sc+g4YFj2W5WqWasNxRMShaXF5OEbtSboghJoA1MBBEkDmwdqSJzJFhxF4KddRzdVtn4CIVj4FSC9YdMEFweo77hQJJrDemEVupyfrVtI2TkKGe9PJflY7Ful8gGyradbMjoXkm0gi2sbBkSYcoEfM3uw1e1Lt87QEPTUoweG4frMpJIdFsqWKteXV8cHBwEOY6MDvH4QAQMnTLFlQECaFjEwbCgOtLTfjLc62vWf+1K9IgPTNR1WczTGzctcSQAi7jYY5rTIPbGjXmH7XnSSpOlnBf6ZZBy97e0QLF10nLl8MccyD0YC8/MlhPP4cn+CbTd89+wZhvnYAMGP8YJErJcqV28upuJRHy8iHGn3B2lubQTCcrX7J+9tWkAeBSLwO2VgTy/dX3Bv/OAVuto0Gk2qocGz0cI+PSDBE6J9IWp4yBMd7r5613l7oLu+xEdIBJzWG4Vivd6cGezzkNSJBfuy98p7fdNpGbTLVmso4gqHw/F4EsEIwAGiOMisGYdEg3B3IRCQ4buqAD4LbBbJs8CcfxApIHHwrJAE4X7jmY+gZg3RPI+8IkurNGO1sAwooR4BQkBs54dcxvascP26ql9fWnbCwSOjQ3GWacDFRZYefu37HhhzZ9htY4HJgqDnr13vSfbJsgSkDkYMgQORBag4/Iz0hOMgckDEA6K0x4mvUeIBK83dI8nUHgX6wsrM5Ut3qhULMd5MAMnkNq+RCzpDaV8NlQQjChToQ9ICVMB+mrdym8Fo+IkeUkZAbmSB3MASvh9HoN8mFJPtqADEsFsCSgD7R2kmKIijvamr6U3oxYAfew9Q5SPDGSHaEf4t8SHIThCiMMjg74IAKM2GAWLYFse0Z7LnHZ70/Mrmn5271DsQPxnv2Y01k/Za5MCoweGot6jresrrQ8gAvdX+dU+bd7/AisNDn1tPYxPjAUT40AlkVxjSayywAOxCaLesOO4myTgZFDx+TNiApwd404HZBu4Jd0CzjALP5MvYoul+7MjsY6PDB0aHK5Zz9eqN9eWMRwL0L3ijkWAkjLmSXS4kS0MKF1sDb42xlRZEELzvULFaSA6+s7Txf7/+DSaWOHZgtM/v38ecgdbwQYummTXtLDLoYCFNS0gian/3b3irt4rtzJdLRihwGqEEgvSWM4/pQdyaloHgHReCuOfXN7+ezVc0IwK7jeBeNXjLRe2MEPHIogdxup8PsMnozbPnLlWzSevgExQpU/JyTN+xaX16/MpNuIrZTYdCZRDtEeOhYFTiwRUwGF22vpVJ2xrYrv8Vy35naeV/fe81NpT4+Yfvm4wGsWVnmxCE14D52HbRdGqqWm/thsMeWFHg8ENO02xO8gmwqbuaJR8BgdUN60qpDHt2fzLOE1ZAZS4hfNmmKnDydHi4hBCw6hM+6b4SP7exWZDkHl+wN4AkMjaYAioAKE12oUAikD6d8IfeahSLtQYFN2XrAC+cPDJ94sh0saEi/CGrVcjOATCLxII+DqBpmGECwEHgYrduIQp054FdjV+8dO3MjYWTY0OPnzo+FAySSoRWXE/UIcaomBZCL+Ra6hR2Z9IsEAxkosBjUEzwCF22AcNFE6Ch4+SgC3QEicghc1UoAmFLRWNILqJ0GuTSabdpuUDWqyzSJaSwDBdDZaCo6Vmv73Bf6ofrmVw2V9ZEMRLgTMeDclJUMaCKiKb8ljXoDyibbkkhLm7naK8CGunxefAC2lxToxuOs6HoSqmIELPOcYB/gVbiFpOUSnVuJdNcN+1zd5bnVjdOzR55ZnQAe4OQhW5fAc1qAwipI6kNQYM+xuYNDgAsDDK0Fa4hU0IGhag9gc+Wy2WGmooBMbh7YG7ZurrYqDM+ecbrI9tusKpEt7uKTeo1GxTddFyLpRUX+eFWmpGigF9EewRsTbkWC7yRzq9V6skwHUXZG2qUEa4Dy3ScgWBApamioqCLrulsddz6j3IJWZZR7zXtkfVwcM3Q1nT9pmuXMptBTijC19qOh0my6ssX5y6srT9x4sgTyUQQ4Q8JLFouGCC/omamm5qKaEQEsMbhTuKwonMchBZgcNoUOOxmvrKeL2Y2UiJ9IBREchC/Y2J53dpoNodlKRoMEOK5FNkZSRNCNxgKe30rLH2m2Zjn3JRXggS1uQkTwysm8A8O9I2EQ2dvLW5sbmZpLtUDwwdaoCjX8fOQSsHQtYZjI6+1ixZoaiNfHuwJ43uINxBt3DnJ+0a8PnhuDcmzWa0eHu31trbGYZznLfOrr751fnPz4QMjjyWTPix1C1sFsorN6TnoiJqOCAVbvwCpkPmDKwgJCB+01wFCy25Ua3MoF7IYvywNDvZ2wERAaqVmMxIOgMe8UPvEmhEthbQcYn1ERwhts0r9tRvXQoKIur5dk8FHOCqDPi9/ZGqxUDu/sM661mAyTnLDxBAy4UBIVzT46dBNZFQ7j0y+0CwVpibH21+3KQKiyAwT88pRjwSjitAevwJ5/x8vnrmdzoyeOv7Y7LSfGFay1HC3sLExW6uvmxaXh7rF+mLpoeRhkVvzBxfgBT+rSVM/TOdyGxuUSz8W5mbHRmIoTd8aECTw3K1bQqzn8eF+VEwg1AUh4PYWGRpPaqia9oqqfuvKXLWS/bWZEz8RChL/bM8BKevl+WQyOsKjuLOMKkwqHI61/GZEmW65UrMdYDO7iIiI6uTE6MU7K+/euH188gDU2a6G2wXmmO47TeWPXjl7s1A5fezo56YmgBti/KCRimSqpqc1jbeMaS/qnxxgGGRqUBCk4pz0SHgboT5SQFcXlnOrq30+30eOz5yemcHTFog3u3WANbARZXl+4cyFy6uVpomaddwIj8hyUB9Ubqpvvv3O5uLik/3D948dAPq+dd/u/2gRjmIf9gAgeRz0OaoC/8thWCS1LE1H/m73DZBaqHCGHR8ZhDO9nM7AAW1x8vaF7ZkgOnvtzfNr6c2PHjvy8dOzMrQxtjTaDkiQzReqlUqYYScS8aFQkD5frHE8YGdiiB3APXCxLTNTKF5ZWK3ZRjiVwi7kEZ+MXON2J11n6B7JknPpwivvXTsWFB86dUyQ/Suumy5X//aFMyvrKx9/+rFfPjYTFckTQj7MAcCuYlkZFFE77tes5vkXX/y3z33i/nC4+3asGAw0gmYkJEGCxWy+XqscHh+NtMrXuq+Edji7llmxmUN+EoUh8YenFBTqTZOhAauERDGBb1v4MP12TcFWOvh/InbwUwC/7Ktzt5fn53sD4v1T4w9NjGD7FnqEbu3mhV1TwqCx4/Mrr7xZUtSHH3vkok/4zmtvVS/feerg4G889WA0GNzmol137vcRxMV46k3lBV19+fvf+efPPH8kEu2eHghA9nUCj27FpoDkF+vNfDZzZHgw4UFh6I4DwAI4SjM0PF0AaX1FN1FqmAygjA07aLbDKPrFfLGumQ0g0RLye9Sb775XWc9Mj088dXJmPIL9jCjKdSpNBUAIQHfksZCGaPNGm/fafbYtHHywl969dvnmrbcjkbWNjccisV95/rkZz27x3jHMrQ+YPIaLKNBybDyopq1NrlhmqVaZiZCy7g4h0Be4F2IIcw9CQEZ0l65xTKlc3cxlZ4eG8HyavWAM2scLLg9cW0wKkQiOzvKQ8X8pn12pqivZUsgv9gRD1aW1h3wiNmK0C7xwMwDSIrwsVQeZsEXFL3JhgQVJAnADW011mkPToNc3X339f1bqgUDgDw8f6E/2tnp8vzcMAi+4vcvN+pJDqaYx6/dNeuS9k2m3QubTEmTgFAa2OSBYAYOg/pSlF1RFqZRnk8mxH7GMCPJFLxFgDt2T5yQAGRdsqo8lbg80G7pUbDuvqBRqBlGIaFh4gg72DSPtAr4CdyB9SDK7uhFkGcDqGCimBLE8U6j4vN7THrja2yu5lxgk19Z6ikTF0Ou6WdG1JgmdzWGf91godC9CADpHGgHsQ1A14IwujcgIFZI65SgMtwb9xzKPd7l8e/vt/gYqqaCaS+UKN4yvsaZEXlpHi+/bq9Ta72IyHLZykdpiF2XeqHJvaXhYeR05ErguhnXu/KVhnnnq5CxAfbSECXw0Fmo3ttXo3bZxLw7MQTfJMxwapoXQRkGQ7hFpQYz6gxGKxk4DZGLaV969resfvoflh8IDdAKEBkA0tAkYHtoNXyLhYXOc+UFFrGgE48SCKZa9Vqmu1BpVQDldvWyf4jo8FaaGZyihxpuYaDwJBCtBvFGUrmEHNdAfDBYW7tKlub85c3GKt6bHR9qbG7Zb2XOGESi6jiw+pgraOqIYZLkA9rRjCghSXbuBuVGos+gy0TsbgYmHZUXyqrUpDAIPvYkkBHFkIS8oONYMI+6FEni/A7OD45iuNlbypTz0Ecqu6NbDdnbdBH6GPihg44BDScSlIyQHFXAZhkjQ3tbHOsvMZfNfOPdOwFY+8fRj/aG7XNDdGmaOF2gPKdBRjoDkCsN5BRFbAYD1IAxD9gCVPnjhGlLFQR4FRBy+ex1I4TctC9XCuIZjiegh8wibpZFIF+4fQlzTs9ul2NEYbqk51HKhvFEoc0hoefBUKgpI4j4cAWNZBdhoM3hWFUkgg+hYCFIiBOUIMoBDYE6ZuZWVL37nJcSdv/rckx85ebS7pKgzEZyo4CxDx/ojkBHJwy1IK6gwgIgjjoGcY2sSalEItyOrgiRMi/F2jL3rA9AdVHBbLqmnhzhj1wtuIORo3a6TUlcH8kkW7R4HPK+l9WzGNFgZ+5F5YH2otyJlw7uuhwAUNGTxKI+A6jGeIP1wtNABEQvE1y7n2hmWubK5+btvnueU5j+Znf7E0UP+nV5jCTch8kNBF6lOZOG3kKR26yFEoKpB9ksAg6eRjII/DsRccxk8LqeBLXQWAVz3ggjtQYJGVQNkxcxtOIgQUloEpkNQDzw5CCq/gsViWKkr4uyeHehVNJxMpVZz8KAeEfUReNCLQTswqGhhByEI26BoTEF9NGrUsIOBZMVItonUmCC4xuVs2tL+8ub8ufMXUCz67BOPfmZ6KubZIZNY3puZDNTHdDwmeTzwCABPoOVWQIdIhCh87AfA2umowoHhaOXp4UGUGCbHYjOFMbRfDgHMBd0MjwYbd+BdwxfG3kuob5SsAunE7SgpKrouohIUH3bPH+foHa5Upd4oq8RhhS8EaAWSD2BdxyxZ8nidbUKgJ3hdZV2Hxy0I+B1MS3JJCFRRL0VUA+OWLf3vr8997fbtcCz224dnjw70JffsyIMaDEZjc8tLoq4eGhjCjlewH6iAo5WGIOoQvA16oUwZKwlN2TDNlVrtaq2eZZkJbHnj9/FEMbyaZTZUDW4b1h3KCyCUZhqMw6HSo4FUvuOWTTtKM3hwXLdoQHbqTQ0oKarFKTIVUjIPcYA+Qh26qbs20JnuR3qhIKxICghZXhKwoYcUkMFbITggKExLNLtAW9+6Pf/fV+78jE199vHHTwRD3f11FgFfHhLF/uGRLy7egN97qicBuAVKBUJHio9ADgclJAyIvsLYm7p1tlxbq5Rilo0a3M8EI4eTPV5AQ53mtk6gTUu6hQw8NBbclya0JZ7rBpMu0HAfapSLeDcL0MhlQq1IFITDSHBXsakBfwagDS2s41FQWADyRChsWiJ6BfszYHotSiQcgXugEcE5WCnRI0ASQALyJSmzbNkVnsU2hDM3b7185rXRkcGfe/bpofYDCbdGues/phEQxdPDk7dvzq3zwkAk2tK2RA/aNFtpNLONxvLa+rvZTF4z+P7U/Ycmj0bDR2gq0fJ/91IBg9ER0apkkyM4BpPRDKwo7DcmY5miQJir9UgnZD7bZZoQwKqi3MauSsvBQydBt5b64S3GRt0QeQ4USW6SzWwGtAT8RTQNCpWxD9NEfYQHyATkB6VG0Axg5hYvuHfU5kvvvvent+eHexL/YfzQsfelQpsomMxJ2SMNDJzJZZ8SxLAsY6/7arGykim9/c789c2NQDSCJ6I8OTH60HBfjw97S97vwKygGlBVh+p84JR4OlQDvgNeSOsARGHZGkd0BKQMcXabjoA6rxSK/yqTQ4YBqeyEzWB/eq9N4TlEQdNBDZxDnloAtkFlGI1tGngGFfBPDYxK8GoB6CSRZMIPxJ4Tt+FOtf53V66+fOniiUjok9giOzK8r0TsnQcuG4n2FJvKhTsrBiOuAI1bWClvrA/EEp86NTM1c2gIzwbcAu/23t75BmOB1cTjfUrQdKaNXTjwmupQPMA+EF7BMYOnI6JEygq7to++i/7g38FE4lcDQeRHGpWqUqkppUa9VAEeZTVUbFMH/svKXjPgsyXelkR6AxWbeEKUiNo4yBEYDbViED/sDKMtkZ/P5P7b379gKPVHH3vgMwcn+kLhdtzWGeUHnkDVo2T9zbl5mpeno5GhiNwb8INX2tSE3YIfBbaEosfQ8eW+VEYh6ma1klfgZ2D3E2QaZVEE0HOQamA5FCY5KGlEDMBQI6LQvwc6gapGqQVKypBAQi5JISGTm3cpPAsx71rYeFu2THq+UAMNEEGRCB97m0hHpJQESZNbpeoXfvjmlWz+V04f/fSJ2XArlPjAme+9oC3SqO/B4ElmtuuKgmmjgMzjOEORyEiIJB/vdcDdwnzIr623FsGAI5GgDqzduQsE3atiOr92TtAGecG1bZszbDlC9SECSSINreo7kl7GznZJfFtXv/X620uLy7/59CPP3TeLZ311WvlRT2DtEI/tugvjwEaXs6r6+0trerUZ8EgJb2A45J8d6J8OSIOtWAIQCzRiu2NQ8B7sQrjpRz3utkV6gYgROnKSAMVB3FtwHCFHy8PdzJf++tLldCZz9NCh547u8zCcH7Xjfa8va9rrN2/lgkHd5W6VKk6xkVy2zl6ZS9jWIYkdSSaP9sYGkyk8VwDxfts5aC99+33fNv/BX9KfvXnnvqAPGwjHGE6CN+nYL+nGy+9cLWRzj6dinzs8NdIqBfkHd7DvjWAHJNn/da44f+3WGGqUsQQMU1abgOfypVKlXGcbeD6C7WkaYIfJob7eA8ODfdG4yMQ9IkoKw+Bh4vH/fx3gtXYJMqwkecrl7127XtjINOr1qDcUikcpr+/tbE6p1j85kHp8auwgx6I45/2lDgP6Uce0SVFXNzb+YH55MtrTj+wi7gfrw3VFcpGD9+ziOczNRkMrVKvlEjYgVClbt3XG40mkYvFopCcaBugYDvp7PZ4IS3YwIksMAXkfRY6AAtSHboaLhfwzNoaZhgrLwMBwYhMK6j4bprGgaJv1+mtN+9LC0obtjIT8H58a+WzQjydbY4TpCpK4rizhib0kNER7oCUJQRFIggTQf5gJkMwPvURo40Vk315+lesdQRomagLywvLCFSL+K4G9WBePn4FexbLDndEMq0bTgHDWVH2+XlnGEyIM1UdZfonrRwUjy90Xi0+Hw/09PQn4Qa16/V2sAnux1mjg+RDI6SEUNnkPK2IPKPaM8zHbDgqCH8/EgNXBxHAg8GgYxp1MJuL19sWibeWGn97b2HhpNd03M/UgQlDDBi6GnWQOS2uIRwAKu07NsvDI2cFgoJe+m9rcNY7uj2gQG2v+xbUbFYo5jeCR7GBFIIN3pNTwZG0b2B+e/AaEGCYGJ3ffOeRzXQaADsjNYxWtW/XyRjZ7sVbKNGp5kS2j/plh/IHgzw4M/1LfULQrAkKR4Gu3F/9ruYbHQAzyIqBd7KvB86uxq521XZT5+VC2z/H/D4ftkEKBZWeNAAAAAElFTkSuQmCC;" vertex="1" parent="1">
                    <mxGeometry x="560" y="160" width="39.11" height="40" as="geometry"/>
                </mxCell>
                <mxCell id="-cxyng2Q86wyNeK6CYTB-8" value="" style="edgeStyle=none;html=1;exitX=0;exitY=0.75;exitDx=0;exitDy=0;entryX=1;entryY=0.75;entryDx=0;entryDy=0;" edge="1" parent="1" source="BhMLg7fyJHVAn3xImd9E-2" target="BhMLg7fyJHVAn3xImd9E-1">
                    <mxGeometry relative="1" as="geometry">
                        <mxPoint x="320" y="190" as="sourcePoint"/>
                        <mxPoint x="200" y="190" as="targetPoint"/>
                    </mxGeometry>
                </mxCell>
                <mxCell id="-cxyng2Q86wyNeK6CYTB-9" value="计算" style="edgeLabel;html=1;align=center;verticalAlign=middle;resizable=0;points=[];" vertex="1" connectable="0" parent="-cxyng2Q86wyNeK6CYTB-8">
                    <mxGeometry x="-0.6" relative="1" as="geometry">
                        <mxPoint x="-3" y="10" as="offset"/>
                    </mxGeometry>
                </mxCell>
                <mxCell id="BhMLg7fyJHVAn3xImd9E-10" value="" style="shape=sumEllipse;perimeter=ellipsePerimeter;whiteSpace=wrap;html=1;backgroundOutline=1;" vertex="1" parent="1">
                    <mxGeometry x="250" y="180" width="20" height="20" as="geometry"/>
                </mxCell>
                <mxCell id="-cxyng2Q86wyNeK6CYTB-10" value="" style="endArrow=classic;html=1;entryX=0;entryY=0.25;entryDx=0;entryDy=0;exitX=1;exitY=0.25;exitDx=0;exitDy=0;" edge="1" parent="1" source="-cxyng2Q86wyNeK6CYTB-12" target="-cxyng2Q86wyNeK6CYTB-7">
                    <mxGeometry width="50" height="50" relative="1" as="geometry">
                        <mxPoint x="430" y="280" as="sourcePoint"/>
                        <mxPoint x="480" y="230" as="targetPoint"/>
                    </mxGeometry>
                </mxCell>
                <mxCell id="-cxyng2Q86wyNeK6CYTB-13" value="打碎" style="edgeLabel;html=1;align=center;verticalAlign=middle;resizable=0;points=[];" vertex="1" connectable="0" parent="-cxyng2Q86wyNeK6CYTB-10">
                    <mxGeometry x="0.3333" y="3" relative="1" as="geometry">
                        <mxPoint x="-61" y="-7" as="offset"/>
                    </mxGeometry>
                </mxCell>
                <mxCell id="-cxyng2Q86wyNeK6CYTB-15" value="" style="shape=sumEllipse;perimeter=ellipsePerimeter;whiteSpace=wrap;html=1;backgroundOutline=1;" vertex="1" parent="1">
                    <mxGeometry x="490" y="180" width="20" height="20" as="geometry"/>
                </mxCell>
                <mxCell id="-cxyng2Q86wyNeK6CYTB-19" value="" style="endArrow=none;html=1;dashed=1;" edge="1" parent="1">
                    <mxGeometry width="50" height="50" relative="1" as="geometry">
                        <mxPoint x="380" y="200" as="sourcePoint"/>
                        <mxPoint x="380" y="160" as="targetPoint"/>
                    </mxGeometry>
                </mxCell>
                <mxCell id="-cxyng2Q86wyNeK6CYTB-21" value="" style="rounded=1;whiteSpace=wrap;html=1;" vertex="1" parent="1">
                    <mxGeometry x="160" y="320" width="200" height="60" as="geometry"/>
                </mxCell>
                <mxCell id="-cxyng2Q86wyNeK6CYTB-23" value="私钥1" style="rounded=0;whiteSpace=wrap;html=1;fillColor=#CCCCCC;" vertex="1" parent="1">
                    <mxGeometry x="170" y="330" width="40" height="40" as="geometry"/>
                </mxCell>
                <mxCell id="-cxyng2Q86wyNeK6CYTB-24" value="私钥2" style="rounded=0;whiteSpace=wrap;html=1;fillColor=#CCCCCC;" vertex="1" parent="1">
                    <mxGeometry x="210" y="330" width="40" height="40" as="geometry"/>
                </mxCell>
                <mxCell id="-cxyng2Q86wyNeK6CYTB-25" value="私钥3" style="rounded=0;whiteSpace=wrap;html=1;fillColor=#CCCCCC;" vertex="1" parent="1">
                    <mxGeometry x="250" y="330" width="40" height="40" as="geometry"/>
                </mxCell>
                <mxCell id="-cxyng2Q86wyNeK6CYTB-26" value="" style="shape=image;verticalLabelPosition=bottom;labelBackgroundColor=default;verticalAlign=top;aspect=fixed;imageAspect=0;image=data:image/png,iVBORw0KGgoAAAANSUhEUgAAAIIAAABmCAIAAACItN4+AAAAAXNSR0IArs4c6QAAAERlWElmTU0AKgAAAAgAAYdpAAQAAAABAAAAGgAAAAAAA6ABAAMAAAABAAEAAKACAAQAAAABAAAAgqADAAQAAAABAAAAZgAAAAA7JqbPAAAy2UlEQVR4Ae2dB2CU5d3Ak1u5u+T2XfYkg4S9wwZFBRw4qqiIfq5+Wvv162f71dbdr63bira1WqrWUa2jilpBVIbInmEmQAhkDzIvl9u53Pd73heOABEIBLStL3C8977P/O////k/z0WHw+Go766eIBCOEn+Ov6Kjo49/eIZPVGdY/1+0uiBOAe6eAM67PsfEd2g4lpAkDAgccNPV1RUKhfiQscJDlUqlVCqPrXPG379Dw1EgFDiIggeiW1ua3G4P/NAZ6gQbPO/s7AQlKrU6Pj7BaDQfVe2Mv3yHhiMgBNaytGlqamw8WO/z+X388/t5HhMTY7FYtNoYr89bX1er18WCjyihOnoSW0eaPNU7VaTvU63xr1gOXRzuCisUCgC7cNGixYsXq1TqxsZGZ3u7zxt0uVyhkH/48GGzZ1+d3S/L7/cFOztBgySp+gYcqr7BZt8M5ptpBUKkY3DQ0eH665tv3XPfI7fdPNvqsCWkJimVCiGIVCpFOPrV199od7ruve9nRkMcT6jSh4paJSyCb2b634peI8KgrKzs+eefX/7lynt+9oPYuFied4W6/AG/yWjSxMTU1tQOHDjI2dziam9PTIiX0dCHEwCrfSbg+nBY56ApgQBB0NE+n3flypWPPfaU0Wy+fu514onXh2ZWKpQOh93V7tq4boMt3mF32NVR0XFcBmMf8oE8039TFY0lKjRBVFR5efl7773355deu/jii9KzMoKdiP1O3hoMRgC+d8/emsqqvLw8i8O6fPmK0UOHOxwOnU7f51Tyb4cGmABdAA68Xu+q1auef/4Fty94481zY2N1wWAAJOAW2O0Or9e3dOlSo8E4dMQwRFB7a1tjbcvwWwZYbTaFAr+hj0XIvxcahCASV1RlZeVbb/1t/kt/nXnJ+Vn9svAMUAOdwVBsrJ6rYn95SXHJgMED7XabP+iP6oyqqqweMCA7v2CQViuzQh/r038jS+mwIAqvWLHiySefiopS3nr7HJ0eJgjyCgxZbVa/z7v6q5XQe+GEsWq12uP18txkNe3avednP/mflOS0PtcKsnxDPvYxYvtcbp55g4BSxoHb7XrxxfnXzr0zL7/gwunTcMr8/gDKQK3WxMfH19bUfPHF8sSkZASRQhHt9XiJXOTk9Gtsapo0buzMGTM0Gg1Nnfl4jm8hmvGdJQwf39k38kQGHHOsqa158sknN27afvGlM3R6LZqAcBF+m8FoVCoUmzdsanV2jBg1VK/X4TkTuLCYLYio9RvWrVm95e9/e71/fv/D/NT38xDWwr/whbABAVxbt2295ebbm5rbrp59hSZGJXDQGVIpVUj/9tbWjxf8I0arnTCxUIQrPF7KJyQkOJ0tTz89L79f/y+XLDqrOAD+/8oqWiZeuOHTTz/90Y//9/JZF6dlpcsxIojdEBcXo9EUFW0vL9s/euwoi9UaCPjREyaTSafVr1j2pd/nf/0vr4waOQIw0Yhs4J4lkv0XE0pCAkHLAOuwMuh47bXXfvvM8zfedJ3JYiZYJ/FHlNVqaXe5VixbYTVbBw4ZKGtjQhe4BW2trW+88d4Pbr957o1zDYa4SFNnCQFys9Eor29DOCMiwftktrQGMpqamh555PEt27deMnOGUq0KBNHGIZ1OazQYykr3r1+3YcSo4WmpKcGukMfjNZkMVot148bNtZU19933i1GjRsoIoB2uPhnVCRr5VqBBhtoJRnmCVzL+KACwnE5nZ2fAZrPzrbik5L77H9THxY0aNRwR1NkprFKzyRIOh9avXtvW7h49dnRcXCzhUiylhPgE/OcPFyyYfsH0799+m9ls7luyOMH45VcIJQjnpMXOVgFptoLakMtAxGAw0dOpY6V7SaeztaampivUmZCQGOgMzZr1vfHjC3Py87xeNxYRroDFYmxqaFy2dGVWTlZ+fh6GOrEjtUaTlJS0b1/pupUb77vvnvPOm8IAiKqejSW2EwARFd3HfvkJOjvmVQSIRJjr6moCgYDdbo+PT4yOVkReHVOl21exJhZRmytWfNVQX1dYOIpGXC5nS2u72WJOSUkGtYFA0GAwaLW6bVu3l5bsHTdutC3BwXIO/IGZpI2JWbjw08yU1Ndffwl80D5Mc45xQKffjKUElEG+Ijoa4i0pKa6prc3JzsZuYdULpkhKSkVnngATUm0RF/J4PB8s+IBpPPrY03abvaGh/sILp4W6QmvWrHEkOELQdRBYO+C0TxctJg5x/kW4bBq3261RxySmJhw82PD2Pxb/z4/+a9blswgcgQAYM4Labig/67ffgKUUgS9rjcuWLZ33zO/WrV87f/6L5009T/iuXneMVpecnEZsRwb3MRoyUv3Agf3z5/950WdfAaTZ11yqVqmXLvsyNycHg6exrXngAOwfpcloRlKtWLFyyNDBmRnphK8D/gAmqUalWv7VSlVY+eAD9+YX5NMCODgHCJBnJGO1+7yiu8JdPeeBnAUKiIAV4btl8+aXX37pT/P/PGTQULvNtmzFsnt/fu+cG66Li9ND40qlOjklhWhzj6NAkaxeterxx5+OM8QVThgnypBH0RVm5bKyslqpUiQlJULdGrV6e9G26urqUYWjjSYT6wqUi7fZWMOZ9/uXH/3VvTfddGNcbKzMBN2B0mOnp/9QmvaJ2xdpIKffQW9qSqJcGAPYkR+8//4dd96JSJxx0YWoSlSoRq1a+OnCa2fPvvsndyclOsiKQKmaJIsFnAmtLdlCMdoYt9v70Yf/ePGVl2dedGF6epo/GKBNklhomqkCffARo1V7Ojzr1m6y2iyDhwxUKlUdHR0IOnTPyq9W7Skumzfv8TFjRouKfa2NBTQlkB4Pd/rqDAakNIMABKTXx0plRY1zhIYIyxcVFT35xBNvv/PO+LETsQsJL4cJ7HApFARzPln48eiRIx5/4vHc3JwgZibJKdIamfQ+GqG/q3jPggUfooRHFY4l/IBCls085syFD4xogvAryst3bds5dNjQpNTkvaWlbW3tYwtHoxU++uDjkSOG//CHd9lsNqDVXcmLMZz+dYiYGUP3NpiAsJSBPaKQwQUCnUFWNFBVAYjMbLGgt4gqUuVcoEHGATHk99//4Ia5c+NiTBOnjg91diGppUELOlaEue/SGSybd1ZZLeYf/uAmnz/U0eGlLkTOQllcrB5d8tj/vT/rmiGjxxRo1AoFi8WoeAmJ0QqBA4QY3LBz584Op2fQkAEqtXLV6nWx6pi8vNzlK1buKT3w3G8fnT37GjqNkEV3qPX2Xob98aCHOBhMkAUMEBCE0ki08bo6PE1NLa2trXl5OUmJiYEgXBHQxujsDofZbDm7aIgMtLa29tl5zz719FMTJ0wCWH6vTywEQwRgIKqLvJSQ0uQO65xeRaze3BUbuzWgMVpN8bF6HcSijIYzPF5/OOjvpw56nO3O1uYshy433Zro0Gm1wthj3kaTxefxbt26DUpHWEGA69ZvGDF4CKubSUkptTV1uAjDhg09UxwgcI4meRqE6CXL2AfwcQYF7P1+t7ujpaW1/mBDXR2ZTQcbDjbiQMIZXcGumTPOHz+20Gg0ejz4NCHY9yxaShGK27q16K4f3LV23bqLZ1xCOEFIEoXgACagjOoKK/Wurri2oF5jtsanpxniEw1GE2Z+tOJYYxot7GOZMhDwtbc21tZWlFckKIND8yy0U5CTAMGVl1USvMM3Bhzg+J33Pnz8Vw8VFOR1uFwFAwZFWP8Y+qU6lyTPJTF9GMpCHkoplLw9rgpJfExEUDqfgvQF2fs6XB1ovpraOiwFPuEArT7OZjfbbKg5c2xsrFarqamue/Xld0cOHzRnzlU5uSz8KeCVs4WGCA4WLVp0ySWX5GTm5g8sIIaMHMFdEPMKh9AHPqWt0a/TGuxJeXnWlDS1Xo83iajhU4KL8C0FFKRPccOlQEaJB0GPu7G6onT3Pu4tQXf/LN2oIRnhrk4WcrBZCWITPc3rl3nttdcY4gyJSUmIY7kFPiPXYX7lQaQTYRAcB3chxxD0BKag9GDQJ8t7IEjyUmNjc01NbXlFdUVlldtHNMWYnJxgT7DjNqold4RqLOR5PVBRkMGbTebm5pa/vfHBbbfOmTHjAnBzVmJKMg74fPXVV2+77bbJE6fExsUhC6W5IoiEJohWxrRFJzR36jLy8pJy8zWxBsqTuCsAJPAkCS3x5ZgrQrVRCjJYkFdeDyVqy/ZW7S4dlRU3pL9Dowq3uz0WiylWH/vC7+f//e9v9+uXdUys4DD0j4Aeaw2a5i/mMrICrwV/ns7gPYhdegUGRC4l4GxpdTYebAT0wL2qps4bAPSW1FRkfqLRBOjV8ImrAzfRDdIQO4wQpcUliwGmiRuP5bZ06ZqrL5927fXXwfhHhnLMjE/vq4wDCP+Zec888MADM6ZfzDj4KjtHMg7CqrjGrviAOm5I4QhTShZAQaBKpB4ZTOTmmFFIIkN6CdJItVZodJTIGDjcHp+8bt3auubySSOT0lIStTr9Z58u/s//vFXgAKxKeI2QuUzsDBUJCaD5J8SKoHRPVLSyMwRyO5DyLILKQh97t7m5raG+sbq6lr8NjY2wqclqTkxMmJyXbQD0ajVWENKvtrrGixoLh3mi1qhJNcOA7hLB3S5PwIetocGD18ZY7FbGFKfDfMi3We2nH9qTCYoZHgIMlBMdDcQJyLS3tz/00EPPPffc5Zde3uHxsM51GAdRinBXlEp3MJQQFefoP64w1mIjH4IBHS8EjgG/9DXSp/TtkJKX5FY4SqVWdQW8O9dt0LoaLpuet3fb5ikTp0yeMikxMUm20OUGaUKo0KBPkDbgR7wjWFwIloM1NfV79uwbOnTwpEnjIVismsbmJkBfUVFVXVXrdLk0Oo3VbiVvDFsO6wHqxqh2u9xOZzscBBpjNDH6WB3ABw6sbaA4wqEQmNDqdQSvuBgkoIB+lCrVV1+uTk9J+PGPfmSzO3qtG2RI9Ag1XvG8ubn5f//3Z6+++pcrZl1JEi60ICNKhhYCuiWcEIpLGjh+gsZoCQWCYaErvo72D+FC6pTGJbUgoR2kS+v8UJpoWEr9ikZIqcOdFTu3L5u/+I23bpk2dWxLixPfLT0jC9KEriWxAnR8CGrSIBubmiHtA/vLK6pqPP6A0RDbLzurYn9FRnqqVqcrLt7jD4R0cdr4eHt8gt1kMgJKjDsYx+sW2tjn8Xn9PqZMYU2MRhEVDQPRcjAYInmAcIA+Vs9zWApaxUlB7vGHMlqttsPl/viDT//w+ycHDx4Mo/YODTKgZdjQqmBjiZfxUviDf9TmhA9++eabfwUH7c522SqVygMsVGSnMzrRpU0YNHmK3miltiL6WHPoEOCP/EefYUAJiOkF+c08QIBKqYDlFaRKSIq3E8fIH2T/h1AYiuh9W7bonHUP3f291CQ70hxBT3UkNUMiT7u2vr68vLK8vLrD6zGZjYmJ8Sy64dYCL/4ionYWl8QajQkOG1nDkDDaDFHu6uhwd3QI9RzsRM0q2W6CrI8iOolk82EnYRWQ6BdrMED6tMOwBdy58BIlAlWrVYQvwQFjnPe7F354+6033DBHnuipokFuiDq0jHnORd+YyKIP0QuQUjLDBx548PMvlsy67Ir2NiczjwBT4ohASGmuD8YXTJ1iSkwP+YMyDUPW/BHSuweeEOwlFs48Hldjvd/bocTCUmgwhJRKXoU1SoVGH0PlOIsjWmtyd/hAkkqtUEeHP/p02RCd/6n7bojVqtClVdU1KFOsSLfHq42NhcDtditAAzR0LKgI4Y3AjEJ2awg0RSu6EPGudrfLRW69D99GpSGXXgVnM2NKQ0PYrMxar9fqSfnT4eGw40H4EKIpKTQAquBCqFNUBJd+X1sLPk/rhg1Fo0YOu+/en1NLBuzJ0UA5WgccIMCDDnK1o6+Q/hA+FySGN8gyCwy7csWKRR8tHj9pLLLyaBwIZ51wT43PljJsfOqAIUIhA3QaFRfcjGBCLtGRkDXSvahBnCgcCjRXlnlaW00OR6zJrtBqoUNRAo6AzqAFdzvD8zfVx5n09qzcQJfG63EDsOhQcMGChRf106fbw8TPDaY4ssEsZhPZ2gJeYQF6QalENiFtBZQtS+0QaZNM0ed24zOqcXN1gnhBE3zg9XjoFh1Lkhl/iQQTCmPc0KIAvYhrRSP9KQAu4Ra68GBWNbfU19RVVdVGR6kyM9MKCvLz8/vjSIIDKZoiBPJJDFYZV0AHn7CutqayoqLsQFVp2b7KunrkIhFNjS4GhEMMu3btWvXF5zNmXOzx+iTPgMYPXUBXqYjqCMUFzAUFU6ZGKzU8YeI0C5Sj/J6wp6XL4+7yudCxsBYaIEqjVejNKr2hqaZKa3JYMnIBFdR3KAAlqRKhUQQSBZVg1Tvraluq9uUOGxZtcLhdXo1W42+uf+evn9w8I2vSqEw0CM4G8JIv6iGBQIDQMSFWJYgt+IWaDQSQNQgiJgVsAD2EB+Fj8cA6cbGAXgvGBBahAhApLVGADNQwAodmUfoQ6EEUfmVt88Fm9ENOThag798/Ly0t3WIxi5al6zBsxZcT7W9gxKh1eivbX7ph4+aNG4v2VtSSPpKekjJi+DA6gNfETLrCKCKbxVS/r4xpHI8DBoev7AwacwoKlBoNbpuo017f1VzlrS/1N5Z3ulqxElUxKLpYSarC1+QRBYNEZVSxUWnDvMH2GHuKwmBny0c0kSh4XigVQIjik9AQHWVJy9RZbDvXfZU3YpjemuJ1e7X25POmDt20q3RQTpLRoPR1Cs+R0qCOthGtgJEBRxO1QtMolRA+aWShgMgQaAsgVBUImwQCJjod4oWKXcTBhAeHWo7CL9PjFGu1gIglPhb8iqvqDhwod7V1xMfbCgoKLr/00uzs7JSUZPxnICCDnk+gLyOg+8OehRLlqEC5lpaWz5d8vuAfi73BUF5uZmpSMsm2ECx6T9h7IvGNgZF3pXS2tX3xyUKrzQGVUeBwtzTEdKJa2qOj00fmTz5fiTHXUhOs2u6t2Olvr421JTmSUmx2uxTAiAEHkocsRA6RSXrocLW31Nc21de2e0Oa5MGx2UO0luSwWkevYKH7TCAaZAHQ3bt6+eAJ40Jai7BL/B0ffbDweyMck0ZnMFIhCfmnEDsYoHSomG6wl0UUFN0f6mSsMRoMH/EXspVYJUL1uGBQkbA7EVPgz9XeVltbV1ZWgYBOSUoeOHDAgAEFWVmZpJrhP9NR5GJsMuhlwz3yPHLTAxpkJqDEjp07nv/jn8oq68aNG5WY6ICIoSB3hwcUAAVhGzGzoCAockyY1aZVqxOsVmYhBK40YaaBhYqBV+s25Uy/LiE5ybdntad0TdDXkZCZndkvGz2JRS2MG0HbEqlIQ5OgBQmJ/yWsB1qamyr3lxEuiDalmwZOUif0w3VDnhzBBDHCUAjXCGXetHdn7sTz2Cyi1iird2zdv2PnndcOtxpisChkukQZNzc1IxMZnlItFClOlRp5rlJG49tI1qVQHJLpwTvEPSOB9Dra3fW19RVVtQGfPz0luWCAkPQZGWmO+Hj0hTT2Qx8R0DPCI4PsXqLb/bFoiODgk08W3v/rR3B/BuTnIULanE48YRwfr9+PI4N6xlaFKUnvsZjMeq2OJJ+dO7Z/8elnufn94VsIlV6ALBBub+9w2cYMGT00XLGpdd/6+H4D4NmEBDtaEYTJw+02pGNvmQPCBFQhh8nlqjhQVl68XZk+3jRoakhr6OoUyz68l6sBQeR4+baNZqvBnN4fW6DT3fH2u4vump42vCCR3O1D4oHIFSiEiyWPQ9TlCchhxGLgSLswyhaZA6m5nB11NXX79x+A5tLSUgTVFxRkZGSQUQBniNKHL9DGxTcJ8lJDh1+d+P+j0CDjAO586ZVXn3p+/h03z7FarUT5nW3IFARUa2VNLeHZYQX5AwcWZDIOmx1zW8hHadmrtLQ0Ly/vogunY8VLaJAkUlSwwRNnS86yhKoxtAaPGpWTk6GN0SIGGLGkZk88QuktbCVFIyRqVTY1N2/ftL65PWyfcFWXOZUSYUKqYtZIszBlvO1t1cVF2aMnYbkoo0JFX32VqGi/YnoBEXUBpQh8RLPSN4nvEHKCDSQBgo2JQUiU1OtyY7/m5uQOHjQwMyvTZrPLnCEPmua4ZGKXP+Xnvf08YinJOEBmPv3svE+Xf3nD1d+DxKqrqxkXtvbOkr0jh+TPuPDCQYMGxTvi5Rjn8Z3df//9jz766GUXX4ZViwAFGeHOgFJn0yhIl9OMGTcm3mFlnvD717VwfJvdnzBnIIcMwUQu3rpt964S25SbKKCKzw4F/QxYYAuEhKMObF6TlFugtzgUUV31ZSW7127+rxuG4o2FQhTo3iSY4a/gBGGgIZtihJGKh/zxgoV3fP92xA6ZlpBapA5jAFb0Il+R52dyc8hSknGA2nrit09t2bL95uuvw3rD68Ek3bN3r81mfeSBX4wcOTzCg5QXEOnGfXxF/1z9vatBA7JWJnPgjW9DXpbZYp163mRSqdEj1Do9HMjdQb2YBvhNQ0eOoPGiFX/hueO825T2TAxPQMNIlCq11mD0dDj1VgeWVJzZWukPOTsCZhOmuoh3SsMX4xd8LISPXtiR4bDP68HH4/rDvPnvvvvGtAvOpwwXc5Uqihg7F73Lz/vqUyVIR4IglvVzz/9x4+YtV1x+eXu7q662lv7Wbtxwy/Vzrr7qSgwkMRqAL5Hb12l8ln9hiJdfeGXspLEtza0Y0/CELlZ/0fQLEMJ4330yAXoXdBAdzh+QD3wY2NaVbyZMu01hSMDykWlDozOwICHgF46K0enVsdqODoxgHD5iHgRCNPibwuAGqR7/wdr6Awcqyg9UKrqi+hfkjx057j823jiIaI/kFQvAnwXQd0ehOCVA/s6GyA8+/uTWm+YiE1mzJF60Z8+exx5+aFxhIQUOsSG0cESydm9HKCWZpebMmfPII4/wVVCZJoZ2WNkgZYgopjABD3d3VOXef6F9miIinT+ggNqedmfZxo8dk+dGK2Lwj3mCG+v3SD4FASi12qbXEcUm1mY0GTH5WTFrbmzct//Avn37/e5Abm6/ESOG33D9nMzMDLb9RGiFLiL3vR9jL2oINEBc27fv+OkjT//szpsJkdXVNQC7kuK9zz75KJpARsDXkX/3rgANXzGen5333P/d+5uZV06vKq+87KpLmTlh12NxIMhUEmvg9Whh3b3NE9zLmEBQU2bQiBGNiz50lxbFDRgvVllkniUCBQEJGagKKnD19SiPkuLdZaX7WpqcyYlJw4YNueLSWVmSpd9d+gtWk8Aiz+gEY+irVyKQgh/wwkuvzJl1EXGSqspqqGbbzt1P/vJ+gQMMbUkankp/DFpmiGuvu3bhwoUNtQeHjhiSnZ3Fgh80xcTkRrihpBCyUnCUr/Qiw+1UeulehnbwXnhC+GzI6Ekrly/RpWZHxcUL8dkZJGFMNtjARKpJW7x7f6e7Pjs7Z9pt55Ez4HDEy5I2MiqZ4KSxnetNUCLOvHHT5p27y+bOubK5tYVQ3e69e390201jxxYKeJ0yDuTJyFKbNamf/PTumTNn33jLHBx9ImgRVqBN3AU+ec6yKDPHLGGtnBtM2FPhObmjyCcj5B5vMiEpMTUloXHfVsvwi8Cq3+PWGkwwGthXKaKLGtx3zJ1w/uSRGRlZeMKR6vQr3wP9cyN/Il13vznXaO/e93f3EQhAmFFfLFlaOHoIMrajvaOyqmbsyOFTp0yW3JpDjkmk9KncQFYUa25q/Y//uIrcRbS9TP48pC/Uo9PpKj9QXlNd63V7MG3JK0lITID59PoYgkhEF4Ro7+UlMVl0Vt6AmhVfdeYXRmmN/g6XJSWVpQHBEF2dUV5/UoINBSCLxm9Q/vQ4MwXJ6Ft37E5OTmIlp7WljYyPGRdNQ0r0WPqkD+Xpsevmrb++M27cWJ/PIwxLCTESpPAH61YuX7V501aj3TbuvCkhlSK/oCAzNfWzzz53udx415jnp6ey8VFsdpslVulvrfG6nWgefZyJiChREI/fZ9Z2kTUKQciuD9JPHtVJZ3RuCigaG5uIGTM4AuV4atMmTUhM4Byhk65N9jw82fgpKSkJdHqSk5NZP5GXA8EBfNDY0Lhuxcr2oFppNLPlRh8XW1RWWzhmxDVzbqhyapYsXkTcn6gnbnbPrX/9U2AKBRBvj0/N9FXtbSkrtadnCv3cFVYrFS3O9okpcWaTQRsjeT8yR3x9a+f+jTjBQ6fXo51wm+saWwYNGsiUoKDTGAqwFgGMqKhtRduGDBmEl0TqA3THcz4JP+zaukWXPlydNthh1pC4SVZhpsNidThWrdu6OSa7yzG0ZPt2FpJOQyjRKbBl5Nb4JG/ldpL+DPYEnGpsVcj+QE3TwBybwaBjtfI05nUOqigIprC2S6Cx3dWRkZRit5iJKUqKode9A27qINY2btqUk5NDekhEvIAegqNNze2alLxOZ83AwYMJlLe0uJLirR8uXPvwX5ZePXmcsf+Y/WX7ycYSZhW2zmlc4S4cNL1WZU1KIB9NTkImyFpaWV2Qk2EyGmWJ9K0SR/IsIRYFPj4OFEC0WY3wNWsIyPTTAIJcBSm3b98BRzxn4YgUMRk3ANXldCpirc171/dzRMUnJB9saOgMup1h86ZA4pRLZiEyWMzxKozs9kEkysKtd2MQEkicTahVqzo9Tha4sVXVKmVLc/MIlT83J91w6LjI00Jw74bS69LsKtDDBzhQ7JonNkDwkDbInYInoBqAKMPx1BsmPwN/I4bgQcAvG/W0gGRQa7S11RWJ+s6Bg4a2kzTQ7vK0t5oHjB06fFhMrJEVdaLQrOML4dJ7S0keHjVZvhPLGEEYUfjPLOLs2rNv+tiMvNyMs3QGz6lD5gQlFbhaOpXa1eEiV6elteNgS6smRoueqK6uQmGCiVNHBiXpqamp2WSOZRWLxTm+glfSFGhqf2VlTn728DGjcbXqG5sDnnaPIU9nTSEDHZSzCOZ3temVHo1Wj7snN3WCcff8Sg79i7Q4EU0HHy5n675te8+fOBymJ6BCcmrPFb/ppwrydSaMH1u8ey+ZBwUFOe8v+Ac5CmQGkghTUbGfzcbAUaDisNEpscfXfjCd1tY26YwDkZ+G0kFIsF706dIVhPMnTpwAg1VVV3f6PDX1TmPuGLE+wIopKcEkf+xdn5icgmKgYkSp9Ao+UAEMgbYj7SPM+qdStXzTrse/P37AwDwCKvV11RUV5e3tTtrsLYv3ahinUVhYROdNmfTBouWs6ZM/0+Rse/2Nt9jTYTQaWCavrqoqL9/PAhxxJ0rK+Pi6TzQBZQiHoGDwwkgYIW1gy9ZtS1asyczKLBxXCI0STAZUzU5X7MhZijiL2KvDKoRS4d2zLly/NSuvAKwI4S34qvdXNOmL5AGElWGf0tvaUbnL3rTbYY4p2rIZVkB7w5tMk3Zlqup9B2erhpD+WNz/9+tHlq1efe3VVwHKtRs2dQVDc2dfmZubLXLERTIY6YIkKpKko+UTISPZVgBd8AiKEQmAqEHyoPHfeO3NXSXFF1w0bc3q9QcqK6yO+IKC/iC1taX14MGDaIgdW7easgbmTr68qsHL2Wphb5tr38ZAxcbx512QkpqCfjo9GDERlj/JWFi6eGkAC5lUmIAvJi6WBQb2HxgNlvvuv5vcd60uNjU1/WyB83TbFTnYgLi2ru6y2delJSVPnjwBN4JIw7r1m4YM6j+pcExWZhrbpFB8QnxIEWD6khmC/9C9fEUOQIMgrL3D/dGHnyxZsbpfdhrpnLl52WxzIYTXePAg9isCu7qyOtFmBSE+Elz01oDHpQq0sLaeP2goa3wkbkmYPd3ZSNLG2eaUJyUy8RBM0sfCTxaPG1d4zewrOR4DkwmcnR6yT39kJ6wpEreEMFUodu/e870bb8dmPX/yRGJB0DvxJR4irPOzszLT0x2k1hoN5K2xngP8QQoSAAfN7XEz84amZjZclFdUxMUZUlOTgSw2GKoeVYHlCuK4aWtpKhw5guNkXZy21uYk85HVSnagxBkMDAB26hPQMHK5HWDN3OAL2PS9dz+cNm0yG6HZB3eGmD4hPE/zJTEA6EIsrgGI8sqKJ3/77Ksff3HDJecnJyWZLSbMcI/biw3K1e72kheECQSJsVwg5sg2DbFnuYscH5PBEE/ev82qjyGpJORykefaAXVTjOU8RHOC3TaoIJ9lUdaUpMQUIdMYNdUpT7E+wYHUoFAuhy6RP6AqKdmzeNGyZ+Y9Mn7CBJ1OnDjcV30d7uZM/xehGHlMMiZYLl782Rd/evmNFo97QHY6h/GS+xdH+q1KRchNwAs7VBJNgBDMQXpIZCgOo5+McwgfDuCSFG00CUptbW1Ws4k9aBwFgPaEgYTYxjmIwEpYRadnGZ1s8lLGIDkWr7/2t+kzpt1++21p6Ye0goQJqgs6+DZcR9DAaGRMcMPu0RVfffX5si9L95drdWqb2WYyWjiGhQw7JBKQBwFyeaqAG5IPRSYlObeErf1+smpJcGNZx2o1I83MRhPbAEAAVfqWDAU0JVDSbDfE0o+4eIti2LF919qV63/96IP9svuR+0JaG4uMhxlRMsok9SZX+aY+j0KDPHRGL0MZ73rfvn2kUHIKKemCmN6k0oIGkUzIHzDBBibwwCVgHI0WSbLbszIzijYX8fKGude1NjfxhvcS9fU96QFleREUPoM46CUCR4EDsbXE8+f5b1x++cxbb72JHA6P+GUMBW4NCTtoJO7l8mdpeJHBnPTmWDTIFYAbxCQjgydenw/ZgnvMpl92hCHrid+R/i85B2pyNzGHbCT48c/C0YHWv//9/Xvu+Om8v8yDQxobmmAiMHHSofS2AFhta3MajCJpl6RrQMyA5fCJaIqAK8o5ENy5s7i5qWXq1EkkAMTHO+AbErZ5jRthMSMnu9gzgKzk+FXist8UPnpGgwwRmYrF3HrJtvDQlLEz7vrJLYVjC0mDQHnIDfbtJwPbs7uU1C6axT/ndHlBH36xu0JewoMHKQNmGg4e3Lxxs7vDO2nyeK60tBSeyrMTERd4ujOYkppuMVu/KTQoH3744a+DMs+ZBZNkcPIlw7FbeZhGiJrD74XtRBV+f8UX7Ph04RJMdXIm2BSE9JDr9uEnVgDUbTKxKzaxaMu2Nmcbu9iMBhOqCi6UBy+M8XAXuwc5NsMRb9+8efvbb79HEBeJxOrsqlVrNm3awo5dgjdYUN2PopfnyLy6TbYPx35sUyfihmPLdvvO+KRvDPIQJiIvZUwU7yoeOGjgb37zyMSJY8v270dDsORwvBaN1DrNGxSAtHkGYPMTAAf2V+Tm5ebkZLOBCtxzfgWKTEStJGgKYy/UVV/fsH3bjurqevYxcIzC4gXr3/74ObbiGI0WUmZ6hHuPD09zwF9T7TSJtBuNHKt4ZQYaMHDACy+8+IMf3Pnuu2+TFFRaWiY//5phnO5j6fAeKjOI7Jx+KSkp+/btX/LFsrz+Oewyg1SwMuBVuWsMOYadnMKReokEvmBTTG6Sw8UhNBKu5EHg8xOIxb8kRwJNx9HR8mQpcnbMatHtiYSSPKzT+JTJh8SssrLyLZu3jRk7Wm+IbW1uEX5fX5vqwEiASeBDbOpPTEq02y0kHpSU7OWkZ+LH9AlbgBL0AXMRrk+U2CWGZQVzbN26g02ZiUkJJE1jh7cyypZGdu4Sm8EMcTrb2EOIRCWS1ucj7w7Ys4IG4IJo4piq4cOGPvfEc4GuwIiRI3QxMS2tpO8RCDmWgboP6FTue5QSolOxFVlsDU9KTEA/se8cMUWWCYfrAXSCj1SUOYNidIS9WlxcOnzYQHJYPR5fVWVl8a4SflZg+7ZdHDlFjAsPHH+U5VtORBI2+uHdg6cyyF6VOStoEDOUMAExTpk2+Z7v36vSK4aPGEb4iM10vD1tPSEjAPLk5vh50ikXegI3ApmDjIqN0+8rLedkSziDtWiQgVGECJKRgUFVWVGZnpFOY/zM2HvvLliyZBX7r1pbne+88x7rLkQQbHaQoWZnOmIKc4AqPRLB8YPp1RMprtCrGr0pLI+4pLjk+7fekZiaeNv3byZKzjlIzBDa6k1LQs8CYiDCei1AwbI5vrqMG4qJV9ImKggYa6+psamyUti1WVkEKO2wBRFJirHVDUsJq5dRYWVl5/bjSCx2HxKZIQi2tWhHdVX99BnnT5k60Wa1EYFPT8/U6+P+GdEA+IQJy2GPTz312zdeev/xefehS1v5rcfmVtnDkqEpJG93WYX85s/hixaEyRuOrqurW7d2PY7k1ddcxTkLAPQQ0IXRHIVwF/TODjfJbqZFbmgW5PGW3AAOIQFHmFIclksABluWVRC8DUxevDmZjWR5hVkF/lgz/+Lz5QkJjrvv/m8atzs4t9Iho0EMru/M2XNxAKgMFFYjPvrwo1/89OExE4dffPF0ZDfz57cdeStR8RHAS9QMeA9d+F+4Ag0NDatXb6irbbz/gXvY9b/8y+UzZ07n+BcKSQAhfKTEW/Z4/Pz+CDrC7RHJJQS/gJcMODDEE/bsl5UdQEZlZ/cjbs9b4E5cTC5GgUiD1NLr9EQNPnz/H7959GHYiG3TLBlJoz1STC5PxTO5xIb3o8jwTBr7mrrQMrBGc14z+xr86g/eX/Dz/35oxLjB48YX2h1YMiJQyCXXZjgSI0hR9ACnVriqKqrXrFnr9wbu+OEdl112KTtBDhw48MffzZ8yebIuViuvzgomCAQ3bypqb3MVF+/kcM/U1FTCvTKeQCRIhnVomwRLLryHXTuLOXQnKysLBc4OIahEHkZ3KNM4CAOZ9fV1SC2/dFBSBE+0Frk/Q2QItj3DJmTwnfST6XHJ4K6oqFi5chV7ftet28qJK+lpyQkJ7DYQp1lQRjqaq6Oh/uDOnXtr65qvu27mxRfPJFwByOReGPNDDz5MpuyEieOgVh6ydLRjx66lS5a/+urLKOGnn34G+T916nlmswn4yk51BGSUhyZggrra+urqajzqnNx+bCgXv7on5bwemotEEWzP+vyzpaNHDZ91+aXsEUpJFb+yhF/BigBcZrOxsV4+s/eMyPlcCKVDs5L+Y/KycOAbPlJlZVVZ2b4ydtqXV5BnRjYxc8OgctisaRlpOblcOWlprMIe2nQPAqgILrds2XLFrDmPPfGgvD2WUxJ++6t5f37zT5y2TQHEHYdy//53f8jKziKgwuZtjALQAwS5KEA7NILOgIfI4eT3x1gupDMW23EXCDRRDB6iGBZXSUmp29Xxox/fiU/Oc9DKc3QVN6gco9HEcaoodpo97evccUNkiBJXCLOHK/IQMkQCoDaRHnhSmC7HmFLMvHsVGnnwwYf27t47YeIEGvmfu3/8/PPP33XXXdxHMM1O1nff/fufXnx5ytSxY8aMYZlBgDgotDpJuihkLm5wKtHqnLAETcBw/fplgh6UFkOiJHzT1upcu2b9j398F0/27y8vK9vPwC+4YFp6eiqrLSAYZU54WTpr/8iMIlM76Q3DOLIv+qSl+7wA3dMmHxJ8e2ge0PO0O/TlQmLc0dEN9Q333//Qy6/M5+HTTz1z1w/vxIqlCmQut0wZXu3cueuN115/8uk//OQnd3FQNCYsUVjgDlNiSlESxEP4eGp4cKWl+8gGysvLy8hIR2fBVSALJli9ak1TU5vX4yfVnRNhoJjdxaWzrrh46tTJqDfpqLhAaloG+dHy2ORxnuKnqCJT2SlWOKvFBEC6XTIQuz046laeLSve9fX1vMjKykRKyDiIlJO+ggmRErBhw8YXX/jTF58suf2HtxBxIiDIai3CJyIhKYwbwaIWRyLs3r3X43IXDOIwjHREGaq+rbWd9UQWExE+cA8DbWtt24RF4Oy49torx4wZBaOQL86Orkjvp37z7ULDqY9bLolHgnSJ1JIRE/l6uIywuGRYQ9r82gaHIzc2tl151SV4D/ANniDSSegBea+1oH1y3cTvAnHWHm2OGDEM80Gs6QZFegPN0iCfYB3fory84qU//u2Fl57OL8glA6hfv1yEWI8jOWZg3b9S/mwFM7p3c5buYRcmIF900SP38FCWURQjy4RVB87m5dSUv7313sa1m5NTyeBNAEmQPBqFkqBDOBFdIbIgCHIgwdav3wRKSPDlTF30CmpZFOOYKVipK0TcyesjBzc4eNAAwRCoeK3Q1T0O5gRwUD78y4eP9l9PUPhb94rZRq4TDE4uIyOMTbhDhgyePuOiOIP+iUd/h17OzEjjMFsccJneZdYR2SddXSazCY3N0Tlr1m4ggouzjXlNIITlE7xFGsRrR7nt2VNaWDiaqC3wx3BiJPR4gvEc/+qfmBuOn8yJn8jIkEUK63EjR4686qrLyFHjFyMU0WqOa2UhnQVUOdwk4CgdK4tvm5AYj1FUW1uzeWMRbgQZXFhx4hxEjl5SKLBoV6/cPGr0UH7Ym6wUwn8gEgz1ChP/RmiQkRRBBjcEVMaPH3fd9deT23nPPb/m1FRAzEOkDVqdAsgoanEP3FPTUllG5bzc3SXiLBdiG2AUnCGFqqsqCVLl5uaSIESuIkns1OotGn7ZSwY6Mc39c7wFRrKM4oZo/OQpk6+4YiYC6pH7njVYyTVOFgntcIrk8UHdQBzlgeeRkZ7OOsrGjZtbWpphILx3LAUMNmKXo0ePAmtobtzy3qIBbB9lJv5zQLEvRimI/XAKKPfDhg371a9/vWTdRwiZm2++deOGTTiQ/EITZUhVF4U5KFEgJoCMuuCC8+PijPyqMVFCwn/8NkHRlp3kcWE7oUiE6QVp9wauRwy+vpjaP18bMjIYN3YPWnf06NFPPPHYmjVr2C3585//sqR4Dz/TiriHddhdQGEuZBS8QbL6pMnjMKJWr17HVu44Q+yB8nLO7SM/Gh6iQRExPuXr3x0NEUDhMwNrJA8GDxvr//jH3/31zVcIds175jkCGCZOwTEaJdEkRUI5qcvnw3UYOmwQ5x0SHyQvl22sWFBYtJzHG2n2FG/OdWjvFIf1DRaTdQayiDGQ30ck+JWXX21urr/k0kvTM9JYlGY5lFfYVCIvUMGaEoiLIUOudG/ZL37xMw4fJL7EIbWStD8ls5Ue0VT4hKdU+hsEzbnvujsyOCP9qxUrXnv1DY/PPX3GhRimItVDKG3CkYEOcSIqyaXOp556cmvRVs5Xg2lkLJ7isGU09EKEnWK7/zLFuiPD5XKtXLn6rTffwiplaeRgY2NrSwvKOCEx0Ywqt5jxtG+8cS5JWd+h4SgCEFTWozEO4R3mfxTpSYMIgJV2ZQInMFVUVER+CXFAVkFIPbNI51ISGyeaRHdyp3xKfURInP7k+x5GJKpIFY4a/XdfeoCAlOcRQUYPBaRHMg6+7u0JnostiCd4/d2rYyBwiGolyhYEf5irYK+TctUxTXX/+h03dIfGN3b///2eiew5BC1ZAAAAAElFTkSuQmCC;" vertex="1" parent="1">
                    <mxGeometry x="442" y="322" width="58.63" height="46" as="geometry"/>
                </mxCell>
                <mxCell id="-cxyng2Q86wyNeK6CYTB-27" value="钱包" style="text;html=1;align=center;verticalAlign=middle;resizable=0;points=[];autosize=1;strokeColor=none;fillColor=none;" vertex="1" parent="1">
                    <mxGeometry x="235" y="380" width="50" height="30" as="geometry"/>
                </mxCell>
                <mxCell id="-cxyng2Q86wyNeK6CYTB-28" value="钥匙串" style="text;html=1;align=center;verticalAlign=middle;resizable=0;points=[];autosize=1;strokeColor=none;fillColor=none;" vertex="1" parent="1">
                    <mxGeometry x="441.32" y="380" width="60" height="30" as="geometry"/>
                </mxCell>
                <mxCell id="-cxyng2Q86wyNeK6CYTB-29" value="" style="endArrow=none;html=1;dashed=1;" edge="1" parent="1">
                    <mxGeometry width="50" height="50" relative="1" as="geometry">
                        <mxPoint x="400" y="372.99999999999994" as="sourcePoint"/>
                        <mxPoint x="400" y="332.99999999999994" as="targetPoint"/>
                    </mxGeometry>
                </mxCell>
                <mxCell id="-cxyng2Q86wyNeK6CYTB-30" value="私钥4" style="rounded=0;whiteSpace=wrap;html=1;fillColor=#CCCCCC;" vertex="1" parent="1">
                    <mxGeometry x="290" y="330" width="40" height="40" as="geometry"/>
                </mxCell>
                <mxCell id="-cxyng2Q86wyNeK6CYTB-31" value="..." style="text;html=1;align=center;verticalAlign=middle;resizable=0;points=[];autosize=1;strokeColor=none;fillColor=none;" vertex="1" parent="1">
                    <mxGeometry x="328" y="333" width="30" height="30" as="geometry"/>
                </mxCell>
            </root>
        </mxGraphModel>
    </diagram>
</mxfile>